<?xml version="1.0" standalone="no"?>
<!DOCTYPE svg PUBLIC "-//W3C//DTD SVG 20010904//EN"
 "http://www.w3.org/TR/2001/REC-SVG-20010904/DTD/svg10.dtd">
<svg version="1.0" xmlns="http://www.w3.org/2000/svg"
 width="1350.000000pt" height="1350.000000pt" viewBox="0 0 1350.000000 1350.000000"
 preserveAspectRatio="xMidYMid meet">
<metadata>
Created by potrace 1.10, written by Peter Selinger 2001-2011
</metadata>
<g transform="translate(0.000000,1350.000000) scale(0.100000,-0.100000)"
fill="#000000" stroke="none">
<path d="M6840 13115 c-14 -8 -32 -14 -40 -15 -9 0 -23 -8 -32 -17 -20 -21
-33 -32 -71 -56 -15 -10 -39 -37 -54 -60 -15 -23 -33 -46 -40 -50 -7 -4 -13
-25 -13 -45 l1 -37 19 24 c11 13 20 30 20 39 0 37 158 164 253 203 15 6 27 15
27 20 0 14 -42 10 -70 -6z"/>
<path d="M7203 13032 c-13 -8 -63 -97 -63 -113 0 -5 9 -9 20 -9 11 0 20 5 20
11 0 6 16 29 35 52 19 22 35 47 35 54 0 14 -28 17 -47 5z"/>
<path d="M7315 12949 c-16 -16 -35 -29 -41 -29 -11 0 -44 -42 -44 -55 0 -17
34 1 71 38 24 24 52 46 62 50 9 3 17 11 17 17 0 20 -35 9 -65 -21z"/>
<path d="M6736 12918 c-25 -22 -46 -49 -46 -59 0 -10 -9 -21 -20 -24 -42 -13
-83 -85 -49 -85 14 0 29 18 70 82 20 31 35 45 45 41 25 -10 64 24 64 57 0 17
-4 30 -9 30 -6 0 -30 -19 -55 -42z"/>
<path d="M6968 12915 c-6 -14 -17 -25 -25 -25 -7 0 -13 -7 -13 -15 0 -23 16
-18 36 13 9 15 25 32 33 39 14 11 14 12 -2 13 -9 0 -23 -11 -29 -25z"/>
<path d="M6103 12893 c-13 -8 -23 -19 -23 -24 0 -17 27 -9 50 16 27 29 9 34
-27 8z"/>
<path d="M7096 12857 c-28 -21 -16 -41 12 -22 22 16 30 35 14 35 -5 0 -16 -6
-26 -13z"/>
<path d="M6410 12842 c-58 -39 -69 -79 -14 -51 41 20 74 48 74 61 0 13 -33 8
-60 -10z"/>
<path d="M7200 12813 c-16 -21 -20 -35 -15 -61 8 -45 -11 -102 -35 -102 -10 0
-38 -20 -63 -45 -26 -25 -50 -45 -55 -45 -4 0 -16 -16 -25 -35 -18 -38 -23
-71 -6 -42 5 9 14 17 19 17 5 0 31 20 57 45 88 82 104 95 123 95 21 0 21 1 38
114 14 93 3 111 -38 59z"/>
<path d="M7134 12756 c-8 -21 3 -49 16 -41 5 3 10 15 10 25 0 25 -18 36 -26
16z"/>
<path d="M6320 12739 c0 -12 -8 -23 -19 -26 -23 -6 -56 -72 -42 -86 18 -18 61
19 61 52 0 16 7 34 15 41 8 7 15 19 15 26 0 8 -7 14 -15 14 -9 0 -15 -9 -15
-21z"/>
<path d="M6658 12701 c-21 -22 -38 -46 -38 -54 0 -9 -17 -26 -37 -38 -49 -30
-64 -49 -59 -76 3 -23 -8 -31 -19 -13 -3 6 -17 10 -31 10 -38 0 -28 24 20 48
43 22 56 38 56 70 0 8 7 23 16 33 9 10 11 19 5 23 -5 4 -16 -1 -23 -10 -7 -9
-34 -38 -60 -64 -27 -26 -48 -52 -48 -58 0 -5 -7 -13 -17 -16 -14 -6 -14 -8 3
-21 18 -14 18 -15 -6 -35 -14 -12 -50 -33 -80 -47 -57 -27 -140 -112 -140
-144 0 -9 -10 -19 -24 -23 -17 -4 -25 -15 -29 -38 -2 -18 -3 -35 -1 -37 8 -8
42 31 48 55 5 19 15 25 46 30 22 4 40 9 40 13 0 4 23 24 50 46 28 22 50 46 50
53 0 16 39 51 58 52 9 0 10 -5 2 -19 -7 -14 -7 -22 2 -27 15 -10 108 91 108
117 0 11 8 23 18 26 39 15 96 71 118 117 38 79 30 87 -28 27z"/>
<path d="M5815 12665 c-65 -59 -59 -52 -106 -115 -54 -73 -71 -115 -63 -157 5
-28 3 -33 -12 -33 -14 0 -28 -20 -50 -68 -53 -112 -49 -136 14 -94 15 9 36 22
47 28 16 9 19 20 17 53 -2 23 1 41 7 41 5 0 13 10 16 23 4 12 16 29 28 38 l20
17 -21 6 c-12 4 -22 12 -22 17 0 20 126 218 145 229 11 6 28 22 38 36 30 40
-2 28 -58 -21z"/>
<path d="M6845 12671 c-56 -43 -112 -120 -145 -202 -26 -65 -56 -128 -73 -151
-6 -9 -8 -20 -5 -23 13 -13 47 6 57 33 6 15 20 41 30 57 11 17 29 48 41 70 12
22 35 56 51 76 16 20 29 41 29 47 0 6 3 12 8 14 4 2 24 24 45 49 63 78 44 92
-38 30z"/>
<path d="M7420 12695 c-14 -8 -37 -14 -52 -15 -15 0 -29 -4 -32 -9 -12 -18 30
-21 83 -5 31 9 62 18 69 20 20 6 4 24 -21 24 -12 -1 -33 -7 -47 -15z"/>
<path d="M7870 12663 c-8 -3 -33 -13 -55 -23 -69 -31 -147 -45 -250 -45 -55 0
-106 -4 -113 -8 -26 -17 2 -27 74 -27 59 0 74 -3 74 -15 0 -20 48 -19 74 0 11
8 40 15 64 15 34 0 53 7 82 30 21 17 43 30 49 30 6 0 11 9 11 19 0 11 8 22 18
24 11 3 12 5 2 5 -8 0 -22 -2 -30 -5z"/>
<path d="M7287 12653 c-14 -14 -6 -41 17 -56 21 -14 26 -14 36 -2 9 11 7 16
-9 25 -12 6 -21 17 -21 25 0 16 -12 20 -23 8z"/>
<path d="M6027 12643 c-4 -3 -7 -18 -7 -31 0 -14 -10 -39 -23 -56 -35 -46 -41
-65 -42 -130 -1 -45 -5 -62 -20 -72 -16 -12 -20 -11 -30 3 -11 15 -13 15 -24
-6 -9 -16 -9 -26 -2 -35 6 -8 8 -21 5 -31 -6 -15 -5 -16 15 -4 11 8 21 17 21
20 0 4 15 16 34 27 24 14 35 29 40 54 3 18 14 44 23 57 9 13 18 44 20 69 2 26
8 52 14 58 6 7 7 28 3 48 -6 35 -14 43 -27 29z"/>
<path d="M5903 12623 c-3 -10 -13 -26 -21 -36 -24 -27 -5 -32 23 -6 25 24 34
59 15 59 -6 0 -13 -8 -17 -17z"/>
<path d="M7905 12611 c-3 -5 -1 -12 5 -16 12 -7 30 2 30 16 0 12 -27 12 -35 0z"/>
<path d="M6895 12580 c-3 -11 -10 -20 -15 -20 -4 0 -15 -17 -23 -37 -8 -21
-40 -76 -71 -123 -31 -47 -56 -90 -56 -97 0 -22 23 -27 37 -7 29 40 83 137 83
149 0 7 9 24 20 38 11 14 20 32 20 40 0 8 7 20 15 27 16 14 21 50 6 50 -5 0
-13 -9 -16 -20z"/>
<path d="M7201 12561 c-25 -19 -24 -51 1 -51 23 0 58 30 58 51 0 24 -27 25
-59 0z"/>
<path d="M6230 12540 c-14 -11 -31 -20 -39 -20 -9 0 -11 -8 -7 -23 9 -36 -19
-67 -58 -67 -25 0 -38 -7 -51 -26 -35 -54 17 -77 55 -24 12 17 28 30 35 30 8
0 26 17 40 37 13 21 43 51 65 69 21 17 37 34 33 38 -12 12 -48 5 -73 -14z"/>
<path d="M6586 12455 c-44 -58 -84 -105 -89 -105 -20 0 -147 -145 -147 -167 0
-21 25 -15 54 13 20 21 32 25 56 21 20 -4 30 -2 30 5 0 7 18 30 39 53 32 32
161 257 161 280 0 3 -6 5 -13 5 -6 0 -48 -47 -91 -105z"/>
<path d="M5880 12518 c0 -7 -12 -24 -26 -37 -42 -41 -65 -121 -34 -121 9 0 20
25 20 45 0 8 14 34 30 58 31 46 37 67 20 67 -5 0 -10 -6 -10 -12z"/>
<path d="M7122 12500 c-43 -27 -122 -107 -133 -138 -5 -13 -9 -34 -9 -46 0
-13 -7 -29 -15 -36 -17 -14 -20 -65 -5 -75 12 -7 41 22 57 57 8 19 18 26 28
22 17 -7 20 -20 5 -29 -5 -3 -10 -15 -10 -25 0 -10 -11 -31 -25 -46 -31 -33
-37 -101 -7 -86 9 5 34 17 55 27 21 10 45 31 53 47 17 32 10 53 -9 27 -11 -15
-49 -39 -61 -39 -3 0 -6 9 -6 20 0 11 4 20 10 20 5 0 12 11 16 24 3 13 17 34
30 47 14 13 24 34 24 50 0 27 22 59 41 59 10 0 96 64 122 91 10 10 13 19 8 19
-5 0 -13 -4 -16 -10 -3 -5 -15 -10 -25 -10 -22 0 -103 -40 -109 -53 -6 -16
-41 -47 -52 -47 -21 0 2 55 37 88 18 18 34 40 34 48 0 18 1 18 -38 -6z"/>
<path d="M5394 12467 c-3 -10 -8 -59 -9 -110 -1 -51 -6 -109 -10 -130 -6 -34
-5 -39 14 -44 28 -7 27 -42 0 -77 -19 -24 -20 -30 -8 -52 20 -38 39 -25 61 41
12 33 24 62 27 65 26 22 40 83 21 95 -5 3 -10 15 -10 26 0 10 -4 19 -10 19 -5
0 -10 -16 -10 -36 0 -41 -15 -74 -34 -74 -11 0 -13 25 -8 128 3 83 1 136 -6
148 -10 18 -11 18 -18 1z"/>
<path d="M7365 12460 c-12 -4 -27 -15 -35 -24 -7 -10 -29 -24 -48 -31 -50 -21
-122 -102 -122 -137 0 -36 9 -35 46 5 17 17 45 45 62 60 18 16 32 32 32 35 0
4 16 18 36 31 32 22 61 58 52 66 -2 1 -12 -1 -23 -5z"/>
<path d="M5483 12444 c-3 -8 -1 -20 6 -27 8 -8 11 -4 11 16 0 30 -7 35 -17 11z"/>
<path d="M6900 12432 c0 -17 -14 -49 -35 -78 -19 -27 -35 -59 -35 -72 0 -12
-7 -25 -15 -28 -8 -4 -15 -14 -15 -24 0 -10 -8 -32 -17 -49 -21 -36 -12 -48
22 -33 16 7 25 20 25 34 1 13 7 34 15 48 8 14 14 33 15 42 0 9 14 40 30 68 30
51 39 103 20 115 -6 4 -10 -6 -10 -23z"/>
<path d="M7389 12362 c-25 -26 -59 -57 -75 -69 -17 -11 -41 -43 -54 -70 -14
-26 -33 -54 -42 -61 -24 -17 -23 -39 2 -52 15 -8 21 -6 30 10 18 33 48 26 52
-12 2 -22 9 -34 21 -36 22 -4 23 36 2 64 -8 10 -15 25 -15 33 0 21 40 101 51
101 5 0 9 6 9 13 0 20 43 57 67 57 11 0 32 -9 46 -20 14 -11 32 -17 41 -14 19
7 20 0 5 -27 -12 -23 -3 -59 14 -59 18 0 131 -109 162 -157 22 -34 34 -43 56
-43 19 0 29 5 29 15 0 8 -4 15 -10 15 -5 0 -10 7 -10 15 0 11 10 8 40 -13 28
-19 39 -33 36 -45 -3 -11 10 -39 28 -65 19 -26 41 -61 50 -79 17 -34 22 -128
7 -137 -13 -8 -61 51 -61 74 0 10 -4 21 -9 24 -5 4 -25 34 -44 69 -38 67 -71
107 -89 107 -13 0 -2 -83 13 -88 9 -4 49 -74 49 -87 0 -3 -7 -5 -16 -5 -11 0
-15 6 -11 20 3 11 1 20 -4 20 -5 0 -26 16 -47 35 -20 20 -45 43 -54 52 -10 9
-18 24 -18 33 0 9 -9 33 -20 55 -11 22 -20 50 -20 63 0 16 -15 38 -42 63 -52
47 -68 49 -68 9 0 -27 3 -30 30 -30 24 0 30 -5 32 -22 1 -27 3 -35 12 -68 8
-32 -6 -85 -24 -85 -8 0 -18 15 -22 34 -6 20 -17 35 -29 38 -10 3 -19 9 -19
14 0 5 -7 9 -15 9 -10 0 -15 -10 -15 -30 0 -41 68 -105 120 -114 21 -3 40 -12
43 -19 3 -8 34 -33 69 -57 76 -52 222 -180 261 -229 38 -48 51 -54 102 -47 27
5 58 2 86 -8 24 -9 54 -16 66 -16 12 0 24 -4 27 -9 3 -4 19 -11 36 -14 28 -6
41 -29 22 -41 -18 -11 -91 7 -94 23 -2 10 -15 16 -38 18 -19 1 -49 4 -65 8
-23 5 -35 2 -48 -13 -17 -18 -17 -20 0 -41 22 -26 47 -29 101 -12 39 13 42 13
72 -13 36 -30 58 -33 67 -10 4 10 13 14 29 10 13 -4 28 -1 36 7 7 8 20 12 30
9 20 -5 24 8 7 25 -7 7 5 9 40 5 31 -3 51 -1 51 6 0 18 -26 31 -48 25 -13 -3
-22 -1 -22 6 0 6 -7 11 -15 11 -8 0 -15 7 -15 15 0 8 5 15 10 15 6 0 10 5 10
10 0 6 -11 8 -25 4 -22 -5 -25 -3 -25 20 0 14 4 26 10 26 5 0 14 9 20 20 9 17
8 20 -10 20 -13 0 -20 -7 -20 -20 0 -12 -7 -20 -16 -20 -12 0 -15 6 -10 20 3
11 9 29 12 40 11 34 -23 36 -49 4 -50 -64 -91 -94 -130 -94 -48 0 -58 22 -27
56 26 27 55 31 64 9 10 -27 26 -15 26 20 0 24 -5 35 -15 35 -8 0 -15 4 -15 9
0 17 19 22 38 10 16 -10 23 -9 42 8 29 28 14 60 -33 65 -22 2 -31 7 -28 18 9
39 6 45 -21 42 -23 -3 -28 1 -34 24 -4 15 -2 40 4 56 7 20 7 30 -1 35 -11 7
-47 -32 -47 -52 0 -19 -28 -38 -46 -31 -13 5 -14 9 -4 21 8 9 10 27 6 47 -4
18 -9 51 -12 73 -10 83 -11 85 -50 85 -31 0 -35 -3 -28 -17 5 -10 9 -43 10
-73 1 -30 5 -68 8 -85 4 -16 2 -37 -4 -45 -18 -26 -43 17 -36 64 3 24 -1 50
-9 65 -17 32 -56 66 -72 63 -7 -2 -55 40 -108 92 -52 52 -105 98 -118 101 -47
14 -77 30 -77 42 0 18 -41 53 -62 53 -10 0 -18 5 -18 10 0 24 -39 6 -81 -38z
m656 -534 c-4 -18 -12 -41 -17 -52 -9 -16 -12 -17 -25 -3 -11 11 -14 25 -9 51
6 30 11 36 32 36 24 0 25 -3 19 -32z m105 -38 c0 -48 -3 -60 -18 -65 -11 -3
-34 -24 -51 -46 -37 -45 -51 -46 -62 -5 -6 21 -3 35 13 57 12 16 27 29 34 29
7 0 21 17 30 38 37 80 54 78 54 -8z"/>
<path d="M5293 12351 c-18 -40 -23 -70 -23 -134 0 -95 11 -123 36 -92 16 20
15 53 -2 158 -4 24 -2 48 6 62 6 12 10 30 8 40 -2 12 -11 0 -25 -34z"/>
<path d="M5746 12384 c-8 -21 -1 -28 19 -20 9 3 15 11 13 18 -7 19 -25 20 -32
2z"/>
<path d="M5513 12330 c-12 -28 -6 -47 9 -32 5 5 8 20 6 33 l-5 24 -10 -25z"/>
<path d="M6090 12312 c0 -4 -13 -22 -29 -39 -28 -31 -56 -91 -46 -101 10 -11
35 9 35 28 0 12 11 32 25 46 27 27 44 74 26 74 -6 0 -11 -3 -11 -8z"/>
<path d="M5192 12298 c-16 -16 -15 -77 1 -109 8 -14 17 -44 21 -67 6 -38 4
-43 -16 -51 -20 -8 -21 -10 -5 -16 35 -14 47 1 43 55 -2 28 -8 56 -13 63 -5 6
-9 40 -9 75 1 64 -2 70 -22 50z"/>
<path d="M6686 12254 c-21 -12 -25 -19 -17 -27 6 -6 11 -21 11 -34 0 -31 8
-29 42 9 46 52 24 84 -36 52z"/>
<path d="M7406 12254 c-3 -9 -6 -23 -6 -31 0 -9 -8 -22 -17 -29 -15 -11 -16
-15 -5 -26 12 -11 17 -9 29 10 9 12 22 22 30 22 22 0 27 29 8 50 -22 24 -31
25 -39 4z"/>
<path d="M5831 12231 c-12 -16 -21 -34 -21 -40 0 -6 -4 -11 -8 -11 -14 0 -62
-45 -62 -57 0 -6 -14 -39 -31 -72 -24 -47 -36 -61 -53 -61 -34 0 -38 11 -12
35 21 19 24 30 22 87 -3 80 -11 96 -37 72 -10 -9 -24 -14 -32 -11 -9 3 -17 -9
-26 -40 -11 -42 -10 -48 9 -68 31 -33 25 -42 -40 -48 -69 -6 -94 -21 -87 -53
4 -23 -17 -41 -28 -24 -15 25 -39 4 -61 -52 -9 -24 -16 -23 -44 8 -20 21 -22
27 -10 34 8 5 11 12 8 15 -4 4 -19 -5 -35 -19 -27 -25 -27 -27 -13 -54 9 -15
26 -28 40 -30 35 -5 44 -17 30 -42 -9 -17 -19 -21 -53 -18 -40 3 -42 2 -40
-24 1 -22 -3 -28 -30 -34 -20 -4 -33 -2 -35 5 -5 14 -52 15 -52 1 0 -5 12 -10
26 -10 23 0 25 -3 22 -37 -2 -30 -7 -38 -23 -38 -11 0 -40 -10 -64 -23 -25
-12 -55 -22 -68 -22 -18 0 -23 -6 -23 -25 0 -14 5 -25 11 -25 6 0 24 11 41 25
24 21 40 25 89 25 63 0 69 -6 43 -44 -23 -37 0 -42 41 -9 19 15 35 31 35 35 0
3 3 13 6 21 4 11 -2 16 -18 19 -29 4 -30 22 0 26 12 2 22 -1 22 -7 0 -23 22
-9 96 62 41 39 83 76 92 81 9 5 21 16 25 23 5 8 28 23 50 34 23 10 70 39 103
63 34 25 79 49 100 55 22 6 63 25 93 41 30 17 62 30 71 30 10 0 23 6 30 14 6
8 21 16 33 18 14 2 24 14 30 37 11 44 -5 62 -32 37 -11 -10 -24 -15 -29 -12
-6 3 -26 -10 -45 -29 -28 -28 -43 -35 -75 -35 -55 0 -71 21 -43 57 12 14 31
33 41 40 11 8 20 25 20 38 0 15 7 26 20 30 11 3 20 13 20 21 0 23 -17 16 -39
-15z"/>
<path d="M6573 12235 c-13 -14 -17 -35 -8 -35 12 0 55 33 55 41 0 14 -34 10
-47 -6z"/>
<path d="M5117 12204 c-8 -14 4 -62 19 -75 11 -9 14 -6 14 18 0 31 -23 72 -33
57z"/>
<path d="M6106 12185 c-9 -9 -16 -22 -16 -28 0 -6 10 -2 22 11 12 12 19 24 16
27 -3 3 -13 -1 -22 -10z"/>
<path d="M5972 12181 c2 -7 7 -12 11 -12 12 1 9 15 -3 20 -7 2 -11 -2 -8 -8z"/>
<path d="M5040 12123 c1 -40 32 -89 50 -78 13 8 13 40 1 63 -5 9 -12 25 -15
35 -3 9 -12 17 -21 17 -11 0 -15 -10 -15 -37z"/>
<path d="M5476 12143 c-9 -22 10 -41 25 -26 13 13 5 43 -10 43 -5 0 -12 -8
-15 -17z"/>
<path d="M6167 12131 c-14 -24 -15 -34 -5 -56 16 -36 32 -26 36 25 4 55 -9 68
-31 31z"/>
<path d="M6927 12133 c-2 -4 -1 -17 3 -28 7 -19 8 -19 15 -2 8 18 -9 46 -18
30z"/>
<path d="M6786 12075 c-9 -13 -16 -36 -16 -50 0 -16 -6 -25 -15 -25 -9 0 -15
-9 -15 -25 0 -27 -17 -34 -26 -10 -4 8 -10 15 -15 15 -12 0 -12 -37 0 -44 4
-3 11 -19 15 -36 6 -33 26 -32 26 1 0 30 30 69 52 69 15 0 18 5 13 19 -3 11
-1 22 5 26 12 8 14 85 1 85 -5 0 -16 -11 -25 -25z"/>
<path d="M7152 12067 c-16 -46 -15 -76 4 -84 9 -3 12 -9 7 -12 -5 -3 -22 -32
-38 -64 -16 -32 -37 -63 -47 -68 -32 -17 -22 -41 15 -37 28 3 32 6 33 35 1 17
8 39 18 48 9 9 16 20 16 25 0 9 36 24 60 25 10 0 16 12 18 33 3 31 2 32 -22
26 -20 -5 -26 -2 -26 9 0 9 4 18 9 21 12 8 -9 76 -24 76 -6 0 -16 -15 -23 -33z"/>
<path d="M7250 12045 c0 -20 5 -25 25 -25 29 0 33 17 8 36 -26 19 -33 17 -33
-11z"/>
<path d="M6672 12048 c-18 -18 -15 -28 8 -28 13 0 20 7 20 20 0 23 -10 26 -28
8z"/>
<path d="M4947 12043 c-4 -3 2 -20 12 -37 10 -17 21 -55 24 -83 5 -43 3 -54
-11 -62 -15 -9 -15 -10 -1 -11 9 0 24 -12 34 -26 13 -20 19 -23 30 -14 10 8
11 18 4 36 -15 42 -11 74 10 74 23 0 37 -16 46 -53 5 -19 12 -26 22 -23 8 3
28 6 44 6 18 0 28 4 24 10 -3 6 -17 10 -30 10 -14 0 -26 7 -29 18 -3 10 -19
25 -35 35 -16 9 -44 36 -63 60 -47 60 -67 75 -81 60z"/>
<path d="M5275 12030 c-9 -15 3 -60 15 -60 13 0 13 57 1 65 -5 3 -13 0 -16 -5z"/>
<path d="M5122 11988 c2 -24 8 -43 13 -43 6 0 11 19 13 43 3 33 0 42 -13 42
-13 0 -16 -9 -13 -42z"/>
<path d="M6533 11975 c-8 -22 6 -33 17 -15 13 20 12 30 0 30 -6 0 -13 -7 -17
-15z"/>
<path d="M6914 11966 c-11 -23 -10 -24 7 -13 11 7 19 17 19 24 0 21 -14 15
-26 -11z"/>
<path d="M7014 11979 c-3 -6 -1 -16 5 -22 8 -8 11 -5 11 11 0 24 -5 28 -16 11z"/>
<path d="M7320 11950 c0 -5 11 -10 25 -10 14 0 25 5 25 10 0 6 -11 10 -25 10
-14 0 -25 -4 -25 -10z"/>
<path d="M7390 11936 c0 -7 7 -19 15 -26 12 -10 16 -9 21 3 3 9 3 21 -1 27 -9
15 -35 12 -35 -4z"/>
<path d="M4912 11891 c4 -13 18 -16 19 -4 0 4 -5 9 -11 12 -7 2 -11 -2 -8 -8z"/>
<path d="M6296 11867 c-8 -31 -7 -47 3 -47 11 0 20 59 10 65 -3 3 -9 -5 -13
-18z"/>
<path d="M6378 11883 c-20 -3 -28 -10 -28 -24 0 -27 65 -27 80 0 17 33 15 34
-52 24z"/>
<path d="M4870 11821 c0 -32 21 -61 45 -61 32 0 33 25 3 51 -25 20 -48 25 -48
10z"/>
<path d="M5042 11769 c6 -18 47 -24 61 -10 8 8 5 11 -10 11 -12 0 -29 3 -39 7
-12 4 -15 2 -12 -8z"/>
<path d="M4970 11736 c0 -9 4 -16 10 -16 5 0 18 -10 30 -22 27 -30 38 -14 13
20 -23 31 -53 41 -53 18z"/>
<path d="M4850 11647 c-34 -9 -46 -17 -48 -34 -3 -20 0 -21 60 -16 34 4 69 12
76 20 7 7 20 13 28 13 27 0 14 17 -17 24 -39 7 -43 7 -99 -7z"/>
<path d="M5098 11538 c-20 -7 -28 -17 -28 -33 0 -13 5 -27 10 -30 19 -12 10
-35 -16 -41 -17 -4 -37 -1 -54 10 -34 20 -86 12 -101 -16 -14 -27 6 -51 31
-38 27 15 30 13 30 -17 0 -17 -11 -38 -26 -52 -32 -31 -30 -74 4 -79 25 -4 28
-17 8 -38 -17 -16 -46 -19 -46 -4 0 17 -15 11 -46 -19 -16 -15 -39 -32 -52
-36 -21 -6 -23 -4 -20 22 2 21 8 28 25 27 17 0 20 3 13 16 -11 20 3 45 19 35
14 -8 41 12 41 32 0 7 9 23 20 35 25 27 26 48 1 48 -19 0 -58 -47 -53 -64 6
-18 -22 -36 -58 -36 -20 0 -51 -7 -68 -16 -26 -12 -31 -20 -26 -38 4 -16 0
-25 -11 -29 -14 -6 -13 -10 5 -35 19 -25 20 -32 8 -58 -7 -16 -18 -35 -25 -42
-16 -17 -16 -18 3 -52 16 -26 16 -30 -9 -81 -29 -63 -43 -150 -29 -176 7 -12
6 -26 -4 -45 -8 -16 -12 -34 -7 -40 4 -7 5 -51 4 -98 -2 -47 -3 -94 -3 -105
10 -254 0 -527 -18 -550 -5 -6 -11 -54 -13 -107 -3 -54 -8 -101 -11 -106 -3
-5 -8 -29 -12 -53 -4 -24 -13 -53 -19 -64 -19 -31 -29 -128 -13 -123 7 3 17
22 21 44 5 21 15 59 23 84 8 25 14 57 14 72 0 15 4 29 9 32 10 7 39 102 91
296 12 46 40 261 40 315 0 17 -2 65 -6 108 -4 47 -2 82 4 90 6 6 11 46 11 87
3 218 5 230 28 248 16 12 21 23 17 39 -4 15 1 29 18 45 13 13 29 31 37 41 12
15 11 17 -10 15 -65 -8 10 95 79 108 26 5 32 10 27 23 -4 9 -9 22 -12 29 -3 7
14 30 38 52 40 36 44 45 44 85 0 25 5 45 11 45 13 0 58 47 73 78 8 15 9 28 2
41 -11 21 7 68 34 91 12 10 13 16 4 26 -13 16 -14 16 -51 2z m-258 -488 c0 -5
-7 -10 -15 -10 -8 0 -15 5 -15 10 0 6 7 10 15 10 8 0 15 -4 15 -10z m-59 -53
c-8 -8 -11 -7 -11 4 0 20 13 34 18 19 3 -7 -1 -17 -7 -23z"/>
<path d="M4760 11478 c0 -12 8 -30 17 -40 9 -11 17 -31 18 -46 0 -18 6 -28 19
-30 26 -5 41 13 23 29 -12 12 -12 15 0 24 23 17 -20 85 -53 85 -18 0 -24 -5
-24 -22z"/>
<path d="M8426 11435 c-21 -7 -53 -30 -71 -50 -31 -33 -37 -36 -72 -29 -21 3
-42 10 -47 15 -6 5 -19 9 -31 9 -11 0 -29 6 -40 13 -24 16 -80 29 -89 20 -9
-9 24 -43 42 -43 8 0 28 -12 45 -26 30 -25 36 -26 110 -21 58 4 82 10 91 22 7
10 22 16 37 13 35 -5 30 -22 -8 -26 -27 -3 -33 -7 -33 -28 0 -17 6 -24 19 -24
11 0 23 5 26 10 3 6 13 10 21 10 20 0 94 60 94 77 0 7 -12 26 -27 42 -27 29
-29 30 -67 16z"/>
<path d="M6217 11413 c-9 -2 -15 -8 -12 -12 6 -11 55 -1 55 10 0 9 -13 10 -43
2z"/>
<path d="M6310 11410 c-20 -13 2 -18 78 -19 41 0 78 -3 82 -6 11 -7 60 15 60
27 0 10 -203 8 -220 -2z"/>
<path d="M6590 11410 c-11 -7 -6 -10 20 -10 26 0 31 3 20 10 -8 5 -17 10 -20
10 -3 0 -12 -5 -20 -10z"/>
<path d="M4713 11344 c-8 -21 5 -31 48 -39 42 -8 56 5 37 35 -16 25 -75 28
-85 4z"/>
<path d="M8459 11244 c-13 -15 -37 -32 -52 -39 l-29 -12 43 -36 c23 -21 51
-37 60 -37 26 0 43 -35 29 -60 -14 -26 -30 -26 -30 1 0 18 -4 20 -22 14 -63
-19 -68 -19 -68 8 0 16 -8 31 -21 37 -11 6 -19 19 -18 28 3 30 -1 35 -16 22
-13 -11 -20 -11 -40 0 -35 19 -32 40 5 40 17 0 30 4 30 10 0 11 -40 23 -61 19
-8 -2 -25 1 -38 5 -33 11 -50 -8 -28 -32 9 -10 17 -23 17 -28 0 -17 71 -74 91
-74 10 0 19 -4 19 -9 0 -5 9 -11 20 -14 33 -8 24 -30 -10 -25 -18 3 -35 -1
-41 -9 -15 -18 35 -36 79 -28 26 5 33 2 38 -12 3 -10 14 -34 24 -53 9 -19 20
-50 23 -67 6 -30 4 -33 -18 -33 -14 0 -25 5 -25 11 0 5 -16 17 -35 25 -76 31
-74 9 6 -64 49 -45 59 -60 55 -78 -4 -16 1 -29 15 -43 19 -17 20 -23 8 -37
-12 -15 -15 -14 -31 6 -10 12 -18 31 -18 41 0 10 -4 19 -10 19 -22 0 -10 -55
18 -78 26 -22 27 -28 28 -115 1 -51 7 -112 14 -137 17 -62 16 -97 -3 -118 -13
-14 -14 -30 -6 -97 5 -44 12 -93 15 -110 4 -16 8 -43 9 -60 6 -66 34 -223 43
-241 6 -11 15 -37 21 -59 17 -68 38 -118 45 -106 4 6 10 34 13 63 9 74 25 96
79 104 30 4 49 2 59 -6 24 -20 29 -4 6 19 -15 15 -34 21 -65 21 -25 0 -47 -4
-50 -9 -3 -5 -17 -11 -32 -14 -29 -5 -43 15 -26 36 15 18 17 134 3 177 -22 71
-6 220 30 278 10 16 10 26 2 44 -13 25 -12 82 1 111 6 12 0 30 -18 57 -20 30
-23 42 -13 45 21 9 20 112 -1 125 -16 9 -16 11 2 25 14 11 17 21 11 42 -4 15
-6 41 -6 57 0 16 -4 35 -10 43 -6 7 -8 24 -5 37 5 19 0 29 -19 44 -24 19 -24
20 -5 37 24 22 25 32 4 81 -9 22 -17 62 -18 89 -1 46 -3 50 -25 50 -34 1 -37
19 -6 33 27 13 32 31 13 50 -18 18 -32 15 -59 -14z m51 -315 c0 -5 -7 -9 -15
-9 -15 0 -20 12 -9 23 8 8 24 -1 24 -14z"/>
<path d="M6385 11200 c-4 -6 7 -10 27 -9 27 0 30 2 13 9 -27 12 -33 12 -40 0z"/>
<path d="M6357 11054 c-4 -4 -4 -10 -1 -15 6 -10 34 0 34 12 0 10 -24 12 -33
3z"/>
<path d="M8364 10786 c-4 -11 -1 -21 7 -27 17 -11 26 18 10 34 -7 7 -12 5 -17
-7z"/>
<path d="M6710 10623 c0 -5 5 -15 10 -23 8 -12 10 -11 10 8 0 12 -4 22 -10 22
-5 0 -10 -3 -10 -7z"/>
<path d="M5550 10491 c0 -14 -80 -42 -101 -36 -11 4 -26 -2 -38 -14 -20 -20
-61 -27 -146 -22 -41 1 -73 -23 -56 -43 7 -9 22 -14 33 -13 33 3 32 -20 -2
-26 -21 -5 -30 -12 -30 -27 0 -11 7 -20 15 -20 8 0 15 5 15 10 0 7 13 8 34 4
20 -3 40 -1 48 5 7 6 26 22 42 36 20 17 41 25 66 25 26 0 40 5 44 16 4 11 13
14 31 10 16 -4 39 1 64 13 26 14 49 18 73 15 24 -4 38 -1 47 10 19 23 9 29
-55 34 -34 3 -58 10 -61 18 -6 16 -23 19 -23 5z"/>
<path d="M7630 10485 c0 -8 6 -15 13 -15 18 0 113 -88 104 -97 -4 -4 -66 -8
-138 -9 -80 -1 -135 -6 -142 -13 -13 -13 -47 -15 -47 -3 0 5 14 18 30 30 34
25 38 40 14 49 -10 4 -20 0 -26 -10 -5 -10 -20 -17 -33 -17 -14 0 -29 -8 -35
-20 -6 -11 -17 -20 -24 -20 -7 0 -34 -16 -60 -36 -51 -38 -74 -39 -38 -1 26
28 28 47 5 47 -18 0 -73 -47 -73 -62 0 -10 80 -88 91 -88 4 0 9 7 13 15 3 8
16 15 28 15 13 1 34 7 48 15 30 17 151 20 167 4 15 -15 37 -1 25 14 -11 14 2
57 18 57 5 0 10 -11 10 -25 0 -29 2 -30 39 -11 15 8 55 18 89 22 45 5 65 12
72 25 16 30 11 58 -12 70 -13 6 -42 27 -65 45 -44 36 -73 44 -73 19z"/>
<path d="M5836 10472 c-11 -17 36 -42 79 -42 29 0 46 -6 59 -21 14 -17 25 -20
54 -15 21 3 45 6 56 6 15 0 17 5 11 28 -10 40 -22 48 -43 29 -22 -20 -43 -22
-59 -6 -6 6 -29 13 -50 14 -21 2 -52 6 -69 10 -19 4 -34 3 -38 -3z"/>
<path d="M7131 10466 c-7 -8 -20 -12 -31 -9 -14 4 -23 -2 -31 -21 -15 -33 1
-55 36 -48 22 4 25 1 25 -26 0 -20 -8 -37 -24 -49 -20 -16 -45 -83 -30 -83 21
0 64 34 64 50 0 11 6 20 14 20 8 0 16 15 19 38 3 20 11 56 18 80 12 37 11 44
-1 52 -22 14 -46 12 -59 -4z"/>
<path d="M7826 10422 c-3 -6 -1 -14 5 -17 15 -10 25 3 12 16 -7 7 -13 7 -17 1z"/>
<path d="M7910 10396 c-34 -12 -34 -13 -13 -25 13 -6 34 -9 48 -5 18 4 27 2
31 -10 8 -21 25 -10 17 12 -6 17 -32 43 -42 41 -3 0 -22 -6 -41 -13z"/>
<path d="M5864 10389 c-7 -12 12 -29 33 -29 7 0 19 -15 27 -32 19 -45 71 -98
94 -98 11 0 25 -7 32 -15 16 -20 56 -19 64 0 8 23 -80 114 -105 108 -13 -4
-21 2 -29 21 -5 14 -17 26 -25 26 -9 0 -23 7 -31 15 -18 18 -50 20 -60 4z"/>
<path d="M5697 10357 c-3 -25 2 -38 28 -64 18 -18 36 -33 40 -33 5 0 16 -7 26
-16 14 -12 22 -13 39 -4 17 9 25 8 39 -4 24 -22 31 -20 31 9 0 37 -51 88 -102
103 -25 7 -57 19 -71 27 -24 12 -25 12 -30 -18z"/>
<path d="M6840 10377 c0 -8 9 -22 19 -31 24 -22 37 -5 19 24 -14 23 -38 27
-38 7z"/>
<path d="M6174 10338 c9 -56 26 -74 55 -59 30 17 26 42 -13 74 -19 15 -38 27
-42 27 -3 0 -4 -19 0 -42z"/>
<path d="M5096 10334 c-36 -35 -42 -71 -6 -39 12 11 26 14 39 10 18 -5 21 -2
21 24 0 44 -13 45 -54 5z"/>
<path d="M6740 10358 c1 -7 7 -24 15 -38 8 -14 14 -44 15 -67 0 -54 14 -55 28
-3 11 45 6 77 -16 103 -18 20 -42 23 -42 5z"/>
<path d="M7058 10362 c-10 -2 -18 -8 -18 -13 0 -13 27 -11 35 2 9 13 4 16 -17
11z"/>
<path d="M6353 10344 c-8 -21 13 -42 28 -27 13 13 5 43 -11 43 -6 0 -13 -7
-17 -16z"/>
<path d="M8045 10350 c3 -5 13 -10 21 -10 8 0 14 5 14 10 0 6 -9 10 -21 10
-11 0 -17 -4 -14 -10z"/>
<path d="M5545 10301 c-7 -13 17 -24 40 -19 9 1 16 8 16 13 0 14 -48 19 -56 6z"/>
<path d="M6946 10273 c4 -21 8 -41 11 -45 6 -11 32 3 28 15 -2 7 -6 24 -9 40
-4 15 -13 27 -22 27 -12 0 -14 -8 -8 -37z"/>
<path d="M8030 10285 c0 -24 52 -64 83 -65 15 0 27 3 27 6 0 4 -17 22 -37 40
-39 36 -73 44 -73 19z"/>
<path d="M5147 10284 c-8 -8 1 -24 14 -24 5 0 9 7 9 15 0 15 -12 20 -23 9z"/>
<path d="M6188 10253 c-23 -6 -22 -9 2 -33 23 -23 40 -26 40 -6 0 20 -11 46
-19 45 -3 -1 -14 -3 -23 -6z"/>
<path d="M5018 10196 c-22 -17 -23 -45 -2 -53 15 -5 63 39 64 60 0 12 -44 7
-62 -7z"/>
<path d="M6320 10194 c-31 -14 -33 -16 -17 -25 22 -13 47 -5 47 15 0 8 8 17
18 19 12 3 12 5 2 5 -8 1 -31 -6 -50 -14z"/>
<path d="M6685 10130 c-9 -15 4 -30 25 -30 27 0 34 17 11 29 -24 13 -28 14
-36 1z"/>
<path d="M8130 10130 c-13 -9 -12 -13 9 -30 33 -28 61 -26 61 4 0 16 -7 26
-22 30 -30 8 -30 7 -48 -4z"/>
<path d="M5471 10118 c-81 -23 -291 -186 -291 -225 0 -16 3 -16 45 2 20 8 59
36 88 63 28 28 81 64 117 81 55 25 82 31 168 36 78 4 110 2 135 -9 17 -8 58
-22 89 -30 31 -9 87 -32 124 -51 37 -19 73 -35 81 -35 7 0 16 -7 19 -15 9 -21
24 -19 24 4 0 11 -11 26 -24 33 -13 7 -41 25 -62 39 -43 28 -120 59 -147 59
-10 0 -31 7 -47 15 -37 19 -179 45 -240 44 -25 0 -60 -5 -79 -11z"/>
<path d="M7565 10122 c-27 -2 -57 -9 -65 -16 -8 -8 -31 -16 -51 -20 -73 -13
-229 -85 -312 -145 -81 -59 -40 -60 75 -2 57 28 119 54 138 58 19 3 42 16 51
27 15 19 28 21 121 21 130 0 200 -21 285 -87 82 -63 114 -65 75 -6 -22 33 -52
56 -122 92 -44 23 -72 30 -140 34 -103 5 -131 22 -39 23 35 1 75 5 89 9 l25 8
-27 1 c-14 1 -32 2 -40 4 -7 2 -35 2 -63 -1z"/>
<path d="M6717 10064 c-8 -8 1 -24 14 -24 5 0 9 7 9 15 0 15 -12 20 -23 9z"/>
<path d="M6767 10064 c-13 -13 -7 -24 14 -24 11 0 19 5 17 12 -5 14 -22 21
-31 12z"/>
<path d="M6597 10044 c-13 -13 -7 -24 14 -24 11 0 19 5 17 12 -5 14 -22 21
-31 12z"/>
<path d="M6301 9984 c-16 -16 -31 -22 -40 -18 -9 4 -34 9 -55 12 l-39 4 7 -33
c3 -18 18 -45 31 -59 14 -14 25 -37 25 -50 0 -31 -62 -105 -117 -139 -48 -30
-47 -41 4 -41 44 0 123 50 158 99 30 45 58 118 50 131 -3 5 1 30 10 56 22 66
9 81 -34 38z"/>
<path d="M6700 10000 c0 -5 11 -10 25 -10 14 0 25 5 25 10 0 6 -11 10 -25 10
-14 0 -25 -4 -25 -10z"/>
<path d="M5588 9994 c-3 -3 -36 -10 -73 -15 -53 -7 -75 -16 -102 -39 -18 -17
-41 -30 -49 -30 -9 0 -37 -11 -63 -24 -25 -13 -63 -32 -85 -42 -21 -10 -42
-29 -47 -41 -5 -14 -17 -23 -31 -23 -12 0 -37 -5 -55 -12 -27 -10 -33 -17 -33
-40 0 -26 3 -28 38 -27 20 0 59 6 87 12 39 10 50 16 50 32 0 11 11 35 26 53
25 32 26 33 84 26 34 -4 65 -14 76 -25 9 -9 28 -20 41 -24 12 -4 34 -14 47
-22 16 -10 26 -12 33 -5 18 18 1 39 -35 46 -19 3 -42 15 -51 25 -16 17 -16 23
-3 63 13 37 19 43 45 46 44 5 68 -12 75 -50 3 -19 15 -50 27 -71 l22 -37 99 3
c54 2 103 7 108 13 5 5 20 38 34 74 14 35 30 66 36 68 6 2 27 -12 46 -31 19
-19 42 -38 51 -41 20 -8 13 -30 -12 -34 -10 -2 -32 -10 -49 -17 -16 -7 -39
-16 -50 -20 -20 -8 -20 -8 0 -12 47 -10 49 -12 25 -38 -12 -13 -20 -28 -16
-33 3 -5 30 -9 61 -9 60 0 70 12 36 46 -19 19 -19 19 22 16 23 -1 49 -6 59
-10 11 -4 29 5 57 30 23 21 41 42 41 47 0 6 -13 23 -30 38 -25 23 -38 28 -77
27 -39 -2 -57 4 -96 31 -26 17 -56 32 -65 32 -10 0 -27 6 -38 14 -11 8 -69 19
-129 25 -125 13 -130 13 -137 5z m64 -83 c-2 -12 8 -35 23 -53 32 -38 20 -60
-19 -34 -22 14 -26 24 -26 67 0 36 4 49 13 46 6 -2 11 -14 9 -26z m116 15 c16
-8 37 -14 47 -13 29 3 30 -33 3 -65 -26 -30 -57 -42 -78 -28 -12 7 -11 12 5
30 16 18 17 23 5 30 -8 6 -20 10 -27 10 -19 0 -26 20 -13 35 15 19 24 19 58 1z"/>
<path d="M7475 9953 c-67 -5 -155 -25 -162 -37 -9 -14 -5 -92 9 -149 10 -39
17 -49 37 -53 15 -3 37 -9 51 -14 14 -5 48 -12 76 -15 51 -7 51 -6 88 38 28
34 36 53 36 83 0 68 21 76 79 32 13 -10 33 -18 44 -18 17 0 19 -5 14 -37 -4
-21 -13 -43 -22 -49 -40 -29 1 -32 47 -4 27 17 43 19 90 14 31 -4 69 -3 84 0
25 7 25 8 10 25 -16 17 -43 29 -138 60 -20 7 -50 24 -67 38 -16 14 -47 33 -68
40 -91 35 -147 53 -157 51 -6 -1 -29 -3 -51 -5z m-61 -72 c3 -5 -1 -14 -9 -21
-10 -8 -13 -21 -9 -34 23 -76 124 -91 124 -19 0 20 -4 22 -24 17 -13 -3 -34 0
-47 6 -22 12 -22 13 -4 26 24 18 60 18 78 0 11 -11 17 -12 26 -3 17 17 32 -4
23 -33 -4 -14 -14 -34 -22 -45 -18 -23 -75 -65 -89 -65 -14 0 -81 47 -97 68
-16 21 -18 66 -4 93 11 19 44 26 54 10z"/>
<path d="M6883 9920 c-13 -5 -23 -14 -23 -20 0 -13 -33 -13 -47 1 -17 17 -33
2 -33 -31 0 -47 34 -112 91 -172 60 -63 96 -78 130 -55 21 15 21 16 -20 36
-28 15 -43 30 -47 49 -4 15 -15 38 -26 51 -24 31 -23 73 2 96 22 20 27 55 8
54 -7 0 -23 -4 -35 -9z"/>
<path d="M7184 9864 c-43 -33 -51 -36 -95 -31 -41 5 -51 2 -74 -19 -31 -28
-30 -54 3 -70 13 -6 29 -19 36 -29 9 -13 20 -16 40 -11 22 5 28 2 37 -21 l11
-28 15 23 c9 12 26 22 39 22 34 0 79 19 68 29 -5 5 -25 18 -44 28 -49 27 -49
49 -1 91 71 61 42 75 -35 16z"/>
<path d="M4976 9881 c-8 -13 3 -61 14 -61 5 0 12 10 15 21 8 24 -18 59 -29 40z"/>
<path d="M4384 9799 c-5 -8 -9 -185 -9 -394 -1 -424 2 -456 55 -490 25 -16 30
-25 25 -45 -18 -73 -18 -78 5 -85 19 -6 20 -9 7 -23 -8 -10 -20 -34 -27 -54
-9 -30 -17 -38 -36 -38 -17 0 -27 -8 -34 -24 -5 -13 -14 -27 -19 -31 -13 -8
-15 -75 -2 -75 11 0 21 25 21 56 0 13 4 24 10 24 17 0 32 -42 27 -77 -5 -31
-4 -34 16 -31 18 2 25 14 36 63 8 33 21 76 30 95 22 50 19 210 -5 227 -10 8
-15 20 -11 33 4 15 0 23 -16 29 -31 12 -54 100 -63 232 -7 109 -2 132 47 219
24 44 69 142 75 164 3 14 12 30 20 37 23 19 16 46 -32 116 -25 38 -47 69 -48
70 -1 2 -16 6 -33 9 -20 4 -33 2 -39 -7z"/>
<path d="M5010 9771 c0 -12 5 -21 10 -21 6 0 10 6 10 14 0 8 -4 18 -10 21 -5
3 -10 -3 -10 -14z"/>
<path d="M8780 9756 c0 -8 5 -18 10 -21 6 -3 10 1 10 9 0 8 -4 18 -10 21 -5 3
-10 -1 -10 -9z"/>
<path d="M7970 9726 c-5 -14 -7 -32 -4 -39 6 -16 104 -63 119 -58 6 2 23 7 39
10 37 8 44 27 14 36 -13 4 -53 22 -91 41 l-67 35 -10 -25z"/>
<path d="M5667 9706 c-5 -12 -21 -16 -71 -16 -68 0 -97 -16 -112 -63 -9 -29 0
-30 46 -7 29 15 58 21 98 20 67 -2 146 16 163 36 6 8 23 14 37 14 19 0 23 3
15 11 -9 9 -23 9 -57 0 -62 -15 -93 -14 -104 5 -8 15 -10 15 -15 0z"/>
<path d="M8750 9650 c-71 -71 -111 -150 -76 -150 20 0 46 -39 46 -69 0 -13 17
-59 38 -100 37 -76 37 -76 40 -223 3 -140 2 -149 -22 -201 -27 -56 -33 -92
-17 -101 15 -9 57 11 67 31 9 21 27 554 24 743 -1 69 -16 130 -31 130 -5 0
-36 -27 -69 -60z"/>
<path d="M7185 9680 c-11 -19 6 -30 46 -30 26 0 42 -5 45 -15 4 -8 17 -15 30
-15 14 0 27 -7 30 -15 4 -8 18 -15 33 -15 15 0 32 -5 37 -10 24 -24 155 -50
241 -49 95 1 159 12 133 22 -13 5 -76 14 -135 20 -11 1 -26 6 -32 10 -7 4 -45
10 -85 14 -40 3 -84 11 -98 18 -23 11 -221 75 -233 75 -3 0 -9 -4 -12 -10z"/>
<path d="M7764 9624 c-18 -15 -18 -15 6 -10 14 3 28 6 33 6 4 0 7 5 7 10 0 15
-24 12 -46 -6z"/>
<path d="M8604 9538 c3 -13 6 -27 6 -31 0 -5 4 -6 9 -3 11 7 2 56 -11 56 -6 0
-8 -10 -4 -22z"/>
<path d="M5635 9500 c-8 -24 1 -40 21 -40 20 0 29 27 14 45 -17 20 -27 19 -35
-5z"/>
<path d="M8643 9405 c0 -22 2 -30 4 -17 2 12 2 30 0 40 -3 9 -5 -1 -4 -23z"/>
<path d="M4498 9387 c-32 -26 -47 -64 -49 -120 -2 -48 16 -123 32 -133 7 -4 9
-42 7 -99 -1 -52 1 -97 5 -101 20 -20 28 25 31 177 2 90 7 194 12 232 4 38 3
67 -2 67 -5 -1 -21 -11 -36 -23z"/>
<path d="M7372 9378 c3 -7 18 -14 34 -16 l29 -2 -25 14 c-31 19 -43 20 -38 4z"/>
<path d="M6087 9343 c-20 -20 -37 -44 -37 -53 0 -9 -16 -35 -35 -57 -19 -23
-35 -46 -35 -51 0 -5 -6 -15 -14 -22 -8 -6 -12 -18 -10 -25 3 -8 -2 -29 -12
-47 -42 -81 -43 -88 -14 -88 11 0 20 7 20 15 0 8 9 29 20 47 11 18 20 39 20
47 0 14 43 71 101 135 49 53 74 136 40 136 -4 0 -24 -16 -44 -37z"/>
<path d="M6907 9353 c-10 -10 -8 -20 7 -35 7 -8 19 -25 27 -40 13 -23 91 -118
147 -175 12 -13 22 -28 22 -33 0 -6 5 -10 10 -10 12 0 13 5 1 28 -24 46 -51
110 -51 119 0 8 -144 153 -153 153 -2 0 -7 -3 -10 -7z"/>
<path d="M8660 9213 c0 -49 -1 -113 -4 -143 -8 -74 -6 -205 2 -313 4 -48 4
-93 1 -99 -4 -6 0 -22 8 -35 10 -14 13 -33 9 -49 -4 -14 -2 -31 3 -38 5 -6 11
-34 13 -61 4 -64 23 -64 23 1 0 42 3 49 20 49 17 0 20 -7 20 -45 0 -52 6 -57
40 -34 13 9 29 13 35 9 13 -8 13 -35 0 -35 -6 0 -15 -11 -20 -24 -12 -32 -46
-43 -69 -22 -19 17 -111 23 -111 7 0 -5 10 -15 23 -24 20 -14 20 -17 6 -29
-19 -16 -39 -102 -39 -169 0 -42 3 -49 20 -49 17 0 20 7 20 43 1 44 26 87 53
87 7 0 37 22 64 48 39 38 52 58 58 90 4 23 11 42 16 42 5 0 9 20 9 44 0 80
-80 157 -114 110 -24 -32 -31 -7 -28 89 3 70 0 102 -13 135 -21 53 -13 153 24
298 17 67 8 150 -19 179 -43 46 -52 35 -50 -62z m20 -948 c0 -8 -4 -15 -10
-15 -5 0 -10 7 -10 15 0 8 5 15 10 15 6 0 10 -7 10 -15z"/>
<path d="M6773 9261 c-6 -3 -13 -16 -17 -29 -6 -16 -3 -24 11 -29 10 -3 25
-12 35 -20 18 -16 23 -11 32 33 6 28 4 33 -22 42 -16 5 -34 7 -39 3z"/>
<path d="M6293 9213 c-7 -2 -13 -11 -13 -20 0 -20 34 -12 38 10 3 17 -3 20
-25 10z"/>
<path d="M6364 9205 c25 -19 36 -19 36 0 0 10 -10 15 -27 15 -27 -1 -27 -1 -9
-15z"/>
<path d="M6677 9194 c-33 -18 -26 -37 11 -28 33 8 54 23 46 35 -7 13 -25 11
-57 -7z"/>
<path d="M6555 9180 c3 -5 15 -10 25 -10 10 0 22 5 25 10 4 6 -7 10 -25 10
-18 0 -29 -4 -25 -10z"/>
<path d="M6215 9051 c-16 -10 -43 -31 -59 -46 l-30 -28 23 -18 c14 -11 39 -19
62 -19 35 0 42 -4 60 -35 29 -49 54 -44 92 18 10 15 26 27 36 27 10 0 24 7 31
15 11 13 8 21 -19 49 -24 25 -47 36 -88 45 -72 14 -73 14 -108 -8z"/>
<path d="M6672 9027 c-31 -33 -29 -80 3 -101 14 -9 23 -21 21 -25 -3 -5 3 -16
14 -26 19 -17 26 -18 88 -5 69 14 122 43 122 68 0 25 -31 67 -66 90 -49 32
-151 32 -182 -1z"/>
<path d="M7052 8972 c-31 -15 -32 -18 -26 -61 3 -26 7 -53 10 -61 5 -21 -5
-34 -46 -59 -21 -13 -52 -21 -78 -21 -42 0 -92 -23 -92 -42 0 -6 38 -8 103 -4
167 10 156 7 163 44 4 18 4 45 1 60 -3 15 -1 53 5 85 6 33 7 62 2 67 -5 4 -24
1 -42 -8z"/>
<path d="M5672 8943 c4 -22 43 -25 43 -3 0 8 -11 16 -23 18 -19 3 -23 0 -20
-15z"/>
<path d="M5842 8936 c-9 -19 -8 -25 3 -30 14 -5 35 21 35 43 0 21 -27 11 -38
-13z"/>
<path d="M6006 8902 c-3 -5 -5 -53 -5 -106 1 -85 3 -96 19 -96 25 0 34 29 15
50 -8 9 -15 20 -15 23 0 9 65 8 119 -2 54 -11 73 -5 69 22 -2 16 -16 23 -63
35 -43 10 -70 24 -96 49 -20 19 -39 30 -43 25z"/>
<path d="M5743 8838 c-44 -9 -59 -28 -24 -28 28 0 36 -19 15 -35 -11 -8 -14
-15 -7 -15 6 0 15 5 18 10 3 6 17 10 29 10 30 0 49 23 41 50 -7 22 -10 22 -72
8z"/>
<path d="M6365 8760 c-3 -5 -15 -10 -26 -10 -28 0 -21 -30 9 -41 20 -8 22 -6
16 19 -5 22 -4 25 7 15 19 -19 29 -16 29 7 0 21 -24 28 -35 10z"/>
<path d="M6548 8733 c-22 -26 -28 -53 -20 -92 11 -49 30 -51 28 -3 0 25 7 47
22 66 32 41 4 68 -30 29z"/>
<path d="M6720 8730 c0 -5 7 -10 15 -10 8 0 15 5 15 10 0 6 -7 10 -15 10 -8 0
-15 -4 -15 -10z"/>
<path d="M6226 8713 c-25 -4 -27 -7 -21 -31 4 -15 7 -37 7 -49 0 -30 14 -29
34 2 9 14 23 25 30 25 9 0 14 11 14 30 0 31 -1 32 -64 23z"/>
<path d="M6130 8690 c-8 -5 -27 -10 -42 -10 -33 0 -34 -3 -11 -30 24 -27 49
-25 78 6 33 36 15 60 -25 34z"/>
<path d="M6414 8686 c-9 -22 4 -36 32 -36 21 0 25 4 22 23 -4 26 -45 37 -54
13z"/>
<path d="M5581 8656 c-14 -8 -19 -16 -13 -20 13 -8 62 10 62 24 0 14 -20 12
-49 -4z"/>
<path d="M6313 8638 c2 -7 10 -13 17 -13 7 0 15 6 18 13 2 7 -5 12 -18 12 -13
0 -20 -5 -17 -12z"/>
<path d="M6417 8633 c-14 -14 -7 -61 10 -68 16 -6 16 -8 -4 -23 -12 -9 -30
-35 -39 -56 l-16 -40 -18 24 -18 25 -7 -27 c-8 -33 0 -48 26 -48 11 0 39 -9
61 -20 42 -20 98 -27 98 -12 0 13 -35 42 -49 42 -10 0 -12 15 -6 64 4 42 3 66
-4 71 -6 3 -11 22 -11 41 0 32 -8 42 -23 27z"/>
<path d="M6650 8626 c0 -7 -10 -20 -22 -28 -20 -14 -21 -48 -1 -48 13 0 50 64
46 78 -6 16 -23 15 -23 -2z"/>
<path d="M6832 8599 c2 -24 8 -44 13 -44 15 0 12 78 -3 83 -10 3 -12 -7 -10
-39z"/>
<path d="M7014 8619 c-3 -6 -2 -15 4 -21 11 -11 52 6 52 22 0 14 -47 13 -56
-1z"/>
<path d="M6759 8593 c-17 -46 -6 -61 18 -23 12 19 19 38 17 42 -10 16 -25 8
-35 -19z"/>
<path d="M6297 8573 c-15 -15 -7 -43 13 -43 15 0 20 7 20 25 0 24 -18 34 -33
18z"/>
<path d="M4497 8523 c-11 -10 -8 -43 3 -43 6 0 10 11 10 25 0 26 -2 29 -13 18z"/>
<path d="M5902 8494 c-38 -42 -38 -44 -12 -44 12 0 28 13 40 33 36 59 20 65
-28 11z"/>
<path d="M4335 8483 c7 -37 57 -109 104 -150 26 -22 26 -25 24 -147 -2 -116 0
-125 18 -131 16 -5 19 -16 19 -60 0 -30 4 -56 9 -59 4 -3 10 -52 13 -108 4
-95 7 -106 32 -133 106 -116 107 -118 101 -143 -3 -13 -1 -30 5 -38 7 -7 12
-34 12 -59 1 -25 6 -49 12 -53 16 -10 43 -80 50 -126 3 -21 12 -46 21 -56 8
-9 15 -29 15 -43 0 -15 4 -35 10 -45 20 -36 50 -112 50 -126 0 -19 20 -32 21
-14 3 29 -4 54 -17 69 -8 8 -14 28 -14 42 0 24 4 27 33 28 42 1 84 13 72 21
-6 3 -25 9 -42 13 -18 3 -33 13 -33 20 0 20 -19 28 -35 15 -12 -10 -15 -6 -21
17 -4 15 -12 34 -18 42 -9 11 -7 13 12 7 19 -6 22 -4 22 18 0 14 -4 28 -10 31
-5 3 -10 14 -10 23 0 10 -13 33 -30 52 -35 41 -39 70 -10 70 11 0 20 -4 20
-10 0 -5 5 -10 10 -10 29 0 -11 97 -44 106 -14 3 -30 23 -44 52 -27 56 -27 71
-5 87 17 13 17 14 0 32 -9 11 -17 29 -17 41 0 12 -9 27 -20 34 -11 7 -20 20
-20 30 0 9 -5 20 -11 24 -7 4 -8 19 -5 38 9 43 16 85 19 121 2 29 1 30 -35 27
-39 -4 -47 5 -25 27 10 10 7 16 -11 30 -22 16 -23 21 -14 55 6 22 7 47 2 59
-4 12 -13 42 -20 67 -7 25 -21 62 -32 83 -17 33 -18 43 -8 62 12 23 7 45 -10
45 -5 0 -17 -13 -26 -30 -23 -37 -43 -45 -60 -23 -19 25 -17 34 6 40 30 8 24
29 -14 52 -49 31 -59 28 -51 -16z m211 -500 c-5 -12 -10 -13 -17 -6 -8 8 -7
18 2 34 12 21 14 22 17 6 2 -10 1 -25 -2 -34z m62 -247 c4 -34 -8 -49 -31 -40
-19 7 -33 47 -22 64 4 6 17 10 28 8 16 -2 23 -11 25 -32z m114 -231 c0 -5 -5
-11 -11 -13 -6 -2 -11 4 -11 13 0 9 5 15 11 13 6 -2 11 -8 11 -13z"/>
<path d="M6553 8446 c-2 -71 7 -83 52 -66 29 11 34 50 10 70 -8 7 -15 20 -15
30 0 16 -18 30 -38 30 -4 0 -8 -29 -9 -64z"/>
<path d="M4547 8442 c-25 -81 -22 -88 19 -48 l37 35 -17 36 c-9 19 -18 35 -19
35 -1 0 -10 -26 -20 -58z"/>
<path d="M5998 8448 c-5 -60 0 -90 13 -82 12 7 12 134 0 134 -5 0 -11 -24 -13
-52z"/>
<path d="M6666 8484 c-20 -20 -20 -34 -1 -34 8 0 15 7 15 15 0 7 8 19 18 24
15 9 15 10 0 11 -9 0 -24 -7 -32 -16z"/>
<path d="M6180 8471 c0 -12 5 -21 11 -21 11 0 9 -28 -6 -62 -6 -14 -2 -18 18
-18 14 0 33 7 41 16 15 14 14 19 -15 55 -39 49 -49 55 -49 30z"/>
<path d="M6926 8453 c-13 -14 -5 -33 14 -33 11 0 20 6 20 14 0 15 -24 28 -34
19z"/>
<path d="M7466 8422 c-8 -14 53 -54 77 -50 20 3 18 6 -18 31 -43 29 -51 32
-59 19z"/>
<path d="M6680 8400 c0 -23 10 -26 28 -8 18 18 15 28 -8 28 -13 0 -20 -7 -20
-20z"/>
<path d="M6050 8380 c0 -13 5 -20 13 -17 6 2 12 10 12 17 0 7 -6 15 -12 18 -8
2 -13 -5 -13 -18z"/>
<path d="M6762 8369 l-24 -29 25 0 c13 0 32 9 41 19 17 18 17 20 -1 29 -14 7
-23 3 -41 -19z"/>
<path d="M4610 8375 c0 -8 5 -15 10 -15 6 0 10 7 10 15 0 8 -4 15 -10 15 -5 0
-10 -7 -10 -15z"/>
<path d="M8570 8375 c0 -10 7 -15 18 -13 21 4 19 22 -2 26 -10 2 -16 -3 -16
-13z"/>
<path d="M6884 8319 c-19 -21 -19 -21 6 -18 14 2 26 12 28 22 5 23 -11 22 -34
-4z"/>
<path d="M5701 8320 c-6 -12 -8 -67 -4 -82 2 -10 11 -18 19 -18 22 0 29 29 11
43 -9 7 -18 23 -20 37 -2 14 -5 23 -6 20z"/>
<path d="M7052 8290 c0 -19 2 -27 5 -17 2 9 2 25 0 35 -3 9 -5 1 -5 -18z"/>
<path d="M7200 8300 c0 -16 26 -40 44 -40 15 0 4 40 -13 50 -27 14 -31 13 -31
-10z"/>
<path d="M5797 8274 c-18 -37 -14 -78 6 -71 7 2 21 19 32 39 16 30 17 39 6 52
-19 23 -25 20 -44 -20z"/>
<path d="M6955 8299 c-9 -13 -5 -16 20 -21 12 -2 21 3 23 15 4 19 -32 25 -43
6z"/>
<path d="M6214 8276 c-28 -13 -70 -27 -92 -31 -23 -4 -52 -15 -64 -24 -13 -10
-45 -23 -73 -30 -27 -7 -54 -16 -60 -21 -6 -5 -44 -11 -85 -15 -116 -8 -160
-24 -178 -62 -18 -37 -29 -41 -48 -15 -12 16 -15 15 -46 -15 -19 -18 -39 -33
-46 -33 -19 0 -14 -48 6 -58 9 -5 33 -12 54 -15 32 -5 40 -1 67 28 74 82 211
125 443 140 66 4 126 3 168 -5 127 -24 188 -28 430 -33 223 -4 254 -7 350 -31
58 -15 113 -29 123 -31 9 -2 23 -7 29 -11 13 -8 89 -21 166 -28 38 -4 42 -3
42 19 0 26 -38 55 -71 55 -13 0 -36 4 -53 9 -17 6 -69 14 -116 20 -75 8 -110
19 -170 53 -8 4 -22 11 -30 14 -8 3 -46 19 -85 36 -99 42 -192 69 -245 69 -56
0 -112 -9 -122 -19 -17 -17 -53 -15 -68 3 -7 8 -19 15 -26 15 -7 0 -28 9 -46
20 -43 26 -92 25 -154 -4z m145 -56 c22 0 29 -24 11 -35 -13 -8 -70 26 -70 43
0 9 5 10 19 2 11 -5 29 -10 40 -10z m-134 -20 c-11 -5 -38 -9 -60 -9 -31 0
-36 2 -20 9 11 5 38 9 60 9 31 0 36 -2 20 -9z m565 -30 c11 -7 4 -10 -27 -10
-23 0 -45 5 -48 10 -8 13 55 13 75 0z"/>
<path d="M7110 8242 c-18 -15 -20 -21 -11 -45 15 -40 29 -33 33 18 2 25 2 45
2 45 -1 0 -12 -8 -24 -18z"/>
<path d="M7409 8213 c-1 -24 -3 -50 -3 -60 -1 -9 4 -18 11 -20 19 -7 25 52 9
88 l-14 34 -3 -42z"/>
<path d="M7312 8218 c5 -32 28 -35 28 -4 0 17 -5 26 -16 26 -10 0 -14 -7 -12
-22z"/>
<path d="M7160 8221 c0 -17 15 -19 35 -5 18 13 18 14 -8 14 -15 0 -27 -4 -27
-9z"/>
<path d="M8695 8180 c-4 -6 -3 -16 3 -22 13 -13 23 4 13 21 -7 10 -10 10 -16
1z"/>
<path d="M7240 8173 c0 -5 7 -16 15 -27 18 -24 39 -12 25 15 -10 18 -40 27
-40 12z"/>
<path d="M8360 8167 c0 -25 26 -51 45 -44 15 7 15 9 -7 32 -26 28 -38 31 -38
12z"/>
<path d="M8692 8085 c10 -23 38 -36 38 -17 -1 13 -27 42 -38 42 -9 0 -9 -7 0
-25z"/>
<path d="M8607 8094 c-4 -4 -7 -20 -7 -35 0 -15 -4 -31 -10 -34 -5 -3 -10 -16
-10 -29 0 -13 -9 -31 -20 -41 -11 -10 -20 -24 -20 -32 0 -7 -7 -13 -15 -13
-18 0 -20 -41 -3 -58 9 -9 9 -17 1 -34 -7 -13 -14 -40 -18 -62 -4 -23 -13 -40
-23 -43 -25 -7 -64 -73 -59 -100 5 -26 -12 -97 -33 -133 -7 -14 -15 -42 -16
-63 -1 -26 -9 -43 -23 -53 -11 -8 -23 -30 -27 -48 -4 -22 -13 -36 -25 -39 -27
-7 -25 -45 3 -49 32 -5 33 -25 1 -42 -28 -15 -28 -16 -5 -22 24 -7 28 -24 10
-42 -7 -7 -8 -12 -2 -12 15 1 44 26 44 40 0 6 9 23 20 37 11 14 20 35 20 47 0
12 5 27 12 34 6 6 12 24 13 39 2 30 31 124 48 158 6 11 21 58 33 103 13 46 28
89 33 96 5 6 11 31 13 56 3 42 5 44 33 45 26 0 30 3 27 23 -2 13 1 29 7 36 8
10 7 17 -4 26 -18 15 -10 99 11 116 14 11 34 57 34 79 0 18 -34 58 -43 49z"/>
<path d="M4837 8072 c-10 -10 -17 -26 -17 -34 0 -23 35 -62 48 -54 20 12 13
106 -8 106 -4 0 -14 -8 -23 -18z"/>
<path d="M5422 8073 c2 -10 10 -18 18 -18 8 0 16 8 18 18 2 12 -3 17 -18 17
-15 0 -20 -5 -18 -17z"/>
<path d="M4890 7946 c0 -13 49 -56 64 -56 13 0 5 19 -20 44 -30 29 -44 33 -44
12z"/>
<path d="M5460 7950 c0 -5 6 -10 14 -10 8 0 18 5 21 10 3 6 -3 10 -14 10 -12
0 -21 -4 -21 -10z"/>
<path d="M6272 7938 c-6 -6 -32 -11 -57 -10 -25 0 -45 -3 -45 -6 1 -11 69 -42
93 -42 13 0 28 -5 34 -11 8 -8 13 -8 17 0 12 18 44 12 60 -10 15 -21 16 -21
67 -5 46 15 54 16 67 3 18 -18 8 -37 -19 -37 -35 0 -19 -35 18 -38 17 -2 37
-10 43 -18 18 -21 29 -17 40 12 10 25 30 25 30 -1 0 -28 19 -24 34 6 11 21 14
44 10 70 -5 32 -12 40 -38 48 -28 9 -198 24 -268 24 -15 0 -29 6 -32 13 -7 17
-38 18 -54 2z m310 -103 c0 -5 -5 -11 -11 -13 -6 -2 -11 4 -11 13 0 9 5 15 11
13 6 -2 11 -8 11 -13z"/>
<path d="M7420 7910 c0 -18 26 -40 49 -40 15 0 14 33 -1 48 -19 19 -48 15 -48
-8z"/>
<path d="M6673 7894 c-3 -8 -1 -20 6 -27 14 -14 47 15 37 32 -10 16 -36 13
-43 -5z"/>
<path d="M6830 7900 c0 -5 9 -10 21 -10 11 0 17 5 14 10 -3 6 -13 10 -21 10
-8 0 -14 -4 -14 -10z"/>
<path d="M8220 7885 c0 -14 5 -25 10 -25 6 0 10 11 10 25 0 14 -4 25 -10 25
-5 0 -10 -11 -10 -25z"/>
<path d="M4820 7856 c0 -27 15 -42 25 -26 8 13 -3 50 -16 50 -5 0 -9 -11 -9
-24z"/>
<path d="M8637 7856 c-4 -10 -5 -21 -2 -24 9 -9 17 6 13 25 -3 17 -4 17 -11
-1z"/>
<path d="M7946 7853 c-3 -3 -6 -19 -6 -35 0 -21 -6 -31 -25 -38 -14 -5 -25
-17 -25 -27 1 -17 1 -17 14 0 7 9 20 17 29 17 19 0 37 29 37 59 0 21 -13 35
-24 24z"/>
<path d="M8040 7840 c0 -5 9 -10 20 -10 11 0 20 5 20 10 0 6 -9 10 -20 10 -11
0 -20 -4 -20 -10z"/>
<path d="M6326 7825 c-7 -19 3 -47 15 -39 12 7 12 54 0 54 -5 0 -11 -7 -15
-15z"/>
<path d="M5101 7816 c-8 -10 -9 -16 -1 -21 13 -8 30 3 30 21 0 18 -14 18 -29
0z"/>
<path d="M6387 7823 c-4 -3 -7 -20 -7 -37 0 -26 -6 -34 -30 -43 -20 -7 -30
-18 -30 -32 0 -19 4 -20 45 -14 29 4 45 2 45 -5 0 -24 -63 -38 -87 -20 -21 17
-58 5 -61 -19 -2 -15 2 -23 12 -23 8 0 18 -9 21 -20 3 -11 12 -20 19 -20 7 0
21 9 31 20 25 28 32 26 55 -21 18 -33 25 -39 43 -34 12 4 27 13 33 21 8 9 14
10 21 3 17 -17 50 -1 56 27 5 28 -11 44 -24 23 -4 -7 -11 -10 -16 -6 -4 5 -1
12 7 18 13 8 13 10 1 18 -9 6 -22 4 -36 -5 -21 -14 -24 -12 -50 23 -15 21 -35
44 -44 51 -13 11 -11 16 23 43 20 18 34 35 29 39 -13 12 -49 21 -56 13z"/>
<path d="M5040 7799 c0 -11 5 -17 10 -14 6 3 10 13 10 21 0 8 -4 14 -10 14 -5
0 -10 -9 -10 -21z"/>
<path d="M6223 7790 c-13 -15 -23 -32 -23 -37 -1 -13 -37 -53 -49 -53 -6 0
-11 -7 -11 -15 0 -30 40 -14 90 37 47 48 50 54 39 75 -16 29 -19 28 -46 -7z"/>
<path d="M6770 7806 c0 -9 7 -16 16 -16 9 0 14 5 12 12 -6 18 -28 21 -28 4z"/>
<path d="M6140 7790 c0 -11 5 -20 10 -20 6 0 10 9 10 20 0 11 -4 20 -10 20 -5
0 -10 -9 -10 -20z"/>
<path d="M4820 7762 c0 -11 11 -24 25 -30 29 -13 29 -12 13 23 -13 29 -38 34
-38 7z"/>
<path d="M6048 7759 c-26 -15 -22 -44 8 -68 15 -12 30 -21 34 -21 12 0 43 77
36 89 -9 14 -55 14 -78 0z"/>
<path d="M6712 7749 c-11 -28 -3 -81 11 -76 13 4 27 64 20 84 -8 19 -23 16
-31 -8z"/>
<path d="M5005 7750 c-3 -5 -3 -20 1 -34 3 -13 1 -34 -6 -45 -9 -18 -8 -21 9
-21 17 0 19 7 19 55 -1 51 -9 68 -23 45z"/>
<path d="M8055 7750 c-3 -6 1 -13 10 -16 19 -8 30 0 20 15 -8 14 -22 14 -30 1z"/>
<path d="M8176 7714 c-20 -22 -36 -42 -36 -46 0 -14 19 -18 44 -9 18 7 27 20
32 46 3 20 4 38 1 42 -3 3 -22 -12 -41 -33z"/>
<path d="M6477 7734 c-11 -11 -8 -42 4 -49 6 -4 16 1 23 11 7 9 18 14 24 10 7
-4 12 -3 12 2 0 5 -8 12 -17 16 -10 3 -23 8 -29 11 -5 3 -13 2 -17 -1z"/>
<path d="M7945 7730 c-4 -6 -3 -16 3 -22 6 -6 12 -6 17 2 4 6 3 16 -3 22 -6 6
-12 6 -17 -2z"/>
<path d="M6622 7718 c-7 -7 -12 -24 -12 -39 0 -15 -5 -31 -11 -35 -6 -3 -8
-16 -5 -28 3 -12 -1 -32 -10 -44 -14 -20 -14 -22 4 -22 16 0 21 9 26 45 9 54
19 62 45 34 12 -13 26 -19 36 -15 23 9 14 40 -13 44 -12 2 -22 9 -23 15 -1 7
-2 21 -3 31 -1 24 -18 30 -34 14z"/>
<path d="M7820 7660 c0 -11 7 -20 15 -20 8 0 15 9 15 20 0 11 -7 20 -15 20 -8
0 -15 -9 -15 -20z"/>
<path d="M4707 7646 c-9 -22 39 -54 56 -37 8 8 9 16 1 29 -14 22 -50 27 -57 8z"/>
<path d="M6074 7629 c-3 -6 -2 -15 4 -21 13 -13 32 -2 32 18 0 16 -26 19 -36
3z"/>
<path d="M7759 7597 c-9 -21 -9 -30 1 -42 18 -22 27 -19 33 13 3 16 0 33 -8
41 -12 12 -16 10 -26 -12z"/>
<path d="M6794 7595 c-10 -26 4 -45 35 -45 35 0 50 28 25 47 -24 17 -53 16
-60 -2z"/>
<path d="M8616 7543 c-11 -11 -6 -23 9 -23 8 0 15 4 15 9 0 13 -16 22 -24 14z"/>
<path d="M8332 7515 c-6 -14 -16 -25 -22 -25 -5 0 -10 -4 -10 -10 0 -17 19
-11 50 17 34 30 38 43 12 43 -11 0 -24 -11 -30 -25z"/>
<path d="M8097 7484 c-8 -8 1 -24 14 -24 5 0 9 7 9 15 0 15 -12 20 -23 9z"/>
<path d="M4887 7448 c-6 -42 1 -49 20 -21 12 18 18 20 33 11 9 -6 25 -8 35 -4
26 10 -2 39 -32 33 -13 -2 -26 0 -29 4 -11 18 -22 8 -27 -23z"/>
<path d="M6500 7403 c-8 -3 -25 -15 -38 -26 -17 -16 -19 -23 -10 -29 23 -14
54 -9 73 12 20 22 55 26 73 8 9 -9 13 -7 18 5 10 26 -4 39 -28 26 -15 -8 -27
-8 -45 0 -13 6 -25 11 -26 10 -1 0 -9 -3 -17 -6z"/>
<path d="M8263 7387 c-11 -12 -24 -39 -27 -59 -6 -34 -5 -38 14 -38 17 0 20 4
15 19 -3 12 0 23 8 28 25 15 38 49 23 62 -10 8 -18 5 -33 -12z"/>
<path d="M6240 7385 c0 -8 7 -15 15 -15 8 0 15 7 15 15 0 8 -7 15 -15 15 -8 0
-15 -7 -15 -15z"/>
<path d="M6084 7368 c-3 -5 2 -18 12 -29 20 -22 94 -27 94 -6 0 16 -98 49
-106 35z"/>
<path d="M8060 7350 c0 -11 5 -20 10 -20 6 0 10 9 10 20 0 11 -4 20 -10 20 -5
0 -10 -9 -10 -20z"/>
<path d="M6324 7323 c11 -12 86 -14 86 -3 0 6 -21 10 -47 10 -25 0 -43 -3 -39
-7z"/>
<path d="M7980 7254 c0 -14 4 -23 10 -19 6 3 10 15 10 26 0 10 -4 19 -10 19
-5 0 -10 -12 -10 -26z"/>
<path d="M4890 7255 c-20 -24 -1 -39 21 -16 10 11 19 23 19 26 0 11 -28 4 -40
-10z"/>
<path d="M6693 7236 c-36 -34 -42 -60 -17 -70 21 -8 36 2 31 22 -2 10 3 30 11
45 7 16 12 30 10 31 -2 1 -18 -12 -35 -28z"/>
<path d="M6240 7230 c0 -5 6 -10 14 -10 8 0 18 5 21 10 3 6 -3 10 -14 10 -12
0 -21 -4 -21 -10z"/>
<path d="M6521 7145 c-15 -16 -21 -31 -16 -43 6 -15 8 -15 26 7 10 13 19 32
19 42 0 24 0 24 -29 -6z"/>
<path d="M6746 7155 c-3 -9 0 -15 9 -15 8 0 15 7 15 15 0 8 -4 15 -9 15 -5 0
-11 -7 -15 -15z"/>
<path d="M8190 7135 c-15 -19 -11 -24 21 -27 18 -2 25 2 27 20 3 16 -2 22 -16
22 -11 0 -25 -7 -32 -15z"/>
<path d="M6022 7111 c-9 -25 -8 -31 3 -31 17 0 30 39 17 52 -6 6 -13 -1 -20
-21z"/>
<path d="M6205 7126 c-3 -9 -7 -23 -10 -32 -4 -13 -8 -14 -20 -4 -13 10 -19 9
-35 -5 -28 -25 -25 -33 12 -31 49 2 99 62 68 81 -6 3 -12 -1 -15 -9z"/>
<path d="M4925 7073 c-6 -45 -5 -49 25 -76 17 -15 35 -25 40 -22 14 9 12 63
-2 68 -10 3 -10 9 -2 24 15 24 -4 53 -33 53 -17 0 -22 -9 -28 -47z"/>
<path d="M5475 7096 c-18 -13 -18 -14 3 -25 18 -10 23 -9 28 4 10 25 -9 37
-31 21z"/>
<path d="M8345 7058 c-8 -28 -15 -63 -15 -77 -1 -14 -7 -53 -15 -86 -18 -76
-19 -120 -1 -153 41 -80 58 -137 87 -292 27 -147 31 -421 6 -515 -46 -181
-101 -355 -127 -403 -18 -35 -40 -103 -40 -126 0 -14 -16 -40 -42 -65 -53 -54
-138 -219 -138 -269 0 -63 -28 -132 -75 -190 -25 -30 -45 -59 -45 -64 0 -6
-13 -27 -29 -47 -16 -20 -37 -52 -47 -71 -22 -41 -36 -59 -81 -102 -18 -17
-33 -38 -33 -47 0 -21 -22 -53 -92 -137 -31 -38 -66 -80 -77 -94 -12 -14 -44
-55 -71 -92 -28 -38 -58 -68 -66 -68 -8 0 -25 -5 -37 -12 -49 -28 -182 -71
-277 -91 -293 -61 -488 -62 -730 -5 -25 6 -63 14 -85 18 -62 11 -72 18 -101
68 -15 26 -31 51 -35 57 -5 5 -28 35 -52 65 -24 31 -52 69 -63 85 -40 64 -169
230 -198 256 -17 15 -48 43 -68 62 -64 60 -157 96 -298 116 -43 6 -45 7 -53
49 -4 23 -12 42 -18 42 -5 0 -9 -4 -9 -10 0 -5 -7 -10 -15 -10 -8 0 -15 7 -15
15 0 10 -10 15 -26 15 -15 0 -32 6 -38 14 -6 8 -22 17 -35 21 -31 9 -24 -15 9
-32 13 -6 27 -19 32 -27 5 -9 17 -16 27 -16 16 0 39 -19 54 -46 4 -7 -12 -10
-51 -8 -31 2 -47 0 -34 -2 12 -3 29 -16 38 -29 13 -19 21 -22 54 -18 35 5 40
3 55 -27 16 -31 16 -32 -10 -57 -23 -24 -27 -25 -52 -12 -14 8 -28 22 -31 32
-3 13 -15 17 -48 17 -51 0 -58 -15 -11 -25 17 -4 46 -18 64 -31 17 -13 38 -24
46 -24 21 0 107 69 107 85 0 23 21 18 27 -6 5 -17 11 -19 42 -14 30 5 41 2 56
-14 10 -12 24 -21 31 -21 23 0 64 -23 64 -35 0 -6 11 -17 25 -23 15 -7 25 -20
25 -32 0 -11 8 -24 17 -27 27 -11 88 -75 108 -113 10 -19 24 -39 31 -43 8 -4
14 -17 14 -27 0 -11 4 -20 9 -20 4 0 19 -15 32 -34 129 -183 209 -270 241
-260 21 6 112 -74 129 -115 7 -18 13 -21 21 -13 9 9 6 18 -11 36 -12 13 -18
26 -14 29 11 7 127 -8 142 -18 29 -17 275 -20 407 -4 44 5 88 10 99 10 11 1
38 7 60 14 55 17 201 39 214 31 5 -4 33 16 62 43 29 28 65 53 81 56 54 12 115
74 215 220 16 22 31 42 36 43 11 6 73 103 90 142 8 19 38 59 66 89 28 30 51
58 51 63 0 4 15 25 33 45 18 21 41 58 51 83 28 71 32 75 59 75 35 1 41 9 25
35 -12 19 -10 24 10 37 12 9 22 21 22 27 0 6 7 23 14 39 8 15 11 27 6 27 -22
0 -17 50 10 105 17 33 30 66 30 73 0 18 28 26 44 13 10 -9 15 0 25 42 6 29 22
69 36 89 13 19 34 64 45 99 12 35 25 69 30 74 4 6 11 28 15 50 3 22 13 47 21
56 8 8 18 35 24 60 18 87 35 147 43 155 4 4 7 24 7 44 0 21 6 43 14 49 10 8
16 53 22 159 5 81 8 156 6 167 -2 11 -5 47 -7 80 -6 100 -31 269 -42 290 -22
42 -36 91 -37 127 -1 20 -5 40 -9 44 -11 11 -8 72 3 79 16 10 77 -43 99 -86
14 -25 19 -49 15 -64 -5 -20 -2 -25 13 -25 26 0 35 -10 23 -25 -7 -9 -3 -17
15 -29 14 -9 23 -21 20 -27 -4 -5 5 -23 19 -40 14 -17 26 -38 26 -47 1 -22 61
-87 100 -107 17 -9 33 -22 36 -28 2 -7 29 -32 59 -56 31 -25 52 -48 49 -56 -8
-20 26 -67 44 -60 8 3 33 -10 57 -30 24 -19 52 -35 64 -35 11 0 22 -4 25 -9 3
-5 18 -12 33 -16 15 -3 33 -14 40 -24 7 -10 27 -21 44 -25 18 -3 41 -13 50
-22 19 -17 50 -16 56 3 3 7 -9 13 -29 15 -25 2 -34 8 -36 26 -2 13 2 22 10 22
31 0 57 -13 61 -31 4 -14 14 -19 40 -19 20 0 39 -5 42 -11 4 -5 14 -8 23 -6
10 2 31 -7 49 -20 17 -12 38 -20 46 -17 8 3 18 1 22 -5 3 -6 16 -11 29 -11 12
0 27 -5 33 -11 7 -7 53 -17 104 -23 94 -12 125 -30 72 -42 -15 -3 -32 -12 -38
-18 -38 -44 -121 -60 -158 -31 -11 7 -25 11 -33 8 -21 -8 2 -43 29 -43 12 0
39 -3 60 -6 35 -6 70 4 129 36 41 23 94 22 139 0 24 -13 46 -26 49 -31 3 -4
36 -30 74 -58 50 -36 94 -58 155 -77 47 -14 98 -30 112 -35 33 -13 86 -21 122
-20 15 1 40 -5 55 -13 15 -7 46 -17 69 -21 24 -4 45 -11 49 -16 3 -5 12 -9 21
-9 8 0 29 -6 46 -13 70 -30 104 -40 147 -44 25 -3 52 -11 60 -18 8 -7 38 -18
65 -24 28 -7 75 -18 105 -25 30 -7 91 -31 135 -54 110 -56 263 -132 304 -151
18 -9 35 -22 38 -28 3 -7 10 -13 17 -13 6 0 26 -13 43 -29 18 -16 49 -37 70
-47 26 -13 37 -25 35 -37 -2 -10 6 -21 20 -26 29 -11 137 -119 149 -148 6 -15
17 -23 33 -23 13 0 46 -18 74 -39 48 -38 60 -52 112 -126 14 -19 35 -38 48
-41 12 -4 22 -14 22 -24 0 -11 4 -22 10 -25 17 -10 62 -114 55 -126 -4 -6 3
-20 15 -31 12 -12 32 -42 44 -67 30 -65 56 -101 71 -101 8 0 27 -24 44 -52 34
-61 135 -149 229 -199 42 -23 67 -44 77 -65 10 -22 24 -33 46 -38 17 -3 39
-16 49 -28 16 -20 16 -25 4 -43 -8 -10 -14 -28 -14 -38 0 -17 5 -18 48 -12
l47 6 23 -48 c12 -26 36 -70 52 -98 17 -27 43 -75 58 -105 15 -31 37 -69 48
-85 11 -17 27 -50 35 -75 7 -25 22 -53 31 -62 10 -10 18 -22 18 -26 0 -5 11
-18 24 -31 26 -24 49 -91 40 -114 -3 -9 2 -17 13 -21 10 -3 24 -20 31 -38 7
-18 17 -40 23 -48 30 -50 42 -79 58 -143 14 -54 23 -73 37 -76 27 -5 35 -21
29 -57 -4 -26 -2 -33 15 -37 11 -3 23 -13 26 -24 4 -10 20 -30 36 -45 15 -15
28 -36 28 -47 0 -12 7 -21 15 -21 24 0 21 86 -4 93 -12 3 -20 18 -25 48 -10
64 -36 140 -72 212 -8 16 -14 37 -14 47 0 9 -7 23 -15 30 -8 7 -15 18 -15 26
0 12 -130 273 -179 359 -62 108 -75 130 -81 135 -3 3 -14 21 -24 40 -31 56
-122 193 -145 217 -12 12 -21 33 -21 47 0 39 -73 111 -241 235 -86 64 -166
123 -178 131 -12 8 -38 38 -57 67 -19 29 -40 58 -47 65 -39 40 -87 114 -87
134 0 12 -4 26 -10 29 -5 3 -10 15 -10 27 0 48 -143 218 -272 325 -39 32 -86
74 -103 93 -18 19 -54 59 -81 89 -27 29 -58 58 -69 63 -29 13 -47 24 -191 121
-72 48 -136 87 -143 87 -6 0 -11 4 -11 9 0 5 -12 14 -27 20 -16 5 -74 35 -131
65 -57 31 -108 56 -114 56 -6 0 -52 20 -104 45 -51 25 -99 45 -106 45 -7 0
-22 7 -32 15 -11 8 -28 15 -37 15 -10 0 -30 6 -46 14 -15 8 -48 22 -73 31 -25
10 -54 21 -65 26 -36 15 -110 41 -135 46 -14 3 -34 12 -45 19 -11 8 -27 14
-36 14 -9 0 -30 7 -45 15 -16 8 -38 15 -49 15 -11 0 -29 7 -39 15 -11 8 -29
15 -40 15 -12 0 -30 7 -40 15 -11 8 -29 15 -40 15 -12 0 -30 7 -40 15 -11 8
-30 15 -42 15 -12 0 -35 6 -51 14 -15 8 -55 22 -88 31 -33 9 -76 22 -95 29
-78 29 -107 38 -140 46 -33 8 -51 13 -130 40 -19 7 -46 14 -60 17 -14 3 -39
11 -57 19 -17 8 -38 14 -47 14 -8 0 -30 6 -48 14 -51 21 -99 37 -138 46 -19 4
-48 13 -65 19 -16 6 -41 13 -56 15 -22 5 -68 33 -233 146 -83 56 -112 91 -183
215 -6 11 -32 61 -57 110 -49 96 -85 161 -117 210 -10 17 -23 39 -28 51 -13
28 -124 144 -138 144 -7 0 -19 -23 -28 -52z m1780 -1225 c2 -7 18 -13 34 -13
16 0 42 -5 58 -11 15 -6 48 -17 73 -24 75 -22 194 -66 204 -76 20 -18 -106 -9
-210 16 -58 14 -121 25 -140 25 -19 0 -34 5 -34 10 0 6 -8 13 -17 17 -25 9
-63 44 -63 59 0 17 88 14 95 -3z m463 -150 c2 -8 -6 -13 -22 -13 -26 0 -40 12
-29 24 11 11 46 2 51 -11z m66 -24 c14 -7 23 -15 21 -20 -7 -10 -58 5 -63 19
-5 15 10 15 42 1z"/>
<path d="M6417 7093 c-4 -3 -7 -14 -7 -22 0 -9 -9 -24 -20 -34 -19 -16 -29
-53 -12 -45 4 2 23 12 43 21 26 11 38 24 42 44 3 15 3 31 0 35 -5 10 -37 10
-46 1z"/>
<path d="M6980 7087 c0 -13 39 -41 47 -34 2 3 -2 14 -9 26 -14 23 -38 28 -38
8z"/>
<path d="M6917 7064 c-13 -13 -7 -24 14 -24 11 0 19 5 17 12 -5 14 -22 21 -31
12z"/>
<path d="M8182 7045 c-20 -23 -29 -45 -17 -45 2 0 15 11 29 25 14 14 32 25 41
25 9 0 13 5 10 10 -11 18 -41 11 -63 -15z"/>
<path d="M5145 7031 c-3 -5 -1 -12 5 -16 12 -7 30 2 30 16 0 12 -27 12 -35 0z"/>
<path d="M6553 7023 c-23 -9 -15 -35 10 -31 12 2 22 9 22 17 0 16 -14 22 -32
14z"/>
<path d="M6858 7009 c-26 -14 -22 -29 7 -29 18 0 25 5 25 20 0 22 -7 24 -32 9z"/>
<path d="M5994 6975 c-4 -9 4 -23 17 -35 27 -22 39 -25 39 -9 0 35 -46 71 -56
44z"/>
<path d="M7104 6975 c-7 -18 3 -35 22 -35 20 0 30 30 13 41 -20 12 -29 11 -35
-6z"/>
<path d="M5302 6956 c-12 -27 -7 -36 20 -36 18 0 23 16 12 44 -9 23 -19 20
-32 -8z"/>
<path d="M6453 6953 c-10 -16 -24 -33 -32 -39 -10 -7 -11 -13 -3 -18 13 -8 72
48 72 69 0 24 -18 18 -37 -12z"/>
<path d="M6800 6940 c-6 -11 -17 -20 -25 -20 -8 0 -19 -9 -25 -19 -13 -25 -13
-31 1 -31 16 0 90 76 82 84 -11 11 -22 6 -33 -14z"/>
<path d="M8093 6945 c-3 -9 -3 -18 0 -21 10 -10 47 7 47 22 0 19 -39 18 -47
-1z"/>
<path d="M5510 6935 c0 -8 5 -15 10 -15 6 0 10 7 10 15 0 8 -4 15 -10 15 -5 0
-10 -7 -10 -15z"/>
<path d="M5784 6939 c-9 -15 15 -36 49 -44 31 -8 38 10 8 20 -11 3 -22 12 -25
20 -6 18 -22 19 -32 4z"/>
<path d="M4817 6905 c-10 -7 -38 -42 -62 -77 -113 -163 -175 -257 -175 -265 0
-10 -57 -120 -91 -178 -30 -50 -119 -236 -119 -248 0 -20 -78 -131 -108 -153
-21 -16 -39 -31 -42 -34 -15 -18 -99 -80 -107 -80 -6 0 -32 -9 -59 -21 -27
-11 -60 -25 -74 -31 -14 -5 -38 -16 -53 -24 -16 -8 -35 -14 -44 -14 -8 0 -27
-6 -41 -14 -26 -13 -70 -31 -157 -63 -22 -8 -53 -21 -68 -29 -16 -8 -39 -14
-51 -14 -12 0 -31 -7 -42 -15 -10 -8 -28 -15 -40 -15 -11 0 -29 -7 -40 -15
-10 -8 -28 -15 -40 -15 -11 0 -29 -7 -40 -15 -10 -8 -28 -15 -39 -15 -11 0
-33 -7 -49 -15 -15 -8 -36 -15 -45 -15 -10 0 -26 -7 -37 -15 -10 -8 -26 -15
-34 -15 -9 0 -69 -27 -135 -60 -66 -33 -127 -60 -136 -60 -9 0 -22 -7 -29 -15
-7 -8 -17 -15 -22 -15 -6 0 -44 -20 -84 -45 -41 -24 -85 -47 -99 -51 -14 -3
-28 -10 -31 -15 -3 -5 -12 -9 -21 -9 -8 0 -31 -7 -51 -16 -76 -32 -108 -47
-134 -60 -14 -8 -31 -14 -38 -14 -7 0 -26 -6 -43 -13 -18 -8 -59 -22 -92 -32
-78 -25 -166 -69 -235 -120 -59 -43 -161 -114 -188 -130 -23 -14 -98 -71 -178
-136 -38 -30 -107 -81 -154 -113 -91 -61 -156 -125 -196 -192 -33 -56 -74
-176 -74 -217 0 -28 -13 -49 -73 -118 -107 -123 -192 -239 -237 -324 -12 -22
-37 -55 -56 -72 -19 -18 -42 -49 -50 -68 -8 -20 -43 -67 -79 -105 -63 -69
-183 -242 -244 -350 -42 -76 -184 -365 -206 -420 -9 -25 -23 -58 -30 -75 -32
-76 -65 -193 -96 -334 -5 -24 -29 -85 -53 -135 -62 -130 -76 -162 -76 -178 0
-8 -5 -19 -11 -25 -6 -6 -9 -23 -7 -39 3 -27 5 -26 50 36 26 36 53 71 59 79
42 49 79 104 79 119 0 9 7 30 15 46 8 15 15 34 15 41 0 7 6 18 14 24 13 11 28
67 31 119 1 12 10 31 21 43 11 13 20 43 25 85 5 46 14 75 34 103 14 22 38 74
51 117 22 69 39 109 66 154 5 8 20 40 34 70 14 30 34 73 45 96 10 23 19 48 19
56 0 8 8 22 18 31 10 10 29 40 42 67 13 28 30 50 37 50 8 0 23 16 34 35 12 19
25 35 30 35 5 0 9 4 9 10 0 17 49 82 100 132 27 27 52 59 56 72 3 13 43 61 90
108 46 47 88 96 94 109 6 13 18 36 28 50 67 100 93 142 120 201 19 41 39 69
52 73 11 3 20 11 20 17 0 5 9 21 20 35 11 14 20 41 20 59 0 18 8 48 18 66 10
18 22 45 26 61 3 15 11 27 16 27 16 0 110 97 110 114 0 9 4 16 10 16 5 0 23
13 40 30 17 16 40 30 50 30 11 0 20 5 20 11 0 5 15 16 32 24 19 8 47 34 66 63
32 48 74 87 135 125 16 10 37 27 48 38 11 11 44 31 74 45 30 13 55 28 55 32 0
5 17 16 39 25 21 10 49 26 62 38 16 14 31 18 47 14 18 -4 23 -2 19 8 -3 9 8
17 37 24 22 6 75 21 116 33 41 12 89 25 105 29 31 9 222 100 314 151 30 17 59
30 65 30 6 0 24 7 40 15 21 11 69 17 160 19 136 4 162 10 291 63 39 17 104 38
145 47 80 19 106 29 185 69 28 14 70 35 95 47 25 12 58 28 73 36 16 8 34 14
40 14 22 0 86 35 87 48 0 17 -50 15 -74 -3 -11 -8 -30 -15 -43 -15 -13 0 -26
-7 -29 -15 -4 -8 -12 -15 -20 -15 -7 0 -56 -23 -108 -50 -59 -32 -121 -56
-165 -65 -39 -9 -81 -19 -93 -24 -13 -5 -43 -17 -68 -26 -25 -10 -58 -23 -75
-30 -93 -39 -185 -52 -274 -38 -50 7 -52 9 -30 19 13 7 58 22 99 34 41 11 86
27 100 34 14 7 63 26 110 41 47 16 92 34 101 42 8 7 23 13 31 13 9 0 21 6 27
14 6 8 24 16 39 19 33 6 245 88 300 116 23 12 46 21 51 21 6 0 48 18 93 39 85
41 111 44 78 11 -19 -19 -27 -50 -14 -50 3 0 15 11 26 25 11 14 26 25 33 25 7
0 26 10 42 23 47 37 89 57 122 57 25 0 31 4 29 18 -2 11 3 16 14 14 12 -2 15
3 11 17 -4 16 2 21 31 26 20 4 36 11 36 16 0 5 14 21 30 36 17 14 30 31 30 38
0 25 26 65 43 65 11 0 17 8 17 24 0 13 6 29 14 35 7 6 16 30 20 53 4 23 23 71
43 107 20 36 52 97 71 135 30 61 93 163 136 221 14 19 15 19 32 3 22 -22 31
-133 23 -273 -1 -22 -2 -51 -1 -65 1 -14 2 -32 2 -40 -4 -82 22 -302 38 -323
5 -7 12 -30 15 -52 10 -62 32 -134 45 -147 7 -7 12 -23 12 -35 0 -13 6 -34 14
-46 7 -12 19 -48 25 -80 7 -32 19 -61 26 -63 7 -3 16 -23 20 -44 4 -21 13 -46
20 -57 8 -10 15 -28 15 -39 0 -12 6 -27 14 -33 7 -6 16 -27 19 -45 3 -19 17
-52 32 -75 17 -24 27 -54 27 -76 0 -19 3 -35 7 -35 13 0 101 -92 101 -105 0
-11 6 -11 29 -2 27 10 33 8 55 -16 14 -15 29 -27 33 -27 4 0 23 -14 41 -31 17
-16 32 -25 32 -19 0 10 -38 53 -181 203 -45 46 -62 74 -94 152 -8 19 -21 50
-29 68 -7 17 -28 68 -46 112 -18 44 -39 94 -46 112 -8 17 -14 37 -14 45 0 7
-7 22 -15 32 -8 11 -15 28 -15 39 0 11 -7 42 -16 71 -40 127 -39 124 -64 271
-6 33 -10 139 -9 235 2 288 -2 401 -17 475 -8 39 -14 98 -14 132 0 68 -6 78
-33 58z"/>
<path d="M6230 6895 c-11 -30 -7 -55 9 -55 14 0 25 60 12 73 -7 7 -13 2 -21
-18z"/>
<path d="M6595 6911 c-6 -11 9 -23 19 -14 9 9 7 23 -3 23 -6 0 -12 -4 -16 -9z"/>
<path d="M6085 6897 c-4 -10 -5 -21 -1 -24 10 -10 18 4 13 24 -4 17 -4 17 -12
0z"/>
<path d="M6862 6871 c-32 -31 -46 -81 -24 -88 6 -3 12 3 12 12 0 10 16 33 36
51 19 19 32 38 29 44 -10 16 -20 12 -53 -19z"/>
<path d="M5906 6864 c-4 -11 -14 -15 -31 -12 -30 6 -31 -3 -8 -43 12 -20 24
-29 38 -27 16 2 21 12 23 51 3 46 -10 63 -22 31z"/>
<path d="M5666 6844 c-10 -27 -7 -34 19 -34 27 0 33 18 13 38 -16 16 -25 15
-32 -4z"/>
<path d="M6170 6845 c-7 -8 -21 -15 -31 -15 -14 0 -19 -7 -19 -25 0 -18 5 -25
20 -25 26 0 70 39 70 62 0 22 -23 24 -40 3z"/>
<path d="M6326 6842 c-4 -7 -19 -17 -33 -23 -33 -12 -27 -43 9 -47 22 -3 29 2
34 22 8 33 2 66 -10 48z"/>
<path d="M6450 6840 c0 -5 6 -10 14 -10 8 0 18 5 21 10 3 6 -3 10 -14 10 -12
0 -21 -4 -21 -10z"/>
<path d="M6939 6795 c-12 -20 -29 -35 -40 -35 -22 0 -24 -17 -5 -42 15 -21 34
-24 33 -5 -1 39 6 55 28 65 15 7 25 20 25 32 0 31 -18 24 -41 -15z"/>
<path d="M6762 6797 c-11 -13 7 -47 25 -47 12 0 25 39 17 52 -8 12 -30 10 -42
-5z"/>
<path d="M7100 6770 c0 -24 15 -27 24 -4 9 22 8 24 -9 24 -8 0 -15 -9 -15 -20z"/>
<path d="M5600 6754 c0 -9 5 -14 12 -12 18 6 21 28 4 28 -9 0 -16 -7 -16 -16z"/>
<path d="M5710 6763 c0 -4 8 -17 16 -28 15 -20 16 -20 12 4 -3 22 -28 44 -28
24z"/>
<path d="M5500 6736 c0 -13 6 -26 14 -29 21 -8 113 -18 96 -10 -8 3 -28 19
-43 35 -36 35 -67 37 -67 4z"/>
<path d="M6195 6740 c-24 -27 -16 -33 14 -11 13 10 19 21 14 24 -6 4 -18 -2
-28 -13z"/>
<path d="M5962 6729 c2 -7 10 -15 17 -17 8 -3 12 1 9 9 -2 7 -10 15 -17 17 -8
3 -12 -1 -9 -9z"/>
<path d="M6030 6730 c0 -22 54 -61 79 -58 36 4 37 49 1 59 -39 11 -80 10 -80
-1z"/>
<path d="M6685 6730 c-3 -5 3 -10 15 -10 12 0 18 5 15 10 -3 6 -10 10 -15 10
-5 0 -12 -4 -15 -10z"/>
<path d="M7197 6716 c-11 -28 -9 -34 27 -73 18 -21 38 -48 45 -60 6 -13 18
-23 26 -23 20 0 19 19 0 26 -8 4 -15 19 -15 34 0 20 -6 31 -20 35 -11 4 -28
22 -39 42 -14 29 -19 32 -24 19z"/>
<path d="M6488 6713 c-10 -2 -18 -11 -18 -19 0 -22 44 -14 48 9 4 17 1 18 -30
10z"/>
<path d="M5760 6700 c-8 -5 -25 -7 -37 -3 -27 6 -28 4 -8 -33 20 -39 19 -71
-2 -83 -10 -6 -13 -10 -8 -11 19 0 33 15 40 41 3 14 17 37 31 52 36 39 26 64
-16 37z"/>
<path d="M6777 6667 c-40 -35 -45 -47 -22 -47 8 0 15 7 15 15 0 8 8 15 18 15
11 0 26 8 35 18 40 44 3 43 -46 -1z"/>
<path d="M7101 6643 c-25 -26 -30 -38 -22 -46 9 -9 13 -6 17 10 3 12 17 24 30
27 15 4 24 14 24 26 0 28 -10 24 -49 -17z"/>
<path d="M6210 6630 c0 -21 5 -30 16 -30 11 0 14 5 10 16 -3 9 -6 22 -6 30 0
8 -4 14 -10 14 -5 0 -10 -13 -10 -30z"/>
<path d="M6382 6598 c3 -30 6 -33 33 -31 28 2 55 25 55 46 0 5 -11 7 -25 5
-14 -3 -28 -1 -31 3 -3 5 -12 9 -20 9 -11 0 -14 -9 -12 -32z"/>
<path d="M6615 6610 c-3 -5 0 -13 8 -16 23 -8 82 0 82 11 0 14 -82 19 -90 5z"/>
<path d="M5625 6600 c3 -5 12 -10 20 -10 8 0 17 5 20 10 4 6 -5 10 -20 10 -15
0 -24 -4 -20 -10z"/>
<path d="M5911 6570 c0 -33 1 -34 10 -11 6 16 6 28 -1 35 -7 7 -10 -1 -9 -24z"/>
<path d="M6926 6551 c-4 -6 -3 -19 3 -28 9 -17 10 -17 17 0 8 21 -10 45 -20
28z"/>
<path d="M6653 6520 c-31 -13 -48 -47 -32 -66 15 -18 29 -2 29 34 0 15 6 22
19 22 11 0 23 5 26 10 7 12 -12 12 -42 0z"/>
<path d="M5768 6498 c-2 -15 -11 -24 -25 -26 -13 -2 -23 -10 -23 -18 0 -18 5
-18 51 4 40 18 51 45 23 56 -22 9 -22 8 -26 -16z"/>
<path d="M6320 6495 c-10 -12 -10 -15 3 -15 19 0 31 16 18 24 -5 3 -14 -1 -21
-9z"/>
<path d="M7020 6480 c-19 -27 -20 -50 -1 -50 16 0 51 42 51 60 0 29 -26 24
-50 -10z"/>
<path d="M6190 6484 c0 -9 5 -14 12 -12 18 6 21 28 4 28 -9 0 -16 -7 -16 -16z"/>
<path d="M7135 6477 c-4 -10 -5 -21 -1 -24 10 -10 18 4 13 24 -4 17 -4 17 -12
0z"/>
<path d="M5955 6447 c8 -28 -34 -106 -53 -99 -15 5 -52 -26 -52 -43 0 -18 28
-27 50 -15 10 6 31 10 45 10 21 0 26 4 21 16 -3 9 1 25 8 36 9 13 13 32 9 49
-4 21 0 31 16 41 30 19 26 28 -14 28 -32 0 -35 -2 -30 -23z"/>
<path d="M6260 6445 c-11 -13 -11 -19 4 -33 15 -15 18 -15 26 -2 22 33 -6 64
-30 35z"/>
<path d="M6686 6428 c-11 -41 -6 -86 10 -102 8 -9 19 -14 24 -11 9 6 12 90 4
118 -8 24 -31 21 -38 -5z"/>
<path d="M6966 6389 c-14 -17 -26 -37 -26 -45 0 -13 -34 -20 -82 -16 -16 1
-32 -23 -23 -38 5 -8 79 -5 95 5 5 3 10 13 10 21 0 8 6 14 14 14 13 0 56 61
56 81 0 18 -18 9 -44 -22z"/>
<path d="M6324 6366 c-4 -9 -4 -20 0 -23 3 -4 12 -1 18 5 9 9 9 15 0 24 -9 9
-13 7 -18 -6z"/>
<path d="M6170 6330 c0 -5 7 -10 15 -10 8 0 15 5 15 10 0 6 -7 10 -15 10 -8 0
-15 -4 -15 -10z"/>
<path d="M8812 6268 c5 -32 28 -35 28 -4 0 17 -5 26 -16 26 -10 0 -14 -7 -12
-22z"/>
<path d="M6484 6255 c-4 -8 -2 -21 4 -28 6 -6 13 -29 17 -49 7 -39 25 -52 25
-19 0 33 36 68 71 69 17 0 37 6 42 11 16 16 -58 14 -83 -1 -17 -11 -22 -9 -35
10 -19 26 -33 28 -41 7z"/>
<path d="M6763 6263 c-18 -7 -16 -30 3 -37 19 -7 44 10 44 30 0 14 -23 17 -47
7z"/>
<path d="M6139 6239 c-9 -17 -18 -20 -47 -16 -21 2 -48 1 -62 -3 -24 -7 -24
-7 10 -17 28 -7 36 -15 40 -39 6 -28 6 -29 18 -7 7 12 12 29 12 37 0 11 9 16
28 16 15 0 33 5 40 12 16 16 17 -15 1 -44 -12 -22 -4 -68 11 -68 6 0 10 15 10
34 0 19 5 38 10 41 6 3 10 22 10 41 0 32 -2 34 -35 34 -25 0 -37 -6 -46 -21z"/>
<path d="M7000 6246 c0 -2 7 -9 15 -16 12 -10 15 -10 15 4 0 9 -7 16 -15 16
-8 0 -15 -2 -15 -4z"/>
<path d="M6353 6205 c-12 -21 7 -85 25 -85 9 0 12 13 10 47 -3 48 -20 66 -35
38z"/>
<path d="M6603 6182 l-20 -28 27 -32 c22 -27 29 -30 34 -17 3 9 0 24 -6 35 -9
14 -9 22 0 33 10 11 9 17 -1 25 -10 9 -18 5 -34 -16z"/>
<path d="M7796 5735 c-22 -19 -33 -35 -25 -35 16 0 69 46 69 60 0 14 -1 14
-44 -25z"/>
<path d="M8220 5170 c1 -26 36 -77 46 -67 3 3 -6 25 -20 49 -23 38 -26 40 -26
18z"/>
<path d="M9690 5081 c0 -54 4 -81 13 -84 10 -3 10 -9 0 -26 -7 -11 -13 -52
-13 -90 0 -60 -3 -74 -26 -100 -14 -17 -34 -31 -44 -31 -10 0 -23 -6 -30 -14
-6 -8 -25 -16 -42 -18 -18 -2 -33 -9 -36 -15 -3 -10 11 -11 57 -7 41 5 61 3
61 -4 0 -14 -40 -42 -61 -42 -9 0 -24 -9 -34 -20 -10 -11 -27 -20 -37 -20 -18
0 -36 -26 -25 -36 9 -9 73 15 103 38 14 12 49 33 77 47 l52 26 11 90 c6 51 7
97 2 107 -5 10 -4 27 3 41 8 18 7 44 -6 106 -9 44 -14 90 -10 100 3 11 1 22
-5 26 -6 4 -10 -21 -10 -74z"/>
<path d="M3808 4938 c-6 -122 3 -213 22 -213 10 0 14 7 11 20 -5 28 -11 106
-14 192 -4 100 -14 100 -19 1z"/>
<path d="M5180 4950 c-8 -5 -23 -11 -33 -14 -10 -3 -15 -10 -12 -16 9 -15 45
-12 45 4 0 8 6 16 13 19 6 2 10 7 7 9 -3 3 -12 2 -20 -2z"/>
<path d="M8460 4881 c0 -12 70 -115 81 -119 5 -2 9 -10 9 -18 0 -8 5 -14 10
-14 13 0 13 57 0 65 -5 3 -7 18 -4 33 5 24 1 30 -31 45 -39 19 -65 22 -65 8z"/>
<path d="M8152 4788 c4 -28 45 -38 55 -13 7 19 -12 35 -40 35 -13 0 -18 -6
-15 -22z"/>
<path d="M3827 4703 c-7 -11 7 -120 16 -130 4 -4 12 -2 17 3 7 7 7 28 -1 65
-13 57 -23 77 -32 62z"/>
<path d="M9440 4685 c-8 -9 -8 -15 0 -20 12 -8 50 3 50 15 0 14 -39 18 -50 5z"/>
<path d="M8375 4621 c-3 -5 -20 -13 -37 -17 -18 -3 -39 -10 -48 -14 -8 -4 -26
-13 -40 -19 -14 -6 -32 -15 -40 -19 -8 -5 -31 -16 -50 -24 -19 -8 -52 -23 -73
-32 -41 -17 -45 -39 -9 -44 15 -2 22 2 22 13 0 12 6 15 20 10 13 -4 37 6 72
29 29 20 58 36 65 36 7 0 30 9 50 20 21 11 46 20 55 20 25 0 98 31 98 41 0 12
-77 12 -85 0z"/>
<path d="M9357 4574 c-13 -14 3 -20 42 -16 23 2 41 8 41 13 0 10 -73 12 -83 3z"/>
<path d="M3840 4524 c0 -14 4 -23 10 -19 6 3 10 15 10 26 0 10 -4 19 -10 19
-5 0 -10 -12 -10 -26z"/>
<path d="M9265 4540 c-3 -5 3 -10 14 -10 12 0 21 5 21 10 0 6 -6 10 -14 10 -8
0 -18 -4 -21 -10z"/>
<path d="M4496 4482 c-3 -6 -1 -14 5 -17 15 -10 25 3 12 16 -7 7 -13 7 -17 1z"/>
<path d="M9130 4457 l-25 -10 23 -5 c26 -4 36 1 31 16 -3 6 -14 5 -29 -1z"/>
<path d="M11907 4457 c-8 -21 5 -147 14 -141 5 3 6 16 3 29 -3 14 -1 38 4 54
15 44 -5 99 -21 58z"/>
<path d="M8000 4440 c-11 -11 -20 -25 -20 -32 0 -6 -7 -19 -16 -29 -9 -10 -14
-26 -11 -36 4 -16 5 -16 13 3 5 12 24 34 42 49 17 15 32 33 32 40 0 24 -19 26
-40 5z"/>
<path d="M3870 4425 c0 -27 1 -28 24 -19 21 8 20 17 -4 32 -18 11 -20 10 -20
-13z"/>
<path d="M4275 4421 c-3 -11 -16 -21 -28 -24 -20 -3 -21 -4 -3 -12 10 -4 21
-4 25 2 3 5 14 13 24 16 10 4 17 12 15 19 -7 20 -26 20 -33 -1z"/>
<path d="M4100 4421 c0 -9 24 -21 41 -21 5 0 9 7 9 15 0 9 -9 15 -25 15 -14 0
-25 -4 -25 -9z"/>
<path d="M9040 4420 c0 -5 9 -10 21 -10 11 0 17 5 14 10 -3 6 -13 10 -21 10
-8 0 -14 -4 -14 -10z"/>
<path d="M4560 4403 c0 -6 10 -29 22 -50 19 -31 23 -34 26 -19 3 11 -2 24 -10
30 -8 6 -20 20 -26 31 -6 11 -12 15 -12 8z"/>
<path d="M6222 4398 c5 -15 28 -23 28 -10 0 5 -7 13 -16 16 -10 4 -14 1 -12
-6z"/>
<path d="M5130 4340 c0 -11 7 -20 15 -20 13 0 14 4 5 20 -6 11 -13 20 -15 20
-3 0 -5 -9 -5 -20z"/>
<path d="M11910 4255 c0 -8 5 -15 10 -15 6 0 10 7 10 15 0 8 -4 15 -10 15 -5
0 -10 -7 -10 -15z"/>
<path d="M7793 4190 c-13 -10 -23 -28 -23 -40 0 -20 2 -19 31 10 35 35 28 60
-8 30z"/>
<path d="M12117 4184 c-7 -28 -8 -194 -1 -206 14 -22 24 21 24 107 0 88 -12
140 -23 99z"/>
<path d="M11946 3976 c3 -98 10 -190 15 -204 6 -15 6 -29 1 -34 -11 -11 -4
-48 8 -48 18 0 23 231 5 260 -4 6 -9 44 -10 83 -2 40 -8 83 -14 97 -9 19 -10
-18 -5 -154z"/>
<path d="M5244 4107 c-8 -22 3 -37 27 -37 24 0 24 12 -1 35 -17 16 -20 16 -26
2z"/>
<path d="M7707 4078 c-7 -25 -3 -33 12 -23 13 8 15 45 2 45 -5 0 -11 -10 -14
-22z"/>
<path d="M7632 3998 c-7 -7 -12 -18 -12 -25 0 -8 7 -6 20 7 11 11 20 22 20 25
0 9 -16 5 -28 -7z"/>
<path d="M5360 3970 c0 -6 7 -13 15 -16 8 -3 17 -14 20 -25 7 -21 25 -26 25
-6 0 12 -42 57 -54 57 -3 0 -6 -5 -6 -10z"/>
<path d="M7585 3939 c-4 -6 -5 -13 -2 -16 7 -7 27 6 27 18 0 12 -17 12 -25 -2z"/>
<path d="M12116 3928 c-3 -13 -7 -69 -10 -126 -7 -136 -25 -313 -35 -332 -10
-18 -2 -90 10 -90 15 0 21 21 25 91 2 38 9 79 15 91 8 15 8 32 -2 65 -8 32 -9
47 -1 52 15 9 28 271 14 271 -7 0 -14 -10 -16 -22z"/>
<path d="M6100 3814 c-14 -35 -13 -36 10 -29 16 5 20 2 20 -14 0 -12 -4 -21
-10 -21 -5 0 -10 -7 -10 -15 0 -18 9 -19 32 -1 18 13 20 69 5 94 -13 20 -37
14 -47 -14z"/>
<path d="M6227 3833 c-13 -12 -7 -64 8 -69 31 -12 27 -41 -12 -78 -61 -57 -85
-76 -99 -76 -25 0 -68 21 -81 40 -14 20 -43 28 -43 12 0 -32 126 -122 170
-122 21 0 28 26 9 32 -6 2 4 22 22 45 54 66 84 105 87 115 2 5 -3 20 -12 33
-9 13 -16 31 -16 38 0 18 -24 39 -33 30z"/>
<path d="M5965 3820 c-3 -5 -1 -18 4 -27 9 -16 10 -14 11 10 0 28 -5 34 -15
17z"/>
<path d="M7410 3725 c0 -8 5 -15 10 -15 6 0 10 7 10 15 0 8 -4 15 -10 15 -5 0
-10 -7 -10 -15z"/>
<path d="M7100 3700 c-7 -13 -25 -21 -60 -26 -27 -4 -56 -14 -65 -24 -14 -16
-11 -18 47 -24 52 -5 65 -3 80 12 26 25 41 82 23 82 -8 0 -19 -9 -25 -20z"/>
<path d="M1580 3656 c0 -14 5 -28 10 -31 6 -4 10 7 10 24 0 17 -4 31 -10 31
-5 0 -10 -11 -10 -24z"/>
<path d="M12657 3654 c-4 -4 -7 -14 -7 -23 0 -11 3 -12 11 -4 6 6 10 16 7 23
-2 6 -7 8 -11 4z"/>
<path d="M11937 3644 c-8 -8 1 -24 14 -24 5 0 9 7 9 15 0 15 -12 20 -23 9z"/>
<path d="M6570 3600 c0 -5 7 -10 15 -10 8 0 15 5 15 10 0 6 -7 10 -15 10 -8 0
-15 -4 -15 -10z"/>
<path d="M12627 3590 c-3 -11 -1 -23 4 -26 5 -3 9 6 9 20 0 31 -6 34 -13 6z"/>
<path d="M1582 3557 c-10 -36 -5 -94 9 -103 5 -3 9 27 9 65 0 39 -2 71 -5 71
-2 0 -8 -15 -13 -33z"/>
<path d="M11938 3486 c-7 -39 -4 -55 8 -44 3 3 4 23 2 44 l-3 39 -7 -39z"/>
<path d="M12566 3455 c-4 -16 -12 -40 -18 -52 -16 -33 -4 -38 16 -8 10 15 16
39 14 58 l-4 32 -8 -30z"/>
<path d="M6360 3439 c0 -8 9 -20 20 -27 11 -7 20 -8 20 -4 0 5 -9 17 -20 27
-15 14 -20 15 -20 4z"/>
<path d="M11917 3403 c-11 -10 -8 -83 3 -83 6 0 10 13 10 29 0 17 5 33 10 36
6 3 10 10 10 16 0 10 -23 12 -33 2z"/>
<path d="M6890 3365 c0 -9 5 -15 11 -13 6 2 11 8 11 13 0 5 -5 11 -11 13 -6 2
-11 -4 -11 -13z"/>
<path d="M12055 3323 c-3 -21 -9 -49 -12 -63 -3 -14 -7 -55 -7 -91 -1 -47 -6
-73 -17 -85 -20 -23 -32 -135 -20 -184 5 -21 10 -29 13 -20 22 65 29 98 41
190 8 58 15 116 15 130 1 14 5 52 11 84 5 33 8 63 5 68 -11 18 -23 6 -29 -29z"/>
<path d="M12506 3334 c-10 -26 5 -39 21 -19 7 11 13 22 13 27 0 15 -28 8 -34
-8z"/>
<path d="M1113 3280 c0 -25 2 -35 4 -22 2 12 2 32 0 45 -2 12 -4 2 -4 -23z"/>
<path d="M1555 3254 c-5 -40 -3 -74 3 -87 8 -17 11 -3 11 66 1 48 -1 87 -3 87
-3 0 -8 -30 -11 -66z"/>
<path d="M920 3206 c0 -8 5 -18 10 -21 6 -3 10 1 10 9 0 8 -4 18 -10 21 -5 3
-10 -1 -10 -9z"/>
<path d="M990 3101 c0 -6 9 -25 20 -43 18 -29 20 -30 20 -10 0 12 -4 22 -10
22 -5 0 -10 6 -10 14 0 8 -4 18 -10 21 -5 3 -10 2 -10 -4z"/>
<path d="M6686 3082 c-8 -13 4 -72 15 -72 17 0 40 33 37 54 -3 22 -41 35 -52
18z"/>
<path d="M12312 2969 c2 -6 8 -10 13 -10 5 0 11 4 13 10 2 6 -4 11 -13 11 -9
0 -15 -5 -13 -11z"/>
<path d="M12283 2900 c-24 -29 -29 -50 -14 -50 9 0 34 34 44 63 9 25 -5 20
-30 -13z"/>
<path d="M1100 2886 c0 -8 4 -17 9 -20 10 -7 23 19 14 28 -11 11 -23 6 -23 -8z"/>
<path d="M12445 2863 c-4 -21 -9 -45 -12 -53 -4 -8 -7 -26 -8 -40 -1 -14 -5
-37 -9 -52 -7 -22 -5 -28 8 -28 11 0 16 9 16 33 0 18 5 38 11 44 15 15 24 119
11 127 -7 4 -13 -8 -17 -31z"/>
<path d="M12228 2823 c-10 -11 -18 -28 -18 -39 0 -17 1 -17 21 3 12 11 19 28
17 38 -3 16 -4 16 -20 -2z"/>
<path d="M1100 2618 c-1 -57 -1 -122 -2 -146 0 -43 6 -61 19 -48 20 20 30 227
13 272 -20 51 -30 24 -30 -78z"/>
<path d="M12120 2645 c0 -8 5 -15 10 -15 6 0 10 7 10 15 0 8 -4 15 -10 15 -5
0 -10 -7 -10 -15z"/>
<path d="M12395 2649 c-10 -15 3 -25 16 -12 7 7 7 13 1 17 -6 3 -14 1 -17 -5z"/>
<path d="M1452 2605 c-11 -25 -7 -55 8 -55 18 0 28 64 11 74 -4 3 -13 -6 -19
-19z"/>
<path d="M8605 2605 c-16 -13 -46 -29 -65 -36 -19 -6 -57 -21 -85 -34 -27 -13
-57 -25 -67 -28 -16 -5 -35 -74 -29 -107 1 -8 21 -32 43 -53 l41 -39 -12 -54
c-15 -64 -9 -77 66 -151 37 -38 48 -44 73 -39 17 3 44 9 61 12 25 5 31 2 36
-14 4 -18 7 -19 35 -5 19 10 33 12 37 6 12 -20 53 -25 101 -13 57 14 101 0 79
-26 -8 -10 -8 -14 0 -14 6 0 11 4 11 8 0 15 45 30 61 22 8 -5 21 -5 29 0 8 5
24 3 39 -5 58 -29 89 -29 129 1 20 16 39 32 41 37 2 5 11 17 20 26 36 36 54
112 30 127 -6 3 -9 19 -5 35 5 24 2 29 -14 29 -23 0 -40 35 -40 80 0 42 10 60
32 60 25 0 52 -63 45 -107 -3 -18 -2 -33 3 -33 16 0 30 37 30 78 0 33 -6 45
-31 66 -17 14 -43 26 -57 26 -20 0 -30 7 -40 30 -11 24 -20 30 -46 30 -23 0
-41 9 -61 30 -32 33 -83 41 -104 16 -21 -25 -124 -71 -129 -57 -3 8 -8 9 -16
2 -9 -7 -27 2 -63 34 -33 29 -53 41 -60 34 -7 -7 -21 0 -43 21 -17 16 -35 30
-39 30 -3 0 -19 -11 -36 -25z m65 -140 c0 -120 -4 -145 -25 -145 -21 0 -25 25
-25 145 0 82 3 115 13 118 32 11 37 -5 37 -118z m392 73 c14 -10 17 -35 20
-125 1 -62 -1 -115 -5 -119 -4 -4 -17 -2 -30 3 -22 11 -24 18 -30 124 -3 62
-4 116 -1 121 7 12 28 10 46 -4z m-494 -100 c3 -72 1 -78 -17 -78 -29 0 -41
30 -41 100 0 61 0 61 28 58 27 -3 27 -4 30 -80z m209 71 c12 -12 6 -138 -7
-152 -4 -5 -17 -6 -29 -2 -19 6 -21 14 -21 79 0 40 3 76 7 79 10 11 38 8 50
-4z m-307 -52 c13 -24 13 -30 0 -54 -9 -16 -24 -28 -35 -28 -16 0 -21 8 -23
44 -2 24 -1 50 2 58 9 22 38 11 56 -20z m501 12 c6 -12 12 -44 13 -71 1 -38
-3 -53 -18 -63 -10 -8 -22 -12 -26 -10 -10 6 -23 142 -15 155 10 17 34 11 46
-11z m207 -54 c4 -72 -3 -105 -23 -105 -15 0 -20 14 -30 91 -7 58 1 81 29 77
18 -3 21 -11 24 -63z m-304 19 c3 -9 6 -28 6 -44 0 -61 -27 -81 -48 -35 -21
47 -12 95 18 95 10 0 21 -7 24 -16z m-266 -140 c15 -10 22 -24 20 -37 -2 -18
-10 -22 -38 -22 -28 0 -36 -4 -38 -21 -3 -18 4 -23 32 -28 50 -9 64 -66 17
-66 -54 0 -121 53 -121 96 0 23 39 74 64 84 31 13 39 12 64 -6z m89 -6 c6 -7
13 -43 16 -79 6 -69 -1 -89 -35 -89 -16 0 -18 10 -18 83 0 46 3 87 7 90 10 10
19 8 30 -5z m155 -19 l21 -11 -23 -18 -23 -17 20 -29 c19 -27 20 -32 7 -57
-18 -33 -79 -42 -111 -15 -18 15 2 38 33 38 13 0 24 5 24 10 0 6 -7 10 -15 10
-17 0 -35 30 -35 59 0 36 59 53 102 30z m157 -20 c29 -27 13 -49 -35 -49 -27
0 -34 -4 -34 -19 0 -21 19 -31 56 -31 20 0 24 -5 24 -30 0 -27 -3 -30 -32 -30
-20 0 -45 10 -63 24 -25 20 -30 31 -30 69 0 36 5 49 25 66 32 26 60 26 89 0z
m170 -25 c24 -20 31 -34 31 -61 0 -78 -84 -111 -141 -54 -36 36 -37 70 -3 110
32 39 71 41 113 5z"/>
<path d="M9101 2176 c-10 -12 -8 -17 8 -25 23 -13 51 -5 51 14 0 12 -21 25
-40 25 -4 0 -13 -6 -19 -14z"/>
<path d="M12085 2587 c-4 -10 -5 -21 -1 -24 10 -10 18 4 13 24 -4 17 -4 17
-12 0z"/>
<path d="M6660 2535 c0 -8 5 -15 10 -15 6 0 10 7 10 15 0 8 -4 15 -10 15 -5 0
-10 -7 -10 -15z"/>
<path d="M1433 2520 c-6 -14 -7 -29 -2 -34 13 -15 21 -1 17 31 l-4 28 -11 -25z"/>
<path d="M1400 2448 c-5 -39 -3 -195 1 -192 8 5 25 80 34 147 6 43 4 47 -14
47 -12 0 -21 -1 -21 -2z"/>
<path d="M6607 2443 c-8 -7 11 -33 24 -33 5 0 9 9 9 20 0 19 -20 27 -33 13z"/>
<path d="M12330 2435 c0 -8 5 -15 10 -15 6 0 10 7 10 15 0 8 -4 15 -10 15 -5
0 -10 -7 -10 -15z"/>
<path d="M9490 2418 l-34 -23 1 -142 c1 -129 3 -144 22 -169 11 -15 21 -32 21
-39 0 -17 33 -45 54 -45 9 0 19 7 22 15 8 20 26 19 57 -5 29 -23 68 -26 97 -8
16 10 24 9 49 -10 32 -24 56 -28 66 -12 10 16 44 11 73 -10 15 -11 43 -23 62
-26 29 -5 40 -1 63 20 31 29 74 34 83 11 4 -8 15 -15 25 -15 11 0 22 7 25 15
9 23 43 18 83 -14 32 -25 46 -29 113 -32 42 -2 80 -1 83 3 4 3 61 4 128 2 132
-6 197 6 197 36 0 9 5 21 11 27 9 9 7 40 -5 121 -10 61 -16 116 -15 124 1 7
-1 20 -4 28 -3 8 -7 24 -9 35 -5 30 -38 32 -38 2 0 -29 -23 -52 -45 -43 -9 3
-15 18 -15 41 0 31 3 35 25 35 14 0 25 5 25 10 0 18 -45 10 -75 -14 -25 -20
-28 -26 -16 -40 11 -13 11 -16 0 -15 -28 1 -50 15 -62 39 -27 55 -104 63 -130
14 -11 -22 -22 -26 -73 -30 -71 -6 -92 -6 -167 2 -45 5 -63 2 -83 -11 -24 -16
-27 -16 -46 2 -16 14 -37 18 -104 18 l-85 0 -11 33 c-7 19 -26 41 -46 53 l-35
20 -37 -26 c-21 -15 -40 -35 -43 -46 -6 -23 -27 -26 -27 -4 0 9 -12 21 -27 27
-16 7 -37 22 -48 35 -31 34 -65 38 -105 11z m89 -70 c13 -29 34 -75 47 -103
12 -27 25 -62 28 -77 4 -19 13 -28 25 -28 15 0 21 10 26 53 4 28 14 64 21 79
8 15 14 37 14 49 0 25 26 59 46 59 8 0 16 -12 20 -27 3 -16 8 -35 11 -43 3 -8
7 -51 9 -95 2 -44 6 -106 9 -137 6 -56 5 -58 -18 -58 -23 0 -24 4 -30 78 -5
79 -13 112 -27 112 -4 0 -11 -17 -14 -37 -4 -21 -11 -49 -16 -63 -4 -14 -11
-37 -14 -52 -5 -23 -12 -28 -35 -28 -25 0 -30 5 -36 32 -4 18 -11 39 -16 48
-16 29 -37 85 -43 113 -4 15 -11 25 -17 22 -6 -4 -7 -43 -3 -107 l7 -100 -24
4 c-23 3 -24 8 -30 93 -4 50 -10 125 -14 168 -6 63 -5 81 6 88 29 18 45 8 68
-43z m943 -90 c-4 -90 3 -96 50 -42 31 35 67 43 76 17 4 -14 -37 -58 -77 -84
l-24 -15 53 -49 c29 -28 60 -58 68 -67 24 -26 29 -14 20 44 -25 145 -19 178
27 178 25 0 25 -1 25 -95 0 -62 5 -108 15 -131 8 -20 12 -40 9 -45 -3 -5 -31
-8 -62 -8 -56 2 -58 3 -115 63 -62 65 -64 64 -42 -25 7 -28 -12 -44 -40 -33
-12 5 -15 26 -15 103 0 63 -7 121 -20 169 -23 87 -19 104 24 100 l31 -3 -3
-77z m-487 -13 c18 -20 37 -44 40 -55 12 -37 25 -20 25 30 0 38 4 50 15 50 8
0 15 -4 15 -10 0 -5 9 -10 19 -10 11 0 23 5 26 10 11 17 53 11 68 -10 13 -19
15 -19 55 -3 51 20 96 10 123 -27 22 -30 41 -124 37 -183 -3 -39 -5 -42 -33
-43 -16 0 -46 -4 -65 -7 -22 -5 -44 -3 -59 5 -30 16 -60 71 -54 101 6 30 55
57 103 57 42 0 54 9 44 33 -10 27 -61 31 -90 8 -34 -27 -50 -27 -57 0 -5 19
-11 21 -38 15 -43 -8 -48 -19 -41 -85 13 -111 10 -126 -20 -129 l-28 -3 0 79
c0 86 -15 111 -42 70 -13 -19 -23 -21 -85 -19 -77 2 -93 -6 -62 -35 27 -24 87
-24 105 0 17 24 44 13 44 -18 0 -30 -46 -66 -84 -66 -32 0 -60 15 -103 54 -31
28 -33 34 -33 99 0 62 3 71 29 98 44 43 100 41 146 -6z"/>
<path d="M9923 2211 c-13 -11 -23 -27 -23 -36 0 -15 6 -17 38 -11 20 3 49 6
65 6 36 0 35 21 -2 43 -37 21 -50 21 -78 -2z"/>
<path d="M10333 2098 c-15 -7 -23 -20 -23 -35 0 -22 3 -24 43 -21 39 3 42 5
45 36 3 28 0 32 -20 31 -13 0 -33 -5 -45 -11z"/>
<path d="M4275 2404 c-27 -7 -54 -10 -60 -6 -8 6 -131 7 -240 2 -16 -1 -61 -1
-100 -1 -38 1 -117 0 -174 -1 l-103 -3 -47 -51 c-90 -98 -92 -187 -5 -256 51
-41 61 -44 114 -27 55 18 262 27 380 18 56 -4 81 -2 97 9 16 10 51 14 116 13
90 0 96 1 136 31 40 29 42 33 36 68 -5 29 -3 39 9 43 13 5 11 15 -15 59 -17
29 -45 67 -62 84 -32 31 -32 31 -82 18z m44 -63 c12 -16 21 -40 21 -53 0 -12
7 -36 15 -52 8 -15 15 -41 15 -57 0 -24 -4 -29 -25 -29 -17 0 -29 8 -37 25
-15 34 -47 32 -76 -5 -24 -30 -52 -31 -52 -1 1 17 70 162 90 186 18 21 26 19
49 -14z m-155 4 c16 -44 -25 -205 -53 -205 -13 0 -32 26 -40 57 -10 38 -25 32
-31 -14 -4 -33 -9 -38 -34 -41 -27 -3 -28 -3 -23 35 3 21 9 63 13 93 3 30 11
61 16 67 15 19 44 -1 57 -38 13 -37 33 -34 42 8 3 16 9 35 13 41 10 17 33 15
40 -3z m-456 -21 c15 -10 22 -24 20 -37 -2 -18 -10 -22 -43 -23 -61 -1 -62 -2
-69 -31 -5 -17 -2 -31 8 -41 13 -13 18 -13 41 2 33 21 58 14 53 -16 -4 -26
-58 -60 -94 -60 -42 0 -74 39 -74 90 0 48 21 83 68 114 33 22 61 23 90 2z
m136 -25 c19 -32 39 -34 45 -3 5 28 21 44 44 44 19 0 19 -4 12 -82 -4 -46 -11
-91 -17 -101 -14 -26 -42 -17 -46 16 -3 25 -22 40 -22 17 0 -16 -22 -12 -36 8
-12 16 -13 15 -14 -6 0 -53 -34 -78 -61 -46 -10 13 -10 19 0 36 7 11 15 46 18
77 8 84 41 101 77 40z"/>
<path d="M6680 2402 c0 -14 11 -21 26 -15 21 8 17 23 -6 23 -11 0 -20 -4 -20
-8z"/>
<path d="M6750 2325 c0 -16 6 -25 15 -25 16 0 19 9 9 34 -9 25 -24 19 -24 -9z"/>
<path d="M6768 2260 c-10 -8 -30 -27 -44 -42 -21 -21 -32 -25 -58 -21 -25 4
-35 1 -39 -11 -7 -19 -3 -20 24 -5 13 6 25 7 32 1 19 -15 75 14 92 49 20 37
16 50 -7 29z"/>
<path d="M1370 2126 c0 -25 5 -48 10 -51 6 -4 10 13 10 44 0 28 -4 51 -10 51
-5 0 -10 -20 -10 -44z"/>
<path d="M1338 1851 c-6 -59 0 -103 13 -95 11 7 11 115 0 132 -5 9 -10 -4 -13
-37z"/>
<path d="M1043 1874 c-3 -8 -1 -20 6 -27 8 -8 11 -4 11 16 0 30 -7 35 -17 11z"/>
<path d="M1320 1715 c0 -8 5 -15 10 -15 6 0 10 7 10 15 0 8 -4 15 -10 15 -5 0
-10 -7 -10 -15z"/>
<path d="M1070 1606 c0 -19 5 -38 10 -41 6 -4 10 10 10 34 0 23 -4 41 -10 41
-5 0 -10 -15 -10 -34z"/>
<path d="M12158 1575 c-8 -13 -5 -105 3 -105 11 0 15 33 9 75 -3 22 -8 35 -12
30z"/>
<path d="M1339 1554 c-1 -10 -3 -37 -5 -59 -5 -67 -5 -82 6 -171 10 -95 19
-119 21 -58 2 35 1 77 -6 241 -1 51 -14 86 -16 47z"/>
<path d="M1436 1541 c-8 -13 -4 -97 5 -112 5 -9 9 12 9 54 0 65 -3 77 -14 58z"/>
<path d="M1440 1355 c-6 -57 -7 -291 -1 -300 8 -14 17 242 10 285 -4 19 -8 26
-9 15z"/>
<path d="M1350 1180 c0 -13 5 -20 13 -17 6 2 12 10 12 17 0 7 -6 15 -12 18 -8
2 -13 -5 -13 -18z"/>
<path d="M6315 1040 c-3 -6 1 -13 10 -16 19 -8 30 0 20 15 -8 14 -22 14 -30 1z"/>
<path d="M1381 993 c-1 -24 4 -43 9 -43 12 0 12 24 0 60 -7 21 -8 19 -9 -17z"/>
<path d="M12150 906 c0 -17 14 -29 23 -20 8 8 -3 34 -14 34 -5 0 -9 -6 -9 -14z"/>
<path d="M1384 884 c-4 -14 -2 -42 4 -62 5 -21 10 -82 10 -137 0 -144 1 -150
11 -140 6 6 13 78 16 160 3 83 7 158 8 169 1 11 -7 22 -20 27 -19 7 -24 4 -29
-17z"/>
<path d="M6290 805 c0 -8 5 -15 10 -15 6 0 10 7 10 15 0 8 -4 15 -10 15 -5 0
-10 -7 -10 -15z"/>
<path d="M1383 480 c0 -25 2 -35 4 -22 2 12 2 32 0 45 -2 12 -4 2 -4 -23z"/>
<path d="M1375 418 c-10 -26 2 -55 17 -40 8 8 8 18 1 34 -10 21 -12 21 -18 6z"/>
</g>
</svg>
