<?xml version="1.0" standalone="no"?>
<!DOCTYPE svg PUBLIC "-//W3C//DTD SVG 20010904//EN"
 "http://www.w3.org/TR/2001/REC-SVG-20010904/DTD/svg10.dtd">
<svg version="1.0" xmlns="http://www.w3.org/2000/svg"
 width="294.000000pt" height="283.000000pt" viewBox="0 0 294.000000 283.000000"
 preserveAspectRatio="xMidYMid meet">
<metadata>
Created by potrace 1.10, written by Peter Selinger 2001-2011
</metadata>
<g transform="translate(0.000000,283.000000) scale(0.050000,-0.050000)"
fill="#000000" stroke="none">
<path d="M0 2830 c0 -2502 3 -2830 30 -2830 26 0 30 110 30 870 0 479 2 870 5
870 3 0 49 -23 103 -50 55 -28 111 -50 125 -50 15 0 27 -11 27 -26 0 -14 53
-81 118 -150 65 -69 129 -152 142 -184 14 -33 32 -60 41 -60 9 0 22 -28 29
-61 11 -50 23 -60 60 -55 113 14 231 -300 135 -361 -17 -11 -40 -82 -58 -182
-2 -17 -20 -41 -38 -54 -18 -13 -27 -34 -20 -45 7 -11 -7 -59 -31 -105 -30
-60 -36 -88 -19 -93 15 -5 10 -18 -15 -36 -48 -33 -71 -128 -31 -128 15 0 27
10 27 21 0 12 11 15 23 7 16 -10 20 -4 11 19 -8 21 -3 33 17 33 16 0 29 19 29
43 0 24 15 60 33 80 18 21 24 37 12 37 -22 0 24 156 56 189 11 10 19 44 19 75
0 31 9 56 20 56 11 0 20 18 20 41 0 33 12 39 66 36 36 -3 76 2 89 10 13 8 32
-3 45 -26 11 -22 32 -38 45 -36 13 3 27 -16 31 -43 7 -45 84 -149 84 -113 0
10 19 0 42 -21 47 -43 111 8 88 70 -6 16 -1 35 12 43 27 17 -46 101 -107 124
-19 8 -35 32 -35 54 0 28 -9 36 -31 28 -20 -8 -43 5 -62 32 -17 24 -44 39 -59
33 -46 -17 -75 61 -33 88 33 22 33 22 -2 11 -26 -8 -40 1 -47 29 -6 22 -18 35
-27 29 -9 -5 -28 22 -42 61 -14 38 -32 70 -41 70 -40 0 -47 5 -60 41 -8 22
-29 39 -45 39 -17 0 -31 8 -31 18 0 9 -18 22 -40 28 -22 6 -40 25 -40 43 0 18
-9 28 -20 21 -11 -7 -30 11 -43 39 -13 28 -31 51 -40 51 -24 0 -128 122 -122
142 3 10 -8 18 -24 18 -15 0 -40 11 -55 25 -14 14 -60 41 -101 60 -41 19 -75
41 -75 50 0 9 -36 13 -80 8 l-80 -7 0 1932 0 1932 1896 0 1897 0 58 -61 58
-61 -89 12 c-48 6 -95 22 -104 35 -10 17 -15 18 -16 2 0 -23 -110 -23 -134 0
-30 30 -72 14 -46 -17 39 -47 13 -55 -73 -22 -72 27 -280 58 -260 38 5 -5 101
-31 214 -58 316 -76 555 -241 669 -461 15 -30 51 -72 78 -95 l51 -42 -20 -203
c-10 -112 -33 -241 -50 -289 -24 -68 -25 -88 -4 -101 18 -12 33 11 52 78 15
52 34 109 42 126 9 16 14 68 11 114 -3 51 6 93 22 106 17 15 20 37 10 66 -9
23 -14 59 -11 78 3 19 -9 43 -27 53 -18 10 -33 40 -34 65 0 26 -11 48 -25 49
-14 2 -35 4 -46 6 -12 1 -16 11 -9 22 7 11 4 20 -7 20 -10 0 -24 14 -31 31 -9
24 2 22 46 -10 32 -22 67 -41 77 -41 10 0 35 -18 55 -40 19 -21 45 -33 56 -26
12 7 14 2 5 -13 -9 -13 -32 -20 -53 -15 -21 6 -44 1 -51 -11 -8 -12 -4 -15 10
-7 13 8 23 4 23 -9 0 -13 14 -18 31 -11 20 7 27 3 19 -13 -7 -14 1 -8 18 13
28 35 35 36 67 8 19 -16 49 -36 65 -43 17 -7 71 -45 120 -83 50 -39 106 -76
125 -83 19 -6 35 -21 35 -32 0 -19 -32 -15 -110 17 -25 10 -15 -7 27 -46 59
-54 63 -63 30 -70 -32 -7 -31 -9 8 -20 29 -8 40 -5 32 8 -7 12 0 17 15 12 55
-19 20 -296 -36 -296 -27 0 -29 -5 -10 -24 33 -33 30 -180 -4 -226 -24 -34
-23 -41 14 -59 65 -33 69 -76 4 -51 -79 30 -90 25 -89 -35 2 -55 35 -155 38
-112 1 25 158 -45 186 -83 8 -11 15 -12 15 -3 0 10 15 6 34 -10 22 -17 29 -18
19 -2 -11 17 0 17 41 -3 65 -33 203 -78 246 -81 17 -2 40 -9 52 -16 12 -7 57
-22 100 -33 43 -11 100 -26 126 -34 31 -9 44 -7 36 6 -15 24 64 64 101 51 20
-6 25 -265 25 -1202 l0 -1193 -121 7 c-126 7 -199 -26 -199 -91 0 -31 -93 -79
-114 -59 -7 8 -3 24 10 37 31 31 31 62 -1 51 -14 -5 -73 13 -131 38 -58 26
-121 47 -140 47 -19 0 -56 14 -81 32 -50 35 -241 91 -264 78 -21 -14 3 -110
28 -113 13 -1 50 -3 83 -5 45 -1 60 -12 60 -40 0 -76 -58 -83 -183 -22 -64 32
-144 61 -177 64 -33 3 -71 8 -85 9 -16 2 -21 20 -14 45 9 32 7 35 -8 13 -17
-25 -24 -25 -55 0 -41 35 -52 33 -72 -15 -12 -29 -14 -26 -11 14 4 40 15 50
58 48 39 -2 51 5 42 27 -13 34 109 17 145 -20 14 -14 6 -17 -25 -10 -62 15
-57 6 27 -43 70 -42 72 -42 82 -4 5 22 21 35 34 30 13 -5 23 8 23 31 0 70
-272 144 -332 90 -38 -34 -178 2 -553 143 -68 26 -152 52 -187 58 l-63 11 41
-57 c60 -85 107 -120 118 -89 10 31 85 33 85 3 0 -58 73 -116 112 -90 40 28
166 20 171 -10 1 -10 3 -26 5 -36 5 -42 34 -46 72 -12 33 30 46 32 65 12 20
-20 17 -31 -14 -53 -21 -16 -30 -29 -19 -29 11 0 30 10 42 22 15 15 25 15 35
0 19 -32 -5 -62 -50 -62 -116 0 0 -63 272 -148 89 -28 188 -61 220 -74 33 -13
77 -28 99 -32 22 -4 103 -27 180 -50 157 -48 170 -51 276 -62 60 -6 85 -21
115 -71 21 -35 51 -63 66 -63 16 0 39 -14 53 -30 68 -82 165 -29 164 90 -1 44
11 88 27 101 33 27 38 91 9 109 -11 7 -20 3 -20 -9 0 -11 -16 -21 -36 -21 -20
0 -47 -11 -60 -24 -18 -18 -35 -17 -73 3 -61 33 -46 66 28 58 39 -4 80 15 143
68 l88 73 5 -579 6 -579 68 0 c37 0 82 5 99 12 29 11 32 279 32 2830 l0 2818
-2940 0 -2940 0 0 -2830z m5680 1779 c0 -556 -7 -1008 -15 -1003 -8 4 -32 14
-52 21 -31 11 -33 19 -13 43 22 27 -85 25 -117 -1 -9 -8 -348 112 -373 132
-11 8 -71 30 -133 48 -137 40 -163 67 -147 154 6 37 25 184 41 327 17 143 31
271 33 284 1 14 44 30 94 38 156 22 153 31 -50 179 -105 76 -235 171 -288 209
-53 39 -172 129 -264 202 -93 72 -240 179 -327 238 -88 58 -168 113 -178 123
-11 9 376 17 885 17 l904 0 0 -1011z m-593 -3547 c-2 -39 5 -57 18 -49 13 8
15 4 6 -11 -18 -29 -104 21 -96 56 8 34 -55 26 -68 -8 -15 -39 -47 -39 -47 1
0 16 16 36 35 43 19 7 42 25 51 39 30 50 104 -1 101 -71z m129 -6 c28 -28 33
-144 5 -127 -11 7 -14 27 -7 45 8 21 5 28 -10 19 -19 -12 -64 41 -64 76 0 20
51 12 76 -13z"/>
<path d="M920 5521 c-11 -43 -31 -131 -42 -195 -21 -111 -46 -166 -77 -166 -8
0 -3 65 11 145 27 150 35 269 18 252 -6 -6 -25 -88 -42 -184 -31 -163 -49
-200 -78 -153 -7 11 -4 20 5 20 10 0 19 11 20 25 1 14 7 84 15 155 16 159 -21
128 -41 -34 -8 -57 -27 -120 -43 -140 -29 -36 -26 79 7 234 8 38 5 43 -10 21
-11 -16 -26 -72 -34 -125 -7 -53 -23 -96 -36 -96 -13 0 -10 -9 7 -20 26 -17
26 -23 1 -38 -22 -15 -7 -30 65 -64 52 -25 94 -60 95 -77 0 -41 99 -115 99
-75 0 15 18 44 40 64 50 46 52 90 2 90 -35 0 -35 5 -11 75 15 41 28 95 28 119
1 24 10 49 21 56 12 8 16 -34 10 -114 -5 -69 -4 -110 2 -91 6 19 20 35 32 35
12 0 14 -15 5 -35 -8 -19 -13 -60 -11 -90 2 -40 -7 -55 -31 -55 -30 0 -29 -5
6 -38 26 -24 59 -34 91 -28 54 10 90 -52 53 -89 -37 -37 4 -187 51 -184 119 9
176 -1 165 -31 -7 -16 -3 -30 8 -30 10 0 19 -10 19 -22 0 -40 -225 26 -495
145 -46 20 -95 37 -107 37 -12 0 -46 12 -75 28 -66 34 -121 57 -273 112 -66
24 -136 52 -155 62 -28 15 -35 10 -35 -23 0 -24 9 -36 21 -28 12 7 27 -6 33
-31 13 -51 105 -94 127 -59 9 15 17 12 26 -9 8 -21 36 -32 82 -32 39 0 71 -7
71 -16 0 -20 200 -105 258 -109 23 -2 42 -14 42 -26 0 -26 129 -69 205 -69 66
0 83 -47 34 -91 -26 -23 -39 -27 -39 -10 0 13 -11 20 -25 16 -14 -5 -74 8
-133 28 -60 20 -125 37 -146 37 -20 0 -42 13 -48 29 -6 15 -35 28 -65 27 -30
-1 -98 17 -151 41 -115 51 -152 54 -152 12 0 -17 -8 -26 -18 -20 -11 6 -32 -2
-49 -19 -17 -16 -43 -30 -59 -30 -16 0 -41 -14 -55 -32 -34 -40 -14 -54 171
-110 77 -24 175 -60 217 -80 69 -33 118 -36 446 -27 l368 9 49 -112 c65 -148
65 -150 -40 -224 -89 -63 -102 -83 -147 -225 -49 -153 -10 -294 118 -429 83
-88 111 -169 53 -155 -58 14 -114 64 -114 101 0 25 -7 24 -40 -6 -54 -49 -50
-99 10 -138 67 -44 63 -72 -10 -72 -41 0 -60 10 -60 31 0 16 -13 35 -28 41
-16 6 -23 27 -17 49 5 22 0 39 -13 39 -42 0 -23 -112 27 -159 29 -27 44 -58
37 -78 -9 -26 -6 -28 13 -10 14 13 38 19 53 13 16 -6 28 -1 28 11 0 12 13 17
28 11 15 -6 34 -1 41 11 28 45 54 18 48 -51 -7 -79 55 -154 86 -104 8 14 22
18 31 9 9 -9 -5 -34 -31 -55 -26 -21 -49 -60 -50 -86 -2 -36 -9 -43 -28 -28
-17 15 -25 14 -25 0 0 -12 -16 -19 -36 -15 -47 9 -137 -39 -107 -57 13 -8 23
-6 23 3 0 19 5 20 117 27 37 2 71 16 77 31 16 41 34 33 71 -30 25 -43 28 -62
10 -80 -17 -17 -16 -23 4 -23 21 0 19 -9 -6 -37 -18 -20 -33 -47 -33 -60 0
-33 -71 -29 -100 7 -14 17 -37 30 -52 30 -16 0 -28 9 -28 19 0 37 -80 66 -110
41 -40 -33 -104 -7 -114 48 -10 48 38 64 69 22 33 -46 12 45 -25 105 -51 84
-51 125 0 125 22 0 40 9 40 19 0 11 -12 15 -27 9 -15 -5 -38 4 -52 21 -41 49
-204 5 -173 -46 58 -94 -82 -353 -207 -383 -56 -13 -101 -32 -101 -41 0 -29
81 -175 110 -199 15 -13 33 -51 41 -86 16 -77 116 -257 180 -327 25 -27 52
-85 59 -128 8 -48 24 -79 42 -79 36 0 35 11 -7 84 -34 59 -34 61 10 91 56 37
58 65 5 65 -22 0 -40 9 -40 20 0 11 18 20 40 20 31 0 40 13 40 59 0 57 -75
100 -173 101 -28 0 -147 115 -147 142 0 25 94 23 143 -4 47 -25 80 -5 36 23
-23 15 -24 22 -3 36 15 9 -24 13 -90 8 -136 -10 -116 16 80 106 159 73 574 79
574 8 0 -29 -12 -32 -91 -17 -73 14 -102 10 -144 -17 -30 -19 -47 -24 -38 -10
10 17 2 25 -26 25 -53 0 -52 -12 12 -104 58 -83 99 -94 158 -41 86 77 136 51
69 -35 -22 -27 -39 -69 -40 -92 0 -24 -19 -66 -41 -95 -23 -29 -32 -53 -20
-53 11 0 21 -18 21 -40 0 -22 -8 -40 -17 -40 -19 0 -31 -99 -31 -265 1 -102
-4 -115 -41 -117 -22 0 -30 -6 -16 -11 14 -6 25 -23 25 -38 0 -38 159 -260
182 -254 10 3 18 -15 18 -39 0 -54 77 -216 103 -216 11 0 14 -8 8 -18 -6 -10
1 -22 16 -28 18 -7 26 8 26 49 0 38 -5 50 -16 33 -11 -18 -16 -13 -17 17 0 24
11 48 25 53 17 6 11 23 -20 58 -25 27 -45 58 -45 71 0 12 -7 25 -15 28 -30 14
-104 172 -109 234 -2 35 -16 63 -30 63 -14 0 -26 9 -26 20 0 11 10 20 23 20
12 0 35 16 51 35 26 32 28 29 21 -30 -6 -45 0 -65 18 -65 23 0 36 35 30 82 0
6 11 11 26 11 14 0 24 -14 22 -31 -3 -18 18 -63 47 -102 74 -100 102 -127 102
-100 0 12 9 17 19 11 11 -7 15 -24 10 -38 -6 -14 13 -46 40 -72 28 -27 51 -60
51 -75 0 -15 11 -25 25 -22 27 6 135 -80 135 -108 0 -18 180 -194 234 -229 20
-12 35 -36 33 -53 -1 -18 20 -37 50 -44 66 -16 82 -42 83 -128 0 -51 17 -83
71 -134 40 -38 65 -78 58 -90 -8 -12 -4 -29 9 -37 31 -19 65 -141 40 -141 -11
0 -25 14 -31 32 -7 17 -35 39 -62 50 -34 13 -45 29 -37 51 8 20 -6 49 -38 78
-34 32 -50 69 -50 113 -1 45 -6 57 -18 38 -19 -30 -62 -13 -62 25 0 33 -112
153 -144 153 -21 1 -21 4 -1 17 19 11 12 23 -25 43 -54 29 -98 10 -49 -21 16
-10 20 -19 9 -19 -11 0 -10 -7 2 -15 40 -27 52 -99 19 -112 -23 -9 -31 1 -31
37 0 26 -14 56 -31 65 -16 10 -35 43 -41 75 -13 73 -26 94 -50 79 -10 -6 -24
3 -30 20 -15 37 -61 41 -74 6 -5 -14 -16 -18 -26 -9 -9 9 -7 23 6 30 36 23
-15 164 -59 164 -22 0 -36 -16 -37 -45 -1 -35 -6 -30 -20 20 -18 60 -58 91
-58 45 0 -11 8 -20 18 -20 16 0 27 -40 51 -180 5 -27 31 -68 58 -90 131 -106
309 -230 329 -230 34 0 140 -122 154 -176 6 -26 54 -100 106 -165 52 -64 125
-158 164 -208 38 -50 86 -91 105 -91 43 0 45 27 5 67 -19 19 -23 35 -10 43 11
7 36 -15 55 -49 34 -59 39 -61 185 -61 104 1 141 7 120 20 -18 12 -21 20 -6
20 58 0 164 130 176 215 6 47 4 85 -6 85 -10 0 -28 23 -41 51 -13 28 -15 46
-4 40 10 -7 29 6 41 28 16 31 15 41 -3 41 -20 0 -20 5 -1 24 29 29 33 224 4
206 -22 -14 46 154 87 211 25 37 28 36 55 -16 15 -30 39 -62 53 -71 14 -9 25
-34 25 -55 0 -21 14 -39 30 -39 34 0 40 -31 10 -50 -22 -14 -27 -109 -8 -158
7 -18 20 -27 30 -21 24 15 23 84 -1 92 -24 8 -4 97 21 97 10 0 18 -9 18 -19 0
-11 17 -29 38 -40 32 -17 37 -14 28 19 -6 22 -19 40 -28 40 -10 0 -18 14 -18
30 0 17 -30 73 -67 126 -52 74 -62 102 -46 128 16 25 11 55 -20 120 -81 170
-82 178 -44 252 38 74 31 114 -15 96 -17 -6 -28 2 -28 21 0 19 -11 27 -28 20
-16 -6 -34 3 -40 20 -16 42 -17 40 33 39 35 -2 44 8 40 43 -14 133 88 -29 127
-202 16 -68 36 -141 46 -163 70 -157 82 -191 82 -228 0 -23 9 -42 19 -42 11 0
25 -34 32 -75 6 -41 20 -93 29 -115 10 -22 23 -60 30 -85 7 -25 22 -45 33 -45
10 0 14 -9 7 -20 -7 -11 5 -43 28 -71 39 -51 37 -104 -7 -134 -12 -8 -2 -15
23 -15 51 0 71 -26 74 -97 1 -34 21 -62 56 -82 69 -39 87 -20 49 54 -31 59
-73 212 -121 435 -29 132 -128 385 -234 596 -21 41 -38 88 -38 103 0 16 -41
88 -91 162 -50 73 -82 127 -70 120 39 -25 21 11 -39 75 -75 80 -135 39 -143
-96 -2 -44 -13 -92 -25 -107 -12 -17 -21 -157 -21 -350 -1 -344 -28 -448 -153
-584 -21 -23 -32 -49 -23 -59 8 -9 4 -10 -10 -2 -15 9 -57 -10 -103 -47 -43
-33 -89 -61 -103 -61 -34 0 56 -96 104 -111 88 -28 143 -223 86 -305 -103
-146 -341 88 -262 258 56 119 39 182 -91 342 -66 80 -173 214 -238 296 -114
143 -334 388 -508 568 -171 175 -381 612 -295 612 19 0 70 162 93 300 7 39 17
93 24 120 52 224 30 428 -52 470 -101 52 -130 264 -46 333 29 24 32 22 20 -23
-13 -49 86 -173 115 -144 19 19 12 104 -9 104 -11 0 -20 22 -20 48 0 52 44 80
117 73 40 -4 46 3 40 56 -4 39 8 77 33 107 71 82 60 162 -20 147 -48 -9 -68
-4 -77 19 -6 16 -21 30 -33 30 -13 0 -12 -13 3 -37 25 -41 9 -113 -21 -94 -11
6 -25 3 -32 -9 -7 -11 -30 -20 -51 -20 -25 0 -39 -14 -39 -39 0 -26 -13 -38
-40 -36 -28 3 -37 14 -29 38 9 27 -3 36 -55 41 l-66 6 77 75 c78 76 113 93
113 53 0 -16 9 -15 30 2 33 28 42 70 10 50 -11 -7 -20 -2 -20 10 0 12 -9 17
-20 10 -11 -7 -20 1 -20 18 0 16 9 35 20 42 11 7 20 3 20 -9 0 -11 9 -21 20
-21 11 0 20 18 20 40 0 39 1 38 51 -4 49 -43 49 -45 10 -60 -23 -8 -41 -26
-41 -40 0 -16 6 -18 15 -6 8 11 51 23 95 26 89 7 149 44 71 44 -26 0 -41 7
-33 15 20 20 79 19 94 -2 7 -9 33 -6 57 7 l45 23 -41 39 c-23 21 -55 38 -72
38 -17 0 -31 8 -31 17 0 9 27 16 60 16 45 0 60 -9 60 -37 0 -30 7 -34 37 -18
26 14 44 13 61 -4 14 -13 22 -15 18 -4 -3 11 3 23 14 26 11 3 23 -12 26 -34 5
-31 -3 -38 -35 -32 -27 5 -41 -3 -41 -22 0 -22 -12 -27 -42 -17 -29 9 -40 5
-35 -10 9 -27 13 -27 132 -9 73 11 142 48 89 48 -9 0 -27 22 -39 48 -28 60
-14 64 209 61 138 -1 161 3 142 26 -22 26 -283 22 -379 -7 -18 -5 -74 0 -124
11 -96 22 -193 -2 -193 -48 0 -25 -150 -27 -206 -2 -25 11 -34 8 -30 -12 4
-16 -8 -25 -29 -21 -21 3 -33 -5 -30 -20 5 -28 -32 -30 -91 -6 -24 10 -34 7
-30 -11 6 -28 -116 -74 -138 -52 -29 30 90 116 242 174 294 114 406 124 1082
100 330 -12 735 -25 900 -30 365 -10 446 -20 656 -84 258 -78 252 -77 198 -30
-25 22 -108 66 -184 97 -90 36 -140 67 -140 88 0 17 -22 42 -50 54 -27 13 -50
38 -50 56 0 27 -14 31 -80 20 -76 -12 -107 9 -59 39 14 8 8 23 -15 40 -42 32
-94 38 -76 9 15 -25 6 -25 -60 0 -58 22 -130 -3 -130 -46 0 -15 8 -13 20 6 18
27 22 27 40 0 16 -25 23 -25 37 -3 23 35 104 -11 89 -51 -6 -14 1 -26 14 -26
14 0 19 -13 12 -33 -11 -29 -8 -29 33 -2 31 20 60 24 92 12 26 -9 54 -13 62
-8 19 12 92 -65 77 -80 -10 -10 -276 25 -336 44 -27 9 -151 16 -433 24 -88 3
-102 8 -94 38 8 29 -5 36 -70 38 -44 1 -105 8 -136 15 l-57 13 48 -42 c34 -28
53 -34 63 -18 13 22 99 -6 99 -32 0 -25 -305 7 -323 33 -16 22 -22 22 -30 3
-12 -30 -179 -34 -197 -5 -7 12 -23 14 -36 6 -12 -7 -105 -15 -205 -16 -100
-2 -194 -11 -208 -20 -18 -11 -22 -9 -13 7 8 13 5 23 -7 23 -11 0 -21 -8 -21
-19 0 -10 -19 -15 -43 -11 -23 5 -58 0 -78 -10 -25 -14 -39 -12 -46 5 -8 19
-14 19 -29 -2 -10 -14 -22 -25 -26 -23 -5 2 -33 -3 -64 -11 -106 -26 -80 11
48 68 170 76 201 88 247 96 21 5 96 21 166 37 150 35 308 39 339 8 15 -15 25
-15 35 0 18 29 132 29 126 -1 -10 -46 41 -36 53 11 6 27 37 78 67 114 46 55
48 63 15 49 -22 -10 -60 -17 -85 -16 -25 0 -40 -7 -34 -17 15 -24 -5 -23 -52
3 -22 11 -39 13 -39 5 0 -24 -456 -29 -470 -6 -7 11 -27 20 -46 20 -26 0 -24
-6 11 -31 41 -28 43 -103 2 -77 -10 6 -30 3 -43 -7 -36 -29 -154 -47 -154 -24
0 39 -32 18 -35 -24 -3 -48 -31 -72 -105 -89 -27 -7 -77 -42 -110 -78 -113
-122 -172 -134 -182 -35 -4 30 -35 156 -71 279 -111 385 -34 595 272 748 186
93 212 113 147 114 -25 0 -134 37 -241 82 -216 91 -235 95 -235 52 0 -16 8
-30 18 -30 10 0 14 -20 8 -45 -7 -32 -4 -37 10 -18 15 22 29 21 80 -5 71 -36
99 -72 58 -72 -34 0 -114 -67 -114 -95 0 -11 -31 -26 -68 -33 -38 -7 -73 -25
-78 -39 -12 -32 59 -81 76 -52 28 44 45 -6 25 -71 -25 -81 -62 -96 -42 -17 9
37 6 49 -10 39 -13 -8 -23 -27 -23 -43 0 -39 -20 -37 -52 6 -23 31 -26 25 -22
-47 3 -56 12 -80 28 -73 23 8 86 -38 86 -64 0 -6 -18 -11 -40 -11 -44 0 -54
-31 -15 -46 14 -5 18 -16 9 -26 -9 -9 -33 -6 -55 8 -21 13 -52 24 -69 24 -16
0 -30 2 -30 5 0 3 14 55 30 115 16 61 30 141 30 178 0 38 16 87 35 109 21 24
24 33 7 23 -23 -13 -25 -8 -12 22 21 47 28 268 8 268 -22 0 -43 -63 -49 -145
-7 -110 -72 -224 -131 -230 -46 -4 -46 -4 -5 14 56 24 69 46 46 82 -16 24 -18
24 -19 -4 0 -18 -15 -38 -32 -45 -27 -10 -30 -3 -17 43 8 30 13 76 12 102 -2
40 5 46 46 38 37 -7 47 -1 45 28 -3 41 -34 52 -35 12 0 -14 -13 -8 -30 14 -16
22 -29 28 -29 13 0 -13 -15 -40 -33 -58 -31 -31 -33 -27 -22 54 7 48 24 95 38
105 21 12 19 16 -8 17 -19 0 -35 14 -35 30 0 60 -39 28 -60 -49z"/>
<path d="M2380 5538 c23 -16 12 -19 -45 -11 -41 6 -80 2 -86 -9 -7 -10 -45
-18 -85 -17 -41 1 -101 -4 -134 -11 -45 -10 -53 -8 -30 8 22 16 23 21 4 22
-14 0 -35 -27 -47 -60 -12 -33 -29 -60 -39 -60 -10 0 -18 -9 -18 -20 0 -29 71
-24 156 11 41 17 133 44 204 60 194 44 346 91 264 83 -36 -4 -70 0 -76 9 -6
10 -30 17 -54 17 -37 -1 -39 -4 -14 -22z"/>
<path d="M480 5496 c0 -29 -5 -65 -10 -79 -6 -15 6 -38 27 -50 34 -22 37 -17
31 57 -6 94 -48 156 -48 72z"/>
<path d="M2750 5445 c-22 -4 -53 -13 -70 -19 -16 -6 -57 -10 -89 -7 -52 4 -56
1 -33 -27 23 -28 21 -32 -15 -32 -22 0 -50 -16 -61 -35 -19 -31 -21 -30 -21
10 -1 55 -16 56 -81 5 -56 -44 -160 -54 -160 -15 -1 17 -7 15 -20 -5 -16 -25
-23 -25 -37 -3 -14 20 -20 18 -28 -13 -8 -30 -32 -41 -111 -48 -101 -10 -236
-75 -188 -91 31 -11 11 -45 -27 -45 -16 0 -23 12 -16 30 13 35 -45 41 -93 10
-26 -17 -25 -19 5 -20 19 0 35 -8 35 -18 0 -25 86 -38 135 -20 28 10 50 6 66
-13 30 -36 -52 -40 -161 -9 -81 23 -230 -29 -178 -62 27 -17 2 -28 -47 -20
-22 3 -18 -54 5 -68 32 -20 24 -110 -10 -110 -16 0 -30 10 -30 21 0 12 -14 8
-31 -9 -33 -33 -34 -151 -2 -174 16 -12 22 -73 30 -293 3 -82 4 -84 40 -50 20
19 33 42 29 50 -5 8 6 30 24 48 22 22 28 50 19 89 -7 33 -4 58 8 58 10 0 15
20 11 45 -9 44 -9 44 11 -2 30 -66 69 -43 83 49 7 43 14 60 16 38 4 -31 12
-25 38 30 19 39 43 77 54 85 11 8 13 15 4 15 -9 0 7 30 35 67 28 36 44 74 36
82 -8 9 5 10 28 3 33 -10 47 -4 56 26 21 64 228 82 248 20 5 -15 18 -34 29
-41 29 -19 -3 -57 -37 -44 -16 6 -29 1 -29 -11 0 -12 18 -22 40 -22 22 0 40 9
40 20 0 11 18 20 40 20 34 0 39 -9 28 -55 -16 -64 -30 -84 -41 -55 -4 11 -48
17 -98 13 -67 -5 -89 -15 -81 -34 20 -53 -25 -49 -68 6 l-44 55 57 7 c78 8 93
28 56 74 -30 38 -31 37 -19 -11 10 -40 8 -44 -10 -20 -17 23 -26 24 -33 5 -6
-14 -18 -25 -28 -25 -20 0 -118 -94 -108 -104 3 -4 -25 -42 -62 -86 -38 -44
-69 -100 -69 -125 0 -52 24 -58 60 -15 14 17 38 30 53 30 16 0 33 13 39 29 6
16 24 24 39 18 16 -6 34 4 41 21 10 25 19 28 40 11 41 -34 148 -5 135 37 -8
27 -3 25 24 -6 23 -28 36 -32 43 -15 5 14 22 25 38 25 16 0 34 14 41 30 15 39
59 38 75 -2 8 -21 33 -30 77 -27 137 10 182 1 156 -29 -14 -18 -16 -33 -4 -40
11 -7 23 -1 28 13 7 20 20 19 61 -3 38 -20 96 -25 218 -16 192 14 428 -35 424
-88 -2 -22 15 -27 67 -21 38 4 75 0 82 -10 18 -25 164 -73 178 -59 6 7 1 12
-12 12 -12 0 -60 36 -105 80 -46 44 -91 80 -100 80 -27 0 -21 55 7 67 20 8 20
10 0 11 -14 1 -25 19 -25 41 0 21 -17 44 -38 50 -21 7 -42 30 -48 52 -6 21
-25 39 -42 39 -34 0 -38 39 -12 120 l16 50 15 -45 c8 -26 30 -45 51 -45 25 0
50 -27 73 -80 19 -44 41 -80 50 -80 8 0 15 -17 15 -38 0 -41 37 -62 112 -62
26 0 48 -9 48 -20 0 -11 -9 -20 -20 -20 -11 0 -20 -10 -20 -23 0 -13 6 -18 13
-11 7 8 40 -15 74 -50 56 -59 58 -64 22 -78 -32 -12 -28 -16 21 -18 49 -2 53
-6 21 -18 -26 -10 -31 -20 -15 -30 13 -8 24 -8 24 0 0 9 29 -22 64 -68 36 -46
71 -84 78 -84 32 0 38 104 9 145 -17 24 -31 64 -31 88 0 25 -9 50 -20 57 -28
17 -25 85 5 95 38 13 76 -37 89 -115 6 -39 19 -76 29 -82 9 -6 17 -28 17 -50
0 -75 37 -18 60 93 27 128 -12 289 -87 359 -24 23 -55 64 -70 94 -47 89 -136
175 -158 153 -25 -25 -145 -36 -145 -13 0 9 15 16 33 16 19 0 29 5 24 10 -6 6
-53 2 -105 -8 -60 -11 -88 -10 -77 1 11 11 39 21 63 22 39 3 41 6 12 27 -17
13 -48 19 -69 14 -20 -5 -43 0 -50 12 -7 12 -32 22 -56 22 -23 0 -36 6 -29 12
52 53 -182 152 -372 157 -90 2 -191 13 -224 24 -33 11 -78 16 -100 12z m-270
-273 c0 -10 -6 -13 -13 -6 -7 8 -25 4 -40 -9 -20 -16 -27 -16 -27 1 0 16 -11
18 -35 5 -45 -23 -148 -24 -133 0 6 9 -6 24 -26 32 -24 10 0 18 74 25 108 10
200 -12 200 -48z m709 20 c15 -24 13 -38 -7 -51 -42 -26 -11 -77 52 -85 60 -6
94 -76 37 -76 -17 0 -29 11 -26 25 7 36 -157 26 -195 -12 -25 -26 -23 -33 18
-60 34 -22 53 -24 69 -8 16 16 35 16 68 0 25 -12 61 -27 81 -33 20 -6 31 -20
25 -31 -7 -11 -25 -14 -41 -8 -17 6 -35 -3 -41 -19 -15 -38 -150 -23 -175 20
-10 16 -33 23 -54 16 -20 -6 -42 -2 -49 9 -21 34 -92 26 -78 -9 6 -16 19 -25
28 -20 19 12 48 -27 33 -43 -6 -6 -29 -1 -51 11 -30 16 -42 15 -50 -3 -6 -15
-10 -11 -11 9 -1 22 -13 31 -32 23 -17 -6 -35 3 -42 21 -7 17 -19 28 -27 22
-8 -5 -11 13 -6 41 5 27 22 49 37 49 16 0 28 10 28 21 0 12 -7 17 -16 12 -41
-26 -70 22 -39 66 22 32 34 36 41 17 6 -14 12 -4 12 22 1 26 -14 60 -33 74
-32 24 -30 27 18 27 44 1 51 -6 43 -39 -10 -37 10 -51 61 -42 10 2 39 -11 65
-28 52 -34 66 -10 18 30 -45 38 -36 62 19 48 57 -14 109 8 72 31 -13 8 10 13
52 10 45 -2 84 -18 96 -37z m-1049 -14 c0 -7 -58 -13 -130 -14 -71 0 -130 7
-130 17 0 9 58 15 130 13 71 -2 130 -10 130 -16z m567 -48 c-6 -16 -24 -31
-39 -32 -15 -2 -37 -5 -48 -8 -11 -3 -34 -6 -51 -7 -17 -2 -26 -11 -20 -21 6
-10 -3 -23 -21 -30 -45 -17 -68 -15 -68 8 0 11 13 20 29 20 15 0 34 18 41 39
9 28 34 41 96 46 46 5 86 10 88 12 3 1 0 -10 -7 -27z m1167 -23 c-8 -7 2 -25
21 -39 32 -24 30 -27 -20 -27 -30 -1 -55 6 -55 15 0 17 42 64 57 64 5 0 4 -6
-3 -13z m-194 -107 c25 -14 42 -13 50 0 7 11 21 15 32 9 11 -7 51 -15 90 -19
75 -7 103 -22 81 -43 -7 -8 -35 -3 -63 9 -28 13 -50 15 -50 5 0 -11 -25 -16
-55 -12 -96 13 -165 35 -165 53 0 24 34 23 80 -2z m-998 -114 c10 -27 13 -58
7 -68 -6 -10 -2 -18 10 -18 11 0 21 -12 21 -26 0 -32 -135 -27 -167 5 -33 33
-61 25 -33 -9 21 -25 18 -30 -18 -30 -24 0 -42 13 -42 30 0 17 -9 30 -20 30
-36 0 -21 41 34 97 69 71 179 65 208 -11z m1258 -89 c0 -13 -6 -18 -13 -10 -8
7 -30 -2 -50 -20 -35 -31 -37 -31 -37 10 0 33 12 43 50 43 28 0 50 -10 50 -23z
m100 -62 c17 -7 -10 -12 -60 -13 -86 -1 -88 0 -40 25 28 14 55 20 60 12 6 -7
24 -18 40 -24z m-652 -47 c17 -46 16 -48 -28 -48 -39 0 -54 39 -27 67 22 22
42 15 55 -19z"/>
<path d="M3470 5360 c91 -55 408 -168 424 -153 22 23 -436 214 -508 213 -9 -1
29 -28 84 -60z"/>
<path d="M151 5185 c-7 -19 0 -39 18 -50 17 -9 31 -29 31 -43 0 -14 28 -27 65
-30 36 -2 117 -9 180 -15 164 -15 155 28 -15 74 -33 8 -106 34 -163 57 -94 37
-104 38 -116 7z"/>
<path d="M180 4783 c0 -60 1 -61 39 -29 22 19 38 35 35 36 -2 1 -20 13 -39 28
-32 24 -35 21 -35 -35z"/>
<path d="M3005 4606 c-55 -11 -60 -46 -7 -46 21 0 43 -11 49 -25 6 -15 10 -11
11 10 1 21 18 35 41 35 21 0 44 9 51 20 12 20 -57 23 -145 6z"/>
<path d="M4640 4529 c-11 -28 -29 -46 -40 -39 -11 7 -20 -1 -20 -17 0 -16 14
-34 32 -41 22 -9 28 -27 19 -68 -10 -46 -6 -55 27 -55 21 0 34 8 27 19 -6 10
-10 71 -7 135 5 126 -7 147 -38 66z"/>
<path d="M3014 4434 l-93 -66 80 -21 c81 -22 113 -1 36 24 -39 12 -37 16 25
45 38 18 73 39 79 48 20 28 129 -16 136 -55 4 -22 22 -56 40 -76 18 -21 30
-43 27 -50 -4 -6 4 -16 18 -20 16 -6 20 3 11 27 -9 22 -1 50 20 73 31 35 31
37 -1 37 -19 0 -29 9 -23 19 7 10 39 16 72 11 97 -12 67 21 -43 47 -182 42
-280 31 -384 -43z"/>
<path d="M4516 4422 c-6 -42 -1 -55 18 -48 14 6 26 1 26 -11 0 -12 13 -17 29
-11 16 6 24 23 18 38 -6 15 -22 23 -37 17 -19 -7 -24 2 -16 31 6 23 2 42 -9
42 -11 0 -24 -26 -29 -58z"/>
<path d="M396 4383 c26 -7 46 -20 45 -28 0 -8 -1 -25 -1 -37 0 -13 -18 -18
-41 -12 -26 7 -38 2 -34 -12 9 -27 296 -27 294 -1 -1 10 -16 14 -32 11 -17 -4
-45 13 -61 36 -20 28 -45 40 -68 34 -21 -6 -38 -2 -38 8 0 10 -25 17 -55 16
-52 -2 -52 -3 -9 -15z"/>
<path d="M4386 4360 c-2 -20 13 -40 35 -46 50 -13 52 38 3 64 -28 15 -36 11
-38 -18z"/>
<path d="M4085 4243 c-31 -19 31 -81 129 -131 78 -39 79 -39 92 -4 8 19 0 24
-27 17 -24 -6 -43 3 -51 23 -7 17 -31 32 -53 32 -84 0 -12 27 75 28 72 2 88
-4 79 -27 -6 -17 -5 -24 1 -17 7 7 39 5 71 -4 34 -10 63 -9 70 1 6 11 -5 20
-25 20 -33 2 -33 3 3 17 21 8 61 11 90 5 28 -5 40 -13 27 -18 -13 -4 -21 -18
-17 -31 32 -103 30 -130 -11 -140 -54 -14 -98 3 -98 38 0 41 -34 34 -45 -9 -5
-21 12 -82 38 -135 41 -82 46 -114 34 -198 -21 -150 -24 -315 -7 -408 11 -64
9 -82 -13 -82 -39 0 -59 -60 -27 -80 59 -36 81 2 76 129 -3 91 5 139 30 178
19 29 34 58 33 66 -2 7 8 19 21 27 34 21 60 159 47 244 -7 43 1 115 18 170 16
53 31 127 33 165 2 37 12 79 24 93 12 14 12 29 2 36 -28 17 -591 13 -619 -5z"/>
<path d="M160 4221 c0 -7 10 -23 22 -35 12 -12 24 -74 26 -138 2 -70 13 -118
28 -123 13 -5 18 -19 10 -32 -27 -43 -28 -96 -1 -83 14 7 9 0 -10 -16 -36 -29
-49 -65 -17 -45 20 12 5 -68 -19 -99 -15 -20 -7 -148 10 -166 5 -5 2 -24 -8
-42 -10 -18 -23 -100 -29 -182 -6 -82 -16 -203 -21 -269 -12 -144 15 -66 48
139 10 66 52 305 91 530 40 226 78 438 83 471 11 61 10 62 -101 82 -62 11
-112 15 -112 8z"/>
<path d="M617 4115 c13 -13 46 -13 96 0 l77 20 -96 0 c-64 0 -90 -7 -77 -20z"/>
<path d="M755 4026 c36 -5 94 -5 130 0 36 4 7 8 -65 8 -71 0 -101 -4 -65 -8z"/>
<path d="M3595 3985 c-36 -8 -47 -36 -20 -51 40 -23 165 -34 165 -15 0 12 -23
21 -51 21 -28 0 -46 8 -40 19 15 24 -10 36 -54 26z"/>
<path d="M3780 3989 c0 -5 16 -27 34 -49 37 -42 86 -54 86 -20 0 11 15 20 32
20 24 0 27 -7 12 -25 -34 -42 26 -83 64 -44 42 42 140 -9 109 -56 -2 -3 7 -25
20 -50 14 -25 16 -45 6 -45 -22 0 -66 50 -54 62 4 4 -14 8 -41 8 -41 0 -74
-29 -33 -30 35 -1 145 -118 152 -161 3 -26 17 -50 30 -55 13 -4 23 -16 23 -27
0 -11 -18 -14 -40 -7 -28 9 -40 4 -40 -19 0 -17 17 -31 38 -31 21 0 42 -18 48
-42 16 -59 46 -33 102 88 70 151 81 196 45 183 -49 -20 -56 26 -9 60 25 17 41
32 35 32 -122 20 -133 28 -101 67 36 43 -41 83 -94 50 -29 -18 -47 -18 -76 0
-35 22 -34 23 9 11 35 -10 45 -6 39 14 -5 15 -27 27 -48 28 -21 0 -49 7 -62
15 -26 16 -286 37 -286 23z"/>
<path d="M835 3966 c35 -5 98 -5 140 -1 41 5 12 8 -65 8 -77 1 -111 -3 -75 -7z"/>
<path d="M3140 3950 c0 -16 -10 -30 -22 -30 -12 0 -18 -11 -13 -25 18 -53 155
-30 154 25 0 44 -3 46 -21 15 -27 -47 -58 -44 -58 5 0 22 -9 40 -20 40 -11 0
-20 -13 -20 -30z"/>
<path d="M3789 3902 c6 -11 -4 -23 -24 -27 -19 -4 4 -15 51 -23 62 -12 84 -24
76 -44 -7 -19 5 -28 39 -28 27 0 49 9 49 20 0 11 -13 20 -30 20 -16 0 -30 9
-30 20 0 11 -22 20 -50 20 -31 0 -50 11 -50 30 0 17 -10 30 -21 30 -12 0 -16
-8 -10 -18z"/>
<path d="M605 3865 c52 -4 138 -4 190 0 52 4 10 8 -95 8 -104 0 -147 -4 -95
-8z"/>
<path d="M2312 3837 c5 -9 -11 -14 -36 -13 -100 4 -139 -5 -131 -29 13 -38
174 -34 202 6 13 18 37 38 53 45 17 6 1 10 -34 9 -35 -2 -59 -10 -54 -18z"/>
<path d="M2535 3821 c-7 -23 -19 -41 -28 -39 -54 9 -87 -6 -87 -41 0 -24 -16
-41 -45 -45 -25 -4 -43 -18 -40 -31 6 -30 2 -30 -64 -6 -35 14 -49 13 -46 -2
3 -12 -8 -27 -23 -32 -16 -6 -22 -1 -14 11 7 12 2 28 -11 36 -14 9 -18 6 -9
-8 7 -13 -5 -34 -27 -48 -65 -40 -13 -77 119 -84 42 -3 83 -32 71 -51 -6 -9 7
-21 29 -27 54 -14 54 54 0 92 -36 25 -37 32 -11 53 24 20 39 15 81 -27 29 -29
63 -52 76 -53 75 -2 100 -59 27 -59 -45 0 -70 8 -63 20 7 11 2 20 -11 20 -15
0 -19 -17 -12 -45 7 -25 13 -51 13 -58 1 -56 377 -90 397 -36 3 11 19 19 34
19 28 0 129 120 129 154 0 11 18 36 40 56 46 42 55 87 10 50 -17 -14 -36 -21
-42 -14 -7 6 7 23 30 37 62 39 51 71 -23 69 -48 -1 -66 -12 -72 -42 -19 -105
-160 -175 -197 -97 -13 27 -14 47 -3 47 10 0 -4 23 -32 51 -63 63 -63 60 9 65
42 3 60 -4 60 -26 0 -20 20 -30 61 -30 54 0 60 -5 48 -43 -9 -28 -6 -38 9 -28
36 22 25 74 -18 85 -22 6 -40 19 -40 28 0 10 -14 18 -31 18 -16 0 -37 16 -45
35 -8 19 -32 36 -54 37 -22 1 -72 9 -112 17 -63 13 -74 9 -83 -28z m178 -182
c7 -33 20 -59 30 -59 9 0 17 -9 17 -20 0 -36 -37 -21 -50 21 -9 28 -21 35 -37
23 -35 -28 -133 -47 -133 -26 0 46 27 82 63 82 22 0 35 7 30 16 -6 9 7 17 29
19 29 2 43 -13 51 -56z"/>
<path d="M1914 3807 c-28 -28 13 -47 101 -47 98 0 109 13 20 25 -29 4 -60 13
-68 21 -17 17 -36 18 -53 1z"/>
<path d="M3528 3805 c21 -21 132 -24 132 -3 0 10 -33 18 -73 18 -41 0 -67 -7
-59 -15z"/>
<path d="M3427 3709 c-7 -19 -26 -26 -49 -18 -21 6 -38 3 -38 -7 0 -11 -18
-24 -41 -30 -41 -11 -45 -59 -11 -137 9 -19 17 -46 19 -61 7 -45 94 -156 122
-156 14 0 37 -13 51 -30 13 -16 32 -25 41 -19 9 5 22 1 29 -11 18 -28 105 -25
117 5 7 19 15 18 31 -5 20 -27 24 -27 42 0 35 54 22 76 -45 75 -110 -1 -135 4
-135 30 0 17 33 25 100 25 55 0 100 -8 100 -19 0 -10 13 -1 29 20 23 30 30 32
32 9 2 -16 9 -8 17 19 35 127 55 54 47 -168 -7 -194 -4 -231 21 -231 16 0 34
-19 40 -43 9 -31 23 -39 53 -32 50 14 57 -39 10 -73 -37 -27 -19 -92 24 -92
21 0 26 -12 17 -40 -18 -58 35 -104 101 -88 36 9 59 4 70 -14 21 -33 63 -38
84 -9 9 14 14 12 15 -4 0 -15 27 -25 68 -25 38 0 72 -8 75 -18 4 -10 34 -23
67 -29 139 -25 264 -93 170 -93 -12 0 -16 -11 -8 -25 8 -14 -5 -8 -29 13 -23
21 -43 29 -43 17 0 -35 -228 0 -252 38 -6 9 -34 11 -62 4 -36 -9 -48 -6 -38
10 8 13 5 23 -7 23 -30 0 -26 -51 6 -78 16 -12 45 -17 65 -10 26 8 30 6 13 -7
-41 -29 31 -79 137 -95 131 -19 151 -35 122 -99 -22 -49 -21 -51 46 -51 57 0
70 -7 70 -41 0 -31 9 -39 36 -30 26 8 45 -4 64 -39 18 -33 32 -43 42 -28 7 13
32 19 53 13 22 -5 54 -1 72 9 24 13 33 10 33 -13 0 -17 7 -31 16 -31 8 0 17
-23 20 -51 2 -30 -5 -46 -16 -39 -30 19 -24 -9 10 -43 39 -39 39 -107 0 -107
-16 0 -31 -7 -31 -15 -1 -8 -6 -54 -12 -103 -8 -73 -5 -85 22 -75 19 7 31 1
31 -18 0 -16 -13 -29 -30 -29 -17 0 -30 -18 -30 -44 0 -24 -11 -74 -24 -111
-29 -79 -1 -111 88 -99 30 4 49 -1 44 -10 -6 -9 8 -16 31 -16 51 0 55 56 6 91
-57 42 -61 332 -7 488 23 67 42 132 42 146 0 42 66 67 140 53 39 -7 52 -15 30
-17 -23 -2 -29 -9 -15 -14 14 -6 19 -20 12 -32 -9 -14 -4 -15 15 -3 46 29 138
21 139 -12 1 -27 43 49 47 86 1 8 14 23 29 32 45 28 -3 43 -208 67 l-189 22 4
59 c6 80 29 84 219 36 174 -44 202 -37 181 43 -7 30 -3 37 15 25 18 -10 23 -6
17 12 -5 15 -53 43 -107 61 l-99 33 4 107 c3 59 9 131 14 161 10 64 -40 121
-60 68 -7 -18 -1 -46 12 -62 27 -32 0 -42 -31 -12 -10 10 -41 23 -69 28 -49 8
-49 9 5 11 64 3 73 34 15 49 -22 6 -40 2 -40 -7 0 -19 -200 -14 -233 7 -11 7
-60 17 -109 23 l-88 11 100 -38 c95 -37 102 -44 45 -49 -16 -2 -24 -36 -22
-98 1 -52 -1 -95 -4 -95 -2 0 -91 23 -197 50 -106 28 -210 50 -231 50 -49 0
-74 39 -39 61 34 22 9 48 -31 32 -17 -6 -25 -24 -20 -40 9 -23 -14 -27 -125
-21 -119 6 -296 42 -233 46 13 1 19 19 13 42 -6 22 -3 40 7 40 10 0 20 23 22
50 3 28 -5 50 -17 50 -12 0 -17 13 -12 28 7 16 -4 32 -25 38 -25 6 -34 25 -30
61 3 29 -3 53 -13 53 -10 0 -19 16 -20 35 0 19 -6 24 -11 11 -5 -13 -23 -19
-39 -13 -31 12 -3 67 34 67 30 0 229 176 215 190 -18 18 -117 26 -106 9 6 -11
5 -30 -3 -43 -10 -16 -19 -12 -28 13 -11 34 -14 34 -46 2 -32 -32 -34 -31 -34
15 0 49 47 85 82 63 10 -6 18 -2 18 9 0 26 -75 67 -98 53 -10 -6 -30 5 -45 23
-24 29 -23 32 8 20 23 -8 35 -3 35 14 0 15 20 34 45 41 44 14 43 15 -12 31
-70 21 -113 7 -113 -39 0 -60 -87 -120 -130 -88 -29 21 -43 21 -67 2 -23 -19
-31 -19 -38 -1 -8 26 -65 12 -91 -23 -9 -11 -11 -1 -4 24 10 37 5 45 -31 45
l-43 0 47 50 c44 47 91 69 69 33 -6 -9 3 -16 19 -16 16 0 29 17 29 38 0 29 10
35 40 25 23 -7 40 -4 40 9 0 11 -23 21 -51 21 -36 0 -47 8 -36 25 8 14 -1 12
-22 -5 -29 -23 -40 -24 -46 -5 -12 36 -144 32 -158 -6z m43 -109 c0 -19 -23
-32 -65 -36 -44 -4 -61 -14 -52 -30 8 -14 6 -17 -5 -7 -50 46 -21 107 51 105
49 -1 71 -11 71 -32z m1710 -882 c0 -8 34 -20 75 -27 109 -19 117 -30 109
-144 -6 -84 -14 -103 -41 -96 -18 4 -99 23 -179 42 l-146 36 10 70 c6 39 11
86 11 105 1 34 161 47 161 14z m-90 -385 c30 -5 42 -25 46 -80 7 -83 -12 -89
-176 -51 -49 11 -115 21 -147 22 -56 2 -128 76 -107 110 10 15 292 14 384 -1z"/>
<path d="M775 3705 c47 -4 123 -4 170 0 47 5 9 8 -85 8 -93 0 -132 -3 -85 -8z"/>
<path d="M696 3605 c47 -4 119 -4 160 0 40 5 2 8 -86 8 -88 0 -122 -3 -74 -8z"/>
<path d="M805 3545 c41 -4 109 -4 150 0 41 5 8 8 -75 8 -82 0 -116 -3 -75 -8z"/>
<path d="M647 3507 c14 -15 195 -12 210 3 5 6 -43 10 -107 10 -64 0 -111 -6
-103 -13z"/>
<path d="M4620 3462 c0 -21 -5 -51 -10 -66 -7 -16 18 -41 65 -63 41 -21 91
-45 110 -55 49 -26 47 -27 74 77 14 52 28 106 32 120 6 18 -30 25 -132 25
-124 0 -139 -4 -139 -38z"/>
<path d="M5013 3484 c-4 -8 -1 -71 6 -140 16 -163 6 -178 -96 -137 -55 22 -85
25 -94 11 -8 -13 -41 -16 -81 -9 -44 8 -68 5 -68 -9 0 -12 9 -17 20 -10 25 15
83 -40 64 -60 -8 -8 9 -9 36 -3 28 7 38 7 24 1 -21 -10 -21 -18 0 -44 22 -27
21 -30 -6 -20 -57 22 -83 -11 -56 -71 30 -65 5 -97 -34 -44 -28 38 -28 38 -28
0 0 -48 79 -87 132 -67 80 32 145 21 134 -22 -7 -27 -1 -40 20 -40 22 0 35 28
44 95 7 52 21 115 31 140 14 34 11 45 -9 45 -15 0 -53 13 -85 30 -31 16 -72
30 -91 30 -18 0 -39 9 -46 20 -17 28 26 24 128 -11 48 -17 92 -26 98 -20 6 6
0 11 -14 11 -13 0 -19 9 -13 19 7 11 23 17 37 13 13 -3 17 -2 9 3 -8 5 -10 17
-3 28 7 11 27 -4 46 -35 38 -62 134 -87 101 -26 -12 23 -12 40 1 48 11 7 20
51 20 99 0 96 52 146 69 65 31 -156 29 -190 -16 -204 -36 -12 -37 -16 -9 -23
19 -5 29 -21 24 -35 -18 -46 74 -69 136 -34 61 35 73 62 26 62 -16 0 -30 8
-30 18 0 10 -15 16 -32 15 -41 -4 -53 169 -13 182 14 5 25 -6 25 -23 0 -26 7
-25 41 9 22 22 35 50 27 62 -8 14 2 13 30 -2 47 -25 82 -13 82 29 0 30 -82 42
-395 58 -101 5 -188 3 -192 -4z m7 -537 c0 -51 -1 -52 -39 -18 -27 24 -59 32
-110 25 -39 -5 -71 -2 -71 7 0 9 47 20 105 24 58 4 107 9 110 11 3 2 5 -20 5
-49z"/>
<path d="M274 3157 c-15 -113 63 -160 96 -57 7 22 29 35 58 33 62 -4 11 -91
-55 -96 -83 -6 -90 -8 -107 -24 -41 -41 -101 -522 -68 -546 50 -37 200 -54
233 -26 46 38 34 59 -31 59 -33 0 -60 9 -60 20 0 11 -16 20 -35 20 -29 -1 -30
-4 -6 -19 38 -24 17 -46 -27 -29 -21 8 -30 25 -22 44 6 17 1 37 -12 45 -13 8
-18 30 -11 48 14 36 90 26 117 -16 54 -85 337 -69 321 18 -11 55 28 69 40 14
6 -25 18 -12 44 45 20 44 45 98 56 120 11 23 -7 12 -42 -25 -65 -69 -94 -83
-76 -37 15 39 -29 52 -179 52 -108 0 -128 5 -129 35 0 43 -38 95 -79 109 -20
8 -13 16 25 26 30 8 55 21 55 30 0 19 82 41 196 52 54 5 82 0 74 -12 -7 -11
-23 -20 -37 -20 -13 0 -27 -29 -29 -64 -3 -35 -15 -75 -27 -90 -17 -20 -12
-26 20 -26 31 0 38 9 29 33 -8 21 -5 29 9 20 14 -8 17 2 10 30 -16 61 43 97
158 97 l95 0 -34 -59 c-26 -45 -28 -65 -10 -83 18 -18 26 -6 37 50 9 50 30 82
66 102 l53 29 -50 2 c-27 1 -93 3 -145 5 -52 2 -95 11 -95 20 0 9 -18 11 -40
4 -22 -7 -40 -4 -40 6 0 11 72 15 176 9 150 -9 181 -5 211 25 47 47 61 43
-277 69 -165 13 -332 28 -372 34 l-72 11 -12 -87z m106 -377 c0 -11 20 -21 45
-23 l45 -2 -44 -9 c-24 -5 -50 -27 -57 -49 -10 -32 -18 -36 -36 -17 -17 19
-17 27 2 34 35 13 31 46 -5 46 -16 0 -30 9 -30 20 0 11 18 20 40 20 22 0 40
-9 40 -20z"/>
<path d="M2838 3171 c-11 -47 -1 -69 57 -123 36 -35 65 -75 65 -90 -1 -22 -5
-22 -20 2 -16 25 -19 24 -20 -6 0 -26 -13 -36 -45 -32 -25 2 -63 -4 -84 -13
-21 -9 -69 -17 -105 -18 -53 -1 -69 -12 -85 -56 -10 -31 -33 -61 -50 -67 -17
-7 -26 -20 -20 -30 6 -10 -3 -12 -20 -6 -35 14 -34 16 -40 -127 -4 -98 11
-131 39 -85 7 11 25 20 40 20 15 0 53 26 85 58 77 77 242 113 367 81 48 -13
138 -30 198 -37 114 -15 250 -59 232 -76 -5 -6 12 -33 38 -62 26 -28 43 -59
38 -68 -6 -9 3 -16 19 -16 20 0 28 -17 24 -51 -3 -30 3 -48 17 -43 12 4 22 34
23 66 0 32 6 72 13 88 32 78 31 131 -4 199 -43 85 -203 261 -237 261 -35 0
-28 30 17 70 61 55 22 72 -92 42 -95 -25 -110 -24 -217 20 -64 26 -123 43
-132 38 -23 -15 -80 11 -69 31 6 9 2 22 -10 29 -11 7 -21 7 -22 1z m352 -359
c61 -1 90 -11 90 -29 0 -18 14 -24 40 -17 22 6 40 2 40 -8 0 -10 12 -18 26
-18 33 0 139 -108 123 -125 -19 -18 -124 24 -136 55 -6 15 -27 23 -49 17 -22
-6 -67 4 -102 22 -34 18 -62 24 -62 14 0 -10 -59 -6 -131 9 -73 16 -155 22
-183 15 -71 -18 -45 19 42 61 38 18 82 27 98 21 17 -7 36 -2 44 11 10 16 21
16 42 -2 15 -12 69 -24 118 -26z"/>
<path d="M4427 3000 c0 -130 27 -130 36 0 4 63 -1 100 -15 100 -12 0 -21 -42
-21 -100z"/>
<path d="M5112 3031 c7 -16 25 -24 45 -17 27 10 28 7 8 -15 -14 -15 -25 -36
-24 -48 0 -12 9 -6 20 13 14 25 39 31 94 25 l75 -9 -64 20 c-35 12 -70 29 -76
40 -20 32 -90 24 -78 -9z"/>
<path d="M4609 2940 c0 -25 13 -40 35 -40 42 0 46 22 12 56 -34 34 -47 30 -47
-16z"/>
<path d="M5340 2962 c0 -12 9 -22 19 -22 11 0 28 -29 39 -65 13 -47 19 -53 20
-22 1 24 8 59 15 79 10 24 6 30 -10 20 -14 -9 -38 -5 -54 9 -20 17 -29 17 -29
1z"/>
<path d="M4140 2859 c0 -10 29 -19 65 -19 36 0 93 -8 127 -18 74 -21 168 -7
168 25 0 15 -62 24 -180 27 -104 3 -180 -4 -180 -15z"/>
<path d="M3877 2825 c-30 -7 -56 -61 -57 -119 0 -13 24 -22 55 -20 49 4 55 -3
55 -56 0 -33 6 -65 13 -70 8 -6 39 -42 70 -80 47 -58 72 -71 147 -77 91 -6 79
43 -21 82 -22 9 -21 12 6 13 38 2 47 32 15 52 -11 7 -20 2 -20 -12 0 -13 -19
0 -41 29 -23 29 -54 53 -68 53 -15 0 -32 22 -39 49 -9 35 -22 46 -45 37 -25
-10 -29 -3 -18 31 9 29 5 43 -13 43 -21 1 -21 4 1 18 32 20 7 38 -40 27z"/>
<path d="M4560 2804 c0 -22 25 -32 135 -54 51 -10 65 -7 65 18 0 20 -17 31
-45 31 -25 -1 -70 5 -100 12 -34 8 -55 5 -55 -7z"/>
<path d="M4140 2778 c0 -8 36 -9 80 -3 53 7 80 2 80 -12 0 -13 9 -23 20 -23
11 0 20 14 20 31 0 24 -21 30 -100 26 -55 -2 -100 -11 -100 -19z"/>
<path d="M3803 2615 c-10 -25 -33 -101 -54 -170 -20 -69 -44 -125 -52 -125 -9
0 -11 -13 -4 -30 6 -16 1 -30 -11 -30 -16 0 -15 -12 3 -40 33 -53 55 -51 55 6
0 25 9 55 20 66 11 11 22 44 24 74 3 30 12 54 22 54 9 0 10 10 2 23 -10 17 9
20 69 12 98 -13 96 -17 33 77 -38 56 -45 80 -28 101 18 21 14 27 -20 27 -26 0
-49 -17 -59 -45z"/>
<path d="M2850 2559 c18 -91 86 -122 255 -115 85 3 155 -2 155 -11 0 -10 17 4
38 30 l38 47 -83 25 c-46 14 -141 30 -213 36 -71 6 -145 15 -164 21 -26 8 -32
0 -26 -33z"/>
<path d="M1788 2495 c-8 -27 7 -59 48 -102 32 -35 55 -75 49 -89 -5 -15 8 -31
29 -37 38 -10 112 -138 88 -153 -6 -4 1 -4 16 0 35 9 98 -56 87 -90 -13 -39
35 -84 90 -84 36 0 46 -8 37 -31 -6 -17 -4 -27 4 -21 21 12 49 -9 76 -57 14
-26 48 -42 96 -47 l75 -7 -127 127 c-69 70 -138 145 -152 166 -17 28 -29 32
-36 15 -9 -19 -18 -18 -40 4 -32 32 -38 91 -8 91 11 0 20 -19 20 -41 0 -39 3
-39 32 -10 29 30 37 30 80 2 25 -17 79 -31 118 -31 39 0 107 -18 150 -40 43
-22 88 -40 101 -40 12 0 36 -14 54 -32 19 -19 51 -28 82 -22 28 5 66 0 86 -12
28 -18 43 -14 73 22 46 53 75 56 93 10 8 -20 0 -40 -19 -51 -17 -10 -26 -26
-19 -36 18 -29 49 -22 49 11 0 17 18 30 39 30 28 0 36 -9 27 -32 -11 -30 -8
-30 38 0 27 17 56 26 64 18 8 -8 8 2 0 23 -10 25 -7 33 7 24 12 -7 35 0 52 17
17 16 53 30 82 30 38 0 51 10 51 40 0 22 -9 40 -20 40 -11 0 -20 -13 -20 -29
0 -19 -12 -25 -31 -18 -17 7 -27 25 -21 40 13 32 -7 34 -78 7 -32 -12 -47 -29
-38 -43 10 -17 3 -19 -24 -7 -21 9 -81 17 -133 18 -81 2 -90 6 -62 27 34 25
-69 64 -123 47 -11 -3 -31 -8 -44 -10 -14 -2 -31 -10 -39 -18 -22 -22 -127
-16 -127 7 0 12 10 15 23 7 15 -9 18 -5 9 9 -8 13 -24 18 -36 11 -11 -7 -27
-3 -34 9 -8 13 -41 24 -73 26 -60 4 -129 48 -129 82 0 10 -13 31 -28 46 -16
16 -24 46 -18 69 6 22 1 40 -12 40 -12 0 -22 -10 -22 -22 0 -12 -13 -17 -29
-11 -17 6 -35 3 -42 -8 -10 -17 17 -28 56 -21 8 1 15 -21 15 -48 0 -31 11 -50
30 -50 17 0 30 -9 30 -20 0 -34 -50 -22 -80 20 -41 58 -111 49 -178 -21 -65
-68 -93 -53 -72 41 15 67 -39 90 -56 25 -9 -33 -10 -33 -12 0 -1 19 22 50 50
68 64 42 16 72 -75 46 -46 -13 -51 -10 -41 26 8 32 3 39 -21 30 -40 -16 -60 4
-35 35 13 16 10 23 -10 23 -16 0 -35 -17 -42 -38z"/>
<path d="M3823 2285 c4 -100 5 -104 12 -30 4 53 15 81 28 73 13 -8 12 3 -2 30
-35 65 -41 52 -38 -73z"/>
<path d="M411 2358 c-99 -24 -126 -48 -31 -28 63 13 67 11 40 -17 -17 -18 -50
-35 -75 -39 -56 -8 -145 -84 -145 -124 0 -35 -6 -35 75 -11 52 14 65 12 65
-10 0 -16 10 -29 21 -29 12 0 17 -7 12 -15 -5 -8 31 -17 79 -19 67 -3 88 3 88
26 0 17 -7 26 -16 21 -9 -6 -17 7 -19 29 -1 21 6 34 17 27 10 -6 36 27 58 75
21 47 39 75 40 61 0 -14 10 -25 22 -25 16 0 15 9 -2 30 -14 17 -41 30 -61 30
-20 0 -42 9 -49 20 -14 23 -12 23 -119 -2z"/>
<path d="M3028 2211 c-6 -27 -6 -57 0 -68 7 -11 1 -24 -13 -30 -14 -5 -5 -11
18 -11 24 -1 58 -7 75 -14 18 -7 32 -2 32 10 0 12 -14 22 -31 22 -17 0 -25 10
-18 21 17 28 -6 119 -31 119 -11 0 -25 -22 -32 -49z"/>
<path d="M3485 2187 c-14 -6 -25 -23 -25 -39 0 -15 -16 -28 -34 -28 -28 0 -26
-6 11 -32 30 -21 43 -46 37 -70 -14 -52 33 -87 66 -48 20 24 18 32 -8 42 -45
17 -40 41 13 57 l45 13 -46 23 c-31 15 -44 35 -37 59 5 20 8 35 6 34 -2 0 -14
-6 -28 -11z"/>
<path d="M1174 2147 c11 -30 111 -49 135 -25 12 11 10 18 -6 18 -14 0 -21 7
-15 16 5 10 -20 16 -56 15 -42 0 -63 -10 -58 -24z"/>
<path d="M4330 1989 c-32 -25 -34 -34 -12 -48 20 -12 24 -44 15 -124 -7 -59
-12 -127 -13 -152 0 -30 -12 -45 -36 -45 -20 0 -46 -10 -57 -21 -15 -15 -19
10 -13 85 6 75 3 97 -11 77 -11 -16 -15 -54 -9 -85 7 -35 2 -56 -11 -56 -13 0
-23 -14 -23 -31 0 -27 -8 -26 -50 8 -34 26 -74 37 -125 33 -41 -3 -59 -1 -40
4 83 21 30 49 -68 36 -73 -10 -98 -8 -88 8 7 12 4 22 -8 22 -11 0 -18 16 -16
35 6 40 -4 45 -77 45 -42 0 -48 -5 -30 -27 18 -22 13 -26 -28 -18 -42 8 -50
21 -50 77 0 53 -7 64 -32 54 -18 -6 -40 0 -49 16 -23 36 -39 16 -60 -74 -21
-96 -17 -102 86 -119 47 -7 94 -20 105 -29 11 -8 70 -30 130 -49 61 -19 128
-42 150 -51 104 -44 205 -36 130 10 -12 7 -15 21 -9 32 6 10 25 5 42 -12 16
-16 23 -40 16 -52 -10 -15 0 -18 28 -9 31 10 43 5 43 -16 0 -16 14 -34 32 -41
51 -19 68 -14 55 18 -8 22 3 30 46 30 48 0 57 8 59 55 1 30 11 143 21 250 20
207 19 210 -43 164z"/>
<path d="M3795 1889 c-8 -39 -3 -49 19 -40 16 6 33 11 38 11 4 0 8 18 8 40 0
58 -54 49 -65 -11z"/>
<path d="M4140 1898 c0 -33 9 -40 40 -32 22 6 40 2 40 -9 0 -11 9 -14 21 -6
14 9 14 21 -1 39 -16 19 -15 29 4 36 14 6 -3 12 -39 12 -53 2 -65 -6 -65 -40z"/>
<path d="M427 1814 c-13 -20 -14 -19 73 -63 93 -46 176 -73 254 -81 35 -4 82
-12 105 -20 46 -14 52 5 15 50 -42 50 -110 80 -185 80 -39 0 -91 11 -115 24
-53 28 -133 34 -147 10z"/>
<path d="M2560 1764 c0 -31 48 -64 89 -62 36 2 36 4 5 12 -22 6 -32 21 -26 38
7 18 -3 28 -29 28 -21 0 -39 -7 -39 -16z"/>
<path d="M2975 1751 c-19 -14 -35 -41 -35 -61 0 -25 -11 -32 -40 -24 -38 10
-49 -5 -41 -61 1 -14 -16 -25 -38 -25 -23 0 -41 -9 -41 -20 0 -11 18 -20 41
-20 33 0 39 -10 33 -55 -6 -36 -20 -54 -41 -52 -47 4 -48 -203 -2 -221 17 -6
26 -21 19 -32 -7 -11 1 -20 18 -20 39 0 59 34 27 47 -14 5 -6 11 18 11 36 2
44 17 51 87 11 102 21 141 41 156 8 6 16 51 18 100 2 49 12 95 23 102 11 7 12
32 1 63 -15 45 -22 48 -52 25z"/>
<path d="M962 1581 c-16 -9 -96 -14 -178 -11 -146 7 -148 7 -108 -30 56 -53
218 -126 243 -111 12 8 29 -8 39 -35 12 -31 40 -53 80 -61 34 -6 81 -35 105
-62 24 -28 53 -51 64 -51 11 0 -5 27 -36 59 -50 52 -53 62 -24 73 26 10 29 19
11 40 -12 15 -17 41 -11 58 12 30 -15 39 -92 31 -19 -2 -35 5 -35 16 0 11 -16
24 -35 29 -33 9 -33 9 0 12 19 1 35 16 35 32 0 34 -17 37 -58 11z"/>
<path d="M4450 1560 c-34 -12 -32 -15 16 -27 30 -8 54 -22 54 -32 0 -22 122
-85 137 -71 5 5 -2 10 -17 10 -15 0 -22 5 -16 10 15 16 77 -12 67 -29 -5 -8 2
-15 15 -16 13 -1 52 -10 86 -21 l62 -19 -6 72 c-3 40 -6 80 -7 88 -3 36 -61
11 -61 -26 0 -35 -6 -37 -43 -17 -24 12 -78 22 -120 22 -61 -1 -77 6 -77 34 0
37 -27 44 -90 22z"/>
<path d="M5320 1500 c0 -29 13 -40 50 -40 37 0 50 11 50 40 0 29 -13 40 -50
40 -37 0 -50 -11 -50 -40z"/>
<path d="M3671 1361 c-7 -11 -3 -21 9 -21 12 0 17 -9 10 -20 -7 -11 9 -29 35
-41 47 -22 91 -135 128 -329 19 -98 21 -109 26 -115 2 -3 6 -36 9 -75 3 -38
25 -108 49 -155 29 -55 39 -102 31 -135 -9 -37 -4 -50 17 -50 37 0 54 59 55
185 0 92 1 94 39 61 36 -31 39 -51 27 -212 -10 -141 -6 -182 16 -197 21 -15
22 -22 3 -30 -56 -23 -21 -227 39 -227 21 0 33 9 26 20 -7 11 1 14 19 8 24
-10 31 2 31 48 0 97 -18 127 -62 103 -54 -29 -51 29 4 68 35 25 38 36 18 72
-17 33 -17 50 1 72 13 16 16 29 5 29 -10 0 -14 31 -10 69 5 44 17 65 33 59 29
-11 36 -120 12 -167 -11 -20 -7 -46 11 -70 15 -21 28 -73 28 -115 0 -42 9 -76
20 -76 11 0 20 -27 20 -60 0 -50 8 -60 49 -60 45 0 47 4 30 65 -23 79 -23 80
-2 67 10 -6 23 -38 30 -72 11 -57 17 -60 114 -60 l102 0 -62 110 c-33 61 -87
157 -119 215 -33 58 -79 163 -103 234 -47 135 -96 230 -174 334 -25 34 -62
106 -81 160 -46 128 -75 176 -108 179 -14 1 -42 3 -61 5 -19 2 -35 14 -36 28
0 22 -75 65 -182 105 -18 7 -39 3 -46 -9z m462 -665 c-21 -34 -25 -34 -47 -3
-32 42 -12 77 26 45 24 -19 27 -17 17 14 -10 29 -8 32 7 10 14 -19 13 -40 -3
-66z"/>
<path d="M5292 1349 c-6 -18 -7 -41 -1 -51 6 -10 2 -18 -10 -18 -28 0 -14 -86
17 -96 37 -12 79 34 68 75 -7 27 0 36 27 34 25 -2 37 10 37 37 0 53 -118 70
-138 19z"/>
<path d="M262 1192 c-12 -14 -16 -32 -8 -39 7 -7 2 -13 -10 -13 -13 0 -22 -20
-20 -45 1 -25 -3 -63 -11 -86 -11 -34 -4 -41 42 -43 45 -3 48 -1 16 12 -39 15
-39 16 0 40 27 17 31 28 14 35 -14 6 -25 19 -25 30 0 11 9 14 20 7 11 -7 20
-2 20 11 0 14 17 19 40 13 22 -6 40 -2 40 8 0 10 -20 19 -45 20 -25 0 -34 6
-20 11 33 14 32 40 -4 54 -15 6 -38 -1 -49 -15z"/>
<path d="M3060 1126 c0 -207 -297 -405 -430 -286 -89 79 -241 129 -167 54 15
-15 50 -57 77 -94 28 -36 70 -89 95 -118 25 -28 50 -68 56 -87 36 -112 298
128 366 334 46 140 56 251 23 251 -11 0 -20 -24 -20 -54z"/>
<path d="M1343 1032 c21 -46 108 -87 133 -63 6 6 -3 11 -20 11 -18 0 -37 23
-44 50 -8 32 -27 50 -52 50 -34 0 -36 -6 -17 -48z"/>
<path d="M1520 922 c0 -10 23 -33 52 -51 49 -32 51 -32 45 0 -7 35 -97 82 -97
51z"/>
<path d="M3245 869 c-14 -15 -24 -70 -23 -123 2 -78 5 -87 18 -46 15 45 16 46
18 7 2 -35 36 -67 74 -67 19 0 3 96 -28 173 -28 68 -38 78 -59 56z"/>
<path d="M989 652 c-7 -26 -4 -109 7 -185 l19 -137 2 185 c3 185 -6 227 -28
137z"/>
<path d="M5085 670 c-35 -40 -32 -43 36 -43 39 0 51 5 35 16 -14 9 -18 17 -8
17 11 0 36 -15 56 -34 21 -19 58 -37 82 -40 59 -9 233 -63 289 -91 60 -29 68
-17 44 69 -19 69 -23 72 -94 62 -41 -5 -133 5 -205 24 -188 49 -207 51 -235
20z"/>
<path d="M1730 654 c54 -18 78 -36 75 -58 -4 -19 7 -31 28 -29 21 2 40 -17 49
-47 l14 -50 2 54 c2 50 7 53 82 46 48 -4 80 1 80 14 0 13 -37 18 -99 12 -55
-6 -96 -3 -91 5 17 26 -38 54 -130 67 l-90 12 80 -26z"/>
<path d="M3291 533 c-35 -26 -66 -145 -32 -124 9 6 21 -12 26 -40 5 -27 2 -55
-8 -61 -30 -19 -18 -105 18 -127 32 -20 32 -24 -10 -54 -58 -41 -57 -60 5 -72
32 -6 50 0 50 16 0 14 16 30 35 35 33 9 33 10 -1 12 -29 2 -34 14 -25 67 18
116 19 144 4 190 -9 24 -7 59 3 77 41 74 -2 127 -65 81z"/>
<path d="M1246 387 c7 -62 23 -120 36 -128 13 -8 18 -29 12 -47 -8 -20 -2 -32
17 -32 16 0 29 18 29 40 0 22 -8 40 -18 40 -24 0 -42 77 -20 84 30 10 -4 156
-37 156 -25 0 -28 -20 -19 -113z"/>
<path d="M3422 445 c8 -263 48 -435 103 -441 47 -6 55 0 55 45 0 28 -10 49
-23 46 -24 -5 -36 67 -43 247 -3 65 -12 90 -29 83 -15 -6 -25 7 -25 33 0 23
-9 42 -20 42 -11 0 -19 -25 -18 -55z"/>
<path d="M4780 462 c0 -20 138 -50 155 -33 7 6 -8 11 -32 11 -23 0 -43 9 -43
20 0 11 -18 20 -40 20 -22 0 -40 -8 -40 -18z"/>
<path d="M1481 388 c18 -21 20 -35 5 -45 -40 -25 10 -103 74 -116 33 -7 60
-25 60 -41 0 -20 13 -25 42 -15 27 8 49 3 60 -14 13 -20 17 -15 18 18 0 25 -7
44 -15 43 -44 -7 -65 6 -65 42 0 26 -14 41 -40 43 -72 4 -80 7 -78 27 1 11 11
18 21 15 11 -4 14 3 7 15 -7 11 -25 20 -41 20 -16 0 -29 9 -29 20 0 11 -10 20
-22 20 -15 0 -14 -10 3 -32z"/>
<path d="M4700 390 c0 -17 18 -30 40 -30 22 0 40 13 40 30 0 17 -18 30 -40 30
-22 0 -40 -13 -40 -30z"/>
<path d="M4980 366 c0 -19 11 -26 30 -19 18 7 30 0 30 -18 0 -16 14 -29 31
-29 18 0 25 10 18 22 -9 14 4 13 33 -3 46 -25 47 -25 15 23 -38 57 -157 75
-157 24z"/>
<path d="M5352 324 c-19 -32 25 -132 70 -161 26 -16 37 -14 45 7 7 16 -5 33
-28 40 -21 7 -46 40 -55 76 -11 41 -22 54 -32 38z"/>
<path d="M3740 251 c0 -18 17 -31 42 -31 48 0 42 47 -9 56 -19 4 -33 -6 -33
-25z"/>
<path d="M2118 233 c12 -16 17 -45 10 -65 -9 -30 -7 -32 9 -9 16 24 25 24 51
2 22 -17 32 -18 32 -3 0 12 -10 22 -21 22 -13 0 -16 17 -9 40 11 33 4 40 -41
40 -43 0 -49 -5 -31 -27z"/>
<path d="M2775 172 c7 -11 -5 -13 -27 -5 -37 13 -37 12 1 -17 21 -16 60 -30
86 -30 26 0 42 -9 35 -20 -7 -11 -3 -20 9 -20 11 0 21 25 21 57 0 51 -6 56
-68 55 -37 -1 -63 -10 -57 -20z"/>
<path d="M5265 150 c12 -63 -42 -69 -95 -10 -20 22 -44 40 -53 40 -28 0 -19
-44 16 -83 31 -35 31 -37 -1 -37 -19 0 -29 8 -23 18 6 10 -3 23 -19 29 -17 7
-24 25 -18 42 14 34 -61 46 -81 13 -32 -52 161 -162 284 -162 114 0 180 36
126 69 -10 6 -21 2 -24 -8 -4 -11 -27 -15 -52 -8 -33 8 -40 20 -27 42 20 37 6
105 -23 105 -11 0 -15 -22 -10 -50z"/>
<path d="M1190 145 c18 -133 70 -167 70 -45 0 65 -7 80 -37 80 -24 0 -36 -13
-33 -35z"/>
<path d="M3800 95 c1 -54 7 -75 18 -58 13 21 19 20 29 -5 8 -21 36 -32 84 -32
40 0 66 8 60 19 -7 11 -28 14 -47 7 -28 -10 -29 -7 -9 15 34 37 31 66 -5 52
-31 -12 -79 52 -56 74 7 7 -7 13 -31 13 -37 0 -43 -11 -43 -85z"/>
<path d="M5469 99 c-41 -46 -42 -45 56 -73 95 -28 108 -8 36 60 -56 52 -56 52
-92 13z"/>
<path d="M2300 40 c0 -33 13 -40 73 -40 72 0 73 1 37 40 -48 53 -110 53 -110
0z"/>
</g>
</svg>
